<svg xmlns="http://www.w3.org/2000/svg" xmlns:xlink="http://www.w3.org/1999/xlink" version="1.1" x="0px" y="0px" viewBox="0 0 131.4 90.9" enable-background="new 0 0 131.4 90.9" xml:space="preserve"><style>.pencil-style{fill:	#F5F2E5;}</style><g><path d="M28.7 52.2l58.1-34.6l-3.3-5.5L23.1 48L0 90.9l0 0l49.1-0.1L109.4 55l-3.4-5.5L47.9 84.1l0.6 3.8l-25.9-0.1 l-9.2-15.2l12-22.7L28.7 52.2L28.7 52.2z M37.3 66.5l58.1-34.6L88.8 21L30.7 55.6l0-0.1l1.1 6.8L37.3 66.5z M104 46.1l-6.6-10.9 L39.3 69.9l1.1 6.7l5.6 4.2L104 46.1z M130 33.9L111.9 4c0 0-3.9-6.5-9.9-2.9L87 10l26 42.8l15-8.9C128 43.9 134 40.3 130 33.9" class="pencil-style"/></g></svg>