<svg xmlns="http://www.w3.org/2000/svg" xmlns:xlink="http://www.w3.org/1999/xlink" version="1.1" x="0px" y="0px" viewBox="0 0 37.7 37.7" enable-background="new 0 0 37.7 37.7" xml:space="preserve"><style>.cog-fill{fill:	#F5F2E5;}</style><path d="M25.9 18.8c0-3.9-3.2-7.1-7.1-7.1c-3.9 0-7.1 3.2-7.1 7.1c0 3.9 3.2 7.1 7.1 7.1 C22.7 25.9 25.9 22.7 25.9 18.8 M37.7 21.1L32 23.5c-0.2 0.4-0.3 0.9-0.5 1.3l2.3 5.6l-3.3 3.3l-5.6-2.3c-0.4 0.2-0.9 0.4-1.3 0.5 l-2.3 5.6h-4.7l-2.4-5.6c-0.5-0.2-0.9-0.3-1.4-0.5l-5.6 2.3l-3.3-3.3l2.2-5.6c-0.2-0.5-0.4-0.9-0.6-1.4L0 21.2v-4.7l5.5-2.4 c0.2-0.5 0.3-0.9 0.6-1.4L3.8 7.2l3.3-3.3l5.6 2.2c0.4-0.2 0.9-0.4 1.4-0.6L16.4 0h4.7l2.4 5.6c0.5 0.2 0.9 0.3 1.3 0.5l5.6-2.3 l3.3 3.3l-2.3 5.7c0.2 0.4 0.4 0.8 0.5 1.3l5.6 2.3V21.1z" class="cog-fill"/></svg>