<svg xmlns="http://www.w3.org/2000/svg" xmlns:xlink="http://www.w3.org/1999/xlink" version="1.1" x="0px" y="0px" viewBox="0 0 48.1 28" enable-background="new 0 0 48.1 28" xml:space="preserve"><style>.eye_style{fill:	#EF225E;}</style><path d="M26.8 14c0-1.5-1.2-2.7-2.7-2.7c-1.5 0-2.7 1.2-2.7 2.7c0 1.5 1.2 2.7 2.7 2.7C25.5 16.7 26.8 15.5 26.8 14 M32.8 14c0 4.9-3.9 8.8-8.8 8.8s-8.8-3.9-8.8-8.8c0-4.9 3.9-8.8 8.8-8.8c0.2 0 0.5 0 0.7 0c-0.1 0.5-0.3 1.1-0.3 1.6 c0 3.4 2.7 6.1 6.1 6.1c0.8 0 1.5-0.2 2.1-0.4C32.8 13 32.8 13.5 32.8 14 M48.1 14.2L48 14C42.3 7.5 34.5 0 24 0 C19.8 0 16 1.2 11.9 3.7C8.5 5.9 5 8.9 0.1 13.9L0 14l0.8 0.9C7.7 21.9 13.7 28 24 28c4.6 0 9-1.5 13.5-4.6c3.9-2.6 7.2-5.9 9.8-8.6 L48.1 14.2z" class="eye_style"/></svg>