<svg xmlns="http://www.w3.org/2000/svg" xmlns:xlink="http://www.w3.org/1999/xlink" version="1.1" x="0px" y="0px" viewBox="0 0 302.5 316.6" enable-background="new 0 0 302.5 316.6" xml:space="preserve"><style>.ideas-style0{fill:	#F5F2E5;}.ideas-style1{fill:	none;}</style><g><g><path d="M257.2 203.9c-5 4.3-9.4 7.7-14.6 10.4c-8.3 4.2-17.8 6.4-27.4 6.4l-2.3 0c-3.7 9.4-9.9 17.7-17.7 24.2 c-5 4.2-10.7 7.5-16.8 9.8c0.6 0.3 1.2 0.5 1.8 0.7c7.8 2.9 16.2 2.9 23.8 0c4.6-1.8 8.8-4.3 12.3-7.9l1.1-0.9h1.6 c21.1 0 38.4-17.4 38.4-38.4C257.3 206.9 257.2 205.4 257.2 203.9L257.2 203.9z" class="ideas-style0"/></g><g><path d="M147.4 106.7l0.4-0.4c0.4-0.6 0.9-1.2 1.3-1.8l0 0l0 0c-1.5-1-3.2-1.9-4.9-2.7c-4.8-2.1-10.2-3.1-15.7-3.1 c-6.2 0-12.2 1.4-17.2 3.9c-5.4 2.8-9.6 6.8-12.4 12l-1.9 3.6l-4-0.5c-1.3-0.2-2.6-0.2-3.9-0.2c-3.5 0-6.6 0.6-9.6 1.8 c-2.6 1.1-5 2.6-7.2 4.6c-3.9 3.6-7 8.9-8.8 14.8c-1 3.5-1.6 7.2-1.6 10.4l0 0.7l0.1 0c6.1 0.6 12.1 2.5 17.3 5.4 c6.4 3.5 11.6 8.5 15 14.5l0 0c1.1-2 2.4-3.8 3.8-5.4c5.9-6.8 13.5-10.1 18.8-11.7c4.1-1.2 8.5-1.9 12.5-1.9c0.8 0 1.7 0 2.6 0.1 c0.7-1.7 1.6-3.3 2.5-4.9c1.9-2.9 4.3-5.5 7.1-7.8v0c-0.4-3-0.6-5.9-0.6-8.6c0-8.7 2.1-16.5 6.1-22.6L147.4 106.7z" class="ideas-style0"/></g><g><path d="M262.6 133.1c-1.7-5-4.1-9.7-7-14c-4.8-7.1-11.4-12.9-18.8-17c-1.8-1-3.7-1.8-5.6-2.6l-1.1-0.5l-0.6-1 c-1.5-2.4-3.2-4.6-5-6.8c-5.8-6.6-13.1-11.8-21.6-15.4c-7.9-3.3-16.3-5-24.9-5c-5 0-10 0.6-14.8 1.8l-1.3 0.3l-1.2-0.6 c-2.9-1.4-6.1-2.6-9.3-3.6c-7.1-2.2-14.6-3.3-22.3-3.3c-5.6 0-11.1 0.6-16.5 1.8c-8.8 2-16.9 5.6-24 10.6 c-2.8 1.9-5.4 4.2-7.8 6.6l-0.8 0.8l-1.1 0.2c-1.6 0.3-3.2 0.6-4.8 1c-4.2 1.1-8.3 2.7-12.1 4.6c-6.1 3.2-11.6 7.5-16.4 12.8 c-3.1 3.4-5.8 7.3-8.2 11.4c-3 5.3-5.3 11.1-6.9 17.1l-0.4 1.6l-1.5 0.7c-16.9 8.4-27.9 25.9-27.9 44.7c0 27.5 22.4 50 50 50 c5.3 0 10.6-0.9 15.6-2.5v0c0-5.4 0.9-10.4 2.4-15.1c2.1-6.8 5.8-12.6 10.7-17.3c2.7-2.6 5.9-4.9 9.5-6.8 c-0.1-3.8-0.9-7.5-2.6-10.8c-1.6-3.2-4-6.1-7-8.6c-6-4.9-14-7.7-22.2-7.7c-6.1 0-11.9 1.5-16.7 4.5c-4.5 2.7-8.2 6.6-11 11.4 l-1.7 2.9l-9.4-4.3l2-3.5c3.6-6.5 8.7-11.8 14.8-15.4c4.4-2.7 9.4-4.5 14.7-5.3l0 0l0-1c0-5.2 0.9-10.7 2.7-15.9 c2-6 5-11.2 8.7-15.6c2.9-3.3 6.2-6.1 9.8-8.1c5.3-3 11.6-4.6 18.2-4.6c0.4 0 0.7 0 1 0l0.5 0c3.9-5.8 9.3-10.6 15.6-13.8 c6.8-3.5 14.7-5.3 22.9-5.3c7.2 0 14.4 1.5 20.8 4.2c3.6 1.5 6.8 3.5 9.7 5.8l0 0c1.7-1 3.5-1.8 5.3-2.4c4.1-1.4 8.5-2.2 13.1-2.2 c6.5 0 13 1.5 18.8 4.3c6.1 3 11.1 7.3 14.4 12.6c1.5 2.4 2.7 4.8 3.5 7.8h0c3.7 1 7.2 1.6 10.3 3.1c4.2 2 7.9 4.9 10.9 8.4 c5.4 6.4 8.3 14.9 8.3 23.8c0 6.3-1.5 12.4-4.2 17.7c-3 5.8-7.4 10.3-12.8 13c-3.9 2-8.3 3-12.9 3c-4.2 0-8.6-0.8-13.1-2.5 c-13.8-3.2-25.4-2.6-33.7 1.7c-4.9 2.6-8.6 6.3-11.4 11.4c-1.5 2.8-2.7 6.1-3.6 9.7l-0.8 3.4l-11.9-2.1l0.9-3.8 c1.8-7.7 5-14.3 9.3-19.6c4.8-5.9 11.4-10.3 19.1-12.6c9.8-3 21.8-3 35.1 0.2l0.8 0.2c3.3 1.2 6.4 1.9 9.3 1.9c2.1 0 4-0.3 5.8-1 c1.7-0.6 3.2-1.5 4.6-2.7c2.7-2.3 4.9-5.6 6.1-9.6c0.8-2.6 1.3-5.5 1.3-8.4c0-4.6-1.1-8.9-3.1-12.6c-2.2-3.9-5.3-6.9-9.2-8.8 c-3-1.4-6.5-2.2-10.4-2.4l-5.2-0.2l-0.6-5.2c-0.3-2.7-1.2-5.3-2.6-7.6c-1.4-2.2-3.3-4.2-5.7-6c-4.7-3.4-11-5.4-17.2-5.4 c-4.9 0-9.4 1.2-13.1 3.3c-4 2.4-6.9 5.8-8.7 10.4c-1.4 3.5-2.1 7.6-2.1 12.3c0 0.8 0 1.6 0.1 2.6c3.6-1.2 7.3-1.7 11-1.7 c4.7 0 9.2 0.9 13.6 2.7c3.4 1.4 6.7 3.4 9.7 5.9l3.2 2.6l-8.6 8.5l-2.6-2.1c-2-1.6-4.1-2.9-6.3-3.8c-2.9-1.2-5.9-1.8-8.9-1.8 c-3.9 0-7.9 1-11.4 2.9c-3.4 1.8-6.2 4.4-8.2 7.4c-1.3 2-2.2 4.1-2.6 6.3l-1.2 6.8l-6.6-2.2c-0.8-0.3-2.6-0.6-4.8-0.6h-0.1 c-3.4 0-7.1 0.6-10.5 1.7c-3.9 1.3-7.5 3.4-10.2 5.9c-2 1.9-3.9 4.1-5.2 6.5c-1.9 3.8-3.1 8.2-3.1 13.4v4l-3.6 1.5 c-4 1.7-7.3 3.8-10 6.5c-2.4 2.3-4.4 4.9-5.9 8c-2.5 5.1-3.5 10.6-3.5 14.2v0v0c2 17.1 16.4 30 33.7 30c9 0 17.6-3.5 24-9.9 l1.6-1.6l2.2 0.7c4.8 1.5 9.7 2.2 14.6 2.2c22.6 0 42.4-15.2 48.3-36.9l0.9-3.2l3.2 0.5c2.5 0.4 5.1 0.5 7.4 0.5 c8 0 15.9-1.8 22.7-5.3c4.9-2.5 9.4-5.8 13.3-9.8c5.2-5.4 9.3-11.8 12-19.2c1.3-3.7 2.1-7.6 3.1-11.6v-18.7 C264.2 139.7 263.7 136.4 262.6 133.1z" class="ideas-style0"/></g></g><g><path d="M258.5 262.3l-12.5-14c-4.4 3-9.3 5.3-14.6 6.7l15.7 17.6L258.5 262.3z" class="ideas-style0"/><path d="M267.7 254l-12.4-13.9c-1.7 1.9-3.6 3.7-5.6 5.4l12.2 13.7L267.7 254z" class="ideas-style0"/><path d="M243.7 275.8l-17.6-19.7c-1.6 0.2-3.2 0.4-4.8 0.5c-2.8 2.5-6 4.6-9.6 6.4l20.6 23.1L243.7 275.8z" class="ideas-style0"/><path d="M207.2 264.9c-2.7 1-5.6 1.7-8.4 2.2l24.4 27.3l5.8-5.2L207.2 264.9z" class="ideas-style0"/><path d="M285 273.4L271 257.8l-44.6 40.4l13.9 15.6c0 0 5.6 6.3 12.3 0.1l31.1-28.2 C283.8 285.8 290.6 279.6 285 273.4z" class="ideas-style0"/></g><path d="M70.4 236.1l-1.1 0.4c-6 2-12.4 3.1-18.8 3.1c-4 0-7.9-0.4-11.7-1.2l-27.4 27.7l0 0 c-10.4 11.2-10.1 28.8 0.9 39.6c11 10.8 28.5 10.9 39.6 0.3l0 0l43.3-43.9C83.8 257.5 74.7 248 70.4 236.1z M41.7 294.7 c-5.1 5.2-13.4 5.2-18.6 0.1c-5.2-5.1-5.2-13.4-0.1-18.6c5.1-5.2 13.4-5.2 18.6-0.1C46.8 281.2 46.8 289.5 41.7 294.7z" class="ideas-style0"/><g><path d="M52.1 40.6l2.2-4.4l-29.5-9L8.9 41.5l5.7 30.6l4.4-1.6l21.5 24.1c1.1-1.1 2.3-2.2 3.4-3.2l-21.4-24l3.7-7.5 l7.6-2.8l22.8 25.5c0.2-0.1 0.4-0.2 0.5-0.3c1.3-0.7 2.5-1.3 3.8-1.8L37.3 53.9l3.7-7.5l7.8-2.9l-0.1 0.1l27.7 31.1 c1.2-1 2.4-2 3.6-3L52.1 40.6L52.1 40.6z" class="ideas-style1"/><path d="M48.8 43.6L41 46.4l-3.7 7.5L61 80.4c3.3-1.5 6.8-2.7 10.4-3.6c1.2-0.3 2.4-0.6 3.6-0.8 c0.5-0.4 1-0.9 1.4-1.3L48.8 43.6L48.8 43.6z" class="ideas-style0"/><path d="M26.2 59.8l-3.7 7.5l21.4 24c3.9-3.4 8.1-6.4 12.7-8.8L33.8 57L26.2 59.8z" class="ideas-style0"/><path d="M40.5 94.6L19 70.5l-4.4 1.6L8.9 41.5l15.8-14.4l29.5 9l-2.2 4.4l0.1-0.1L80 71.7c0.9-0.7 1.7-1.3 2.6-2 c1.2-0.9 2.5-1.7 3.8-2.5L55.9 33L0 15.6h0l11.3 57.8l24.1 27c0.9-1.1 1.8-2.1 2.7-3.2C38.8 96.3 39.7 95.4 40.5 94.6z" class="ideas-style0"/></g><path d="M301 36.8c-23 24.6-26.2 28-44.3 10.2c-18.1-17.8-15-21.2 8-45.8 c-15.3-4.3-41.5 3.5-49.9 26.4c-8.1 21.9 8.3 27.4-3.1 41.5c7.8 4 14.6 9.3 20.2 15.7c1.8 2 3.4 4.1 4.8 6.3 c0.9 0.4 1.7 0.8 2.5 1.2c11.8-8.7 18.3 5.5 38.1-3.2C299.3 79.4 305.9 52.3 301 36.8z" class="ideas-style0"/></svg>