<svg xmlns="http://www.w3.org/2000/svg" xmlns:xlink="http://www.w3.org/1999/xlink" version="1.1" x="0px" y="0px" viewBox="0 0 101 113.2" enable-background="new 0 0 101 113.2" xml:space="preserve"><style>.make-atom-style0{stroke:	#F5F2E5;stroke-width:	2.675;fill:	none;}.make-atom-style1{fill:	#F5F2E5;}</style><g><path d="M27 56.6c0 27.5 10.5 55.3 23.4 55.3c12.9 0 23.4-27.8 23.4-55.3 S63.4 1.3 50.5 1.3C37.5 1.3 27 29.1 27 56.6z" class="make-atom-style0"/><path d="M38.8 36.3C15 50-3.8 73 2.6 84.2c6.5 11.2 35.8 6.4 59.6-7.3 C86 63.1 104.8 40.2 98.3 29S62.5 22.6 38.8 36.3z" class="make-atom-style0"/><path d="M62.2 36.3C38.4 22.6 9.1 17.8 2.6 29C-3.8 40.2 15 63.1 38.8 76.9 c23.8 13.7 53.1 18.5 59.6 7.3C104.8 73 86 50 62.2 36.3z" class="make-atom-style0"/><path d="M65.7 81.1c0 2.8 2.3 5.1 5.1 5.1c2.8 0 5.1-2.3 5.1-5.1c0-2.8-2.3-5.1-5.1-5.1 C67.9 76.1 65.7 78.4 65.7 81.1" class="make-atom-style1"/><path d="M14.1 50.5c0 2.8 2.3 5.1 5.1 5.1s5.1-2.3 5.1-5.1c0-2.8-2.3-5.1-5.1-5.1S14.1 47.7 14.1 50.5" class="make-atom-style1"/><path d="M57.5 36.5c0 2.8 2.3 5.1 5.1 5.1s5.1-2.3 5.1-5.1c0-2.8-2.3-5.1-5.1-5.1S57.5 33.7 57.5 36.5" class="make-atom-style1"/><path d="M36.3 56.6c0 7.9 6.4 14.2 14.2 14.2s14.2-6.4 14.2-14.2s-6.4-14.2-14.2-14.2S36.3 48.7 36.3 56.6" class="make-atom-style1"/></g></svg>