<?xml version="1.0" encoding="utf-8"?>
<!-- Generator: Adobe Illustrator 18.0.0, SVG Export Plug-In . SVG Version: 6.00 Build 0)  -->
<!DOCTYPE svg PUBLIC "-//W3C//DTD SVG 1.1//EN" "http://www.w3.org/Graphics/SVG/1.1/DTD/svg11.dtd">
<svg version="1.1" id="Layer_1" xmlns="http://www.w3.org/2000/svg" xmlns:xlink="http://www.w3.org/1999/xlink" x="0px" y="0px"
	 viewBox="0 119 800 365.9" enable-background="new 0 119 800 365.9" xml:space="preserve">
<g>
	<g>
		<g opacity="0.85">
			<g>
				<path fill="#F8F7F1" d="M203.7,187.7c-13.1-25.3-37.3-66-47.4-68.7c-0.2,0.1-0.5,0.4-0.8,0.7C142.2,133.4,142.1,227.7,142,284
					c0,15.7-0.1,30.9-0.3,45c25.2-11.7,67.7-28.9,124.3-43.3C253.8,277.2,239.7,257.3,203.7,187.7"/>
			</g>
		</g>
		<path fill="#F8F7F1" d="M309.5,313.9c0,0,37.6-33.3,154.6-33.3c151.2,0,286.8,66.5,286.8,66.5s-139.7-45.9-286.8-45.9
			C340.1,301.3,309.5,313.9,309.5,313.9 M448.2,261c-18.4,0-36.7,0.9-54.4,2.6c-48,4.6-90.8,12.8-127.8,22.2
			c-56.6,14.4-99.1,31.6-124.3,43.3c-12.6,5.8-20.9,10.3-24.4,12.2c-4,5.4-16.8,24.6-19.6,52.1c-0.3,3.4-0.3,6.8,0,10.2l196.7-14.3
			c-34.2,18.1-60,31.9-188.6,42c5.1,10.9,11.5,20.2,15.9,25.7c15.8,5.2,92.6,28.2,207.6,28.2c34,0,68.7-2,103.2-6
			c165-19,316.6-99.6,368.5-129.8C750.2,324.1,606.6,261,448.2,261"/>
		<g opacity="0.85">
			<g>
				<path fill="#F8F7F1" d="M97.8,403.4L97.8,403.4L0,437.4c41.6-1.9,76.5-4,105.9-6.3c128.5-10.1,154.4-23.9,188.6-42L97.8,403.4z"
					/>
			</g>
		</g>
	</g>
</g>
</svg>
