<svg xmlns="http://www.w3.org/2000/svg" xmlns:xlink="http://www.w3.org/1999/xlink" version="1.1" x="0px" y="0px" viewBox="0 0 120.3 87.7" enable-background="new 0 0 120.3 87.7" xml:space="preserve"><style>.thinklandia-brain-style0{fill:	#F5F2E5;}</style><g><path d="M98.2 82.3c0.2 0 0.5 0 0.7 0c9.9 0 17.9-8 17.9-17.9c0-0.7 0-1.3-0.1-1.9c-1.9 1.9-4.2 3.6-6.8 4.9 c-3.9 2-8.3 3-12.8 3h0h0l-0.1 0v0c-0.3 0-0.6 0-0.9 0c-1.8 4.4-4.6 8.3-8.2 11.3c-2.3 1.9-5 3.5-7.8 4.6c0.3 0.1 0.6 0.2 0.8 0.3 c1.7 0.7 3.6 1 5.5 1c2 0 3.8-0.4 5.5-1C94.4 85.7 96.6 84.2 98.2 82.3" class="thinklandia-brain-style0"/><path d="M67.3 18.8c0.2-0.3 0.5-0.6 0.7-1c-0.7-0.5-1.5-0.9-2.3-1.2c-2.2-0.9-4.7-1.5-7.3-1.5 c-2.8 0-5.5 0.6-7.9 1.8c-2.4 1.2-4.3 3-5.7 5.6l-0.9 1.7l-1.9-0.2c-0.6-0.1-1.2-0.1-1.8-0.1c-1.7 0-3.1 0.3-4.4 0.8 c-1.3 0.5-2.4 1.2-3.3 2.1c-1.9 1.8-3.3 4.3-4 6.9c-0.5 1.7-0.7 3.4-0.7 4.8c0 0.1 0 0.2 0 0.3c2.8 0.3 5.6 1.1 8 2.5 c2.8 1.6 5.3 3.8 6.9 6.7c0.5-0.9 1.1-1.7 1.8-2.5c2.5-2.8 5.6-4.5 8.6-5.4c2-0.6 4-0.9 5.8-0.9c0.4 0 0.8 0 1.2 0 c0.3-0.8 0.7-1.5 1.2-2.3c0.9-1.4 2-2.6 3.3-3.6c-0.2-1.4-0.3-2.7-0.3-4C64.3 25.1 65.4 21.5 67.3 18.8" class="thinklandia-brain-style0"/><path d="M22.8 74.8c2.5 0 4.9-0.4 7.1-1.2c0-2 0.3-4.4 1.1-6.9c0.8-2.7 2.3-5.5 4.8-7.9c1.2-1.2 2.6-2.2 4.3-3.1 c0-1.8-0.4-3.5-1.2-4.9c-0.8-1.5-1.8-2.8-3.2-3.9c-2.7-2.2-6.4-3.5-10.1-3.5c-2.7 0-5.3 0.7-7.6 2c-2.3 1.4-4.3 3.5-5.7 6.6l-4.3-2 c1.8-3.9 4.4-6.8 7.5-8.7c2.1-1.3 4.4-2.1 6.7-2.4c0-0.2 0-0.3 0-0.5c0-2.3 0.4-4.7 1.2-7.2c0.8-2.5 2.1-5 4-7.1 c1.2-1.4 2.7-2.7 4.5-3.7c2.3-1.3 5.2-2.1 8.3-2.1c0.2 0 0.4 0 0.6 0c1.9-2.8 4.3-4.9 7.1-6.3c3.3-1.7 6.9-2.4 10.4-2.4 c3.3 0 6.5 0.7 9.5 1.9c1.6 0.7 3.1 1.6 4.4 2.6c0.8-0.4 1.6-0.8 2.4-1.1c1.9-0.7 3.9-1 5.9-1c3 0 5.9 0.7 8.5 2 c2.6 1.3 5 3.2 6.6 5.8c0.7 1.1 1.2 2.3 1.6 3.6c1.7 0.3 3.3 0.7 4.7 1.4c2 0.9 3.7 2.3 5 3.8c2.6 3.1 3.8 7 3.8 10.9 c0 2.8-0.6 5.6-1.9 8.1c-1.3 2.5-3.2 4.6-5.8 5.9c-1.7 0.9-3.7 1.4-5.9 1.4c-1.9 0-3.9-0.4-6-1.1c-2.7-0.6-5.2-0.9-7.4-0.9 c-3.1 0-5.8 0.6-7.9 1.7c-2.2 1.1-3.9 2.8-5.2 5.2c-0.9 1.6-1.6 3.6-2 6h0h0l-5.4-1c0.8-4.3 2.3-7.9 4.6-10.7 c2.3-2.8 5.3-4.7 8.7-5.7c2.3-0.7 4.7-1 7.2-1c2.8 0 5.7 0.4 8.7 1.1l0.2 0l0.2 0.1c1.6 0.6 3.1 0.9 4.3 0.9c1 0 1.9-0.2 2.7-0.4 c0.8-0.3 1.5-0.7 2.1-1.2c1.2-1 2.2-2.6 2.8-4.4c0.4-1.2 0.6-2.5 0.6-3.8c0-2-0.5-4-1.4-5.7c-0.9-1.7-2.3-3.1-4.2-4 c-1.3-0.6-2.8-1-4.7-1.1l-2.4-0.1l-0.2-2.4c-0.1-1.3-0.6-2.4-1.2-3.5c-0.6-1-1.5-1.9-2.6-2.7c-2.1-1.5-5-2.5-7.9-2.4 c-2.1 0-4.2 0.5-5.9 1.5c-1.7 1-3.1 2.5-4 4.7c-0.6 1.5-1 3.3-1 5.6c0 0.4 0 0.8 0 1.2c1.6-0.5 3.3-0.8 5-0.8c2 0 4.1 0.4 6.2 1.2 c2 0.8 4 2.1 5.8 3.9l-3.9 3.9c-1.3-1.3-2.6-2.2-4-2.7c-1.4-0.6-2.7-0.8-4.1-0.8c-1.8 0-3.6 0.5-5.2 1.3c-1.6 0.8-2.9 2-3.7 3.4 c-0.6 0.9-1 1.9-1.2 2.9L64.2 46l-3-1c-0.4-0.1-1.2-0.3-2.3-0.3c-1.4 0-3.1 0.2-4.8 0.8c-1.7 0.6-3.3 1.5-4.6 2.7 c-0.9 0.8-1.7 1.8-2.3 3c-0.8 1.6-1.3 3.6-1.3 6.1v1.8l-1.7 0.7c-2 0.8-3.5 1.8-4.6 2.9c-1.2 1.1-2 2.3-2.6 3.6 c-1.1 2.2-1.5 4.5-1.6 6.5c0.8 7.7 7.4 13.7 15.3 13.7h0c4.6 0 8.7-2 11.5-5.3c2.4 0.9 4.9 1.3 7.6 1.3c11.1 0 20.3-7.9 22.3-18.3 c1.6 0.3 3.3 0.5 4.9 0.5h0l0.1 0c3.6 0 7.2-0.9 10.3-2.4c2.3-1.2 4.4-2.7 6.1-4.5c2.5-2.6 4.3-5.6 5.4-8.7 c0.6-1.7 1.1-3.5 1.3-5.3v-8.5c-0.2-1.5-0.6-3-1.1-4.6c-0.7-2.2-1.8-4.3-3.2-6.4c-2.1-3.1-5-5.8-8.6-7.7c-1-0.5-2-1-3-1.4 c-0.8-1.3-1.6-2.5-2.6-3.6c-2.8-3.2-6.3-5.5-9.8-7c-3.6-1.5-7.4-2.3-11.4-2.3c-2.4 0-4.9 0.3-7.3 1c-1.6-0.8-3.1-1.4-4.8-1.9 C65.3 0.5 61.9 0 58.4 0c-2.5 0-5 0.3-7.5 0.8C47.2 1.7 43.4 3.2 40 5.7c-1.4 1-2.7 2.1-3.9 3.4c-0.9 0.1-1.8 0.3-2.7 0.6 c-1.9 0.5-3.8 1.2-5.5 2.1c-3 1.6-5.5 3.6-7.5 5.8c-1.5 1.7-2.7 3.4-3.7 5.2c-1.5 2.7-2.5 5.4-3.2 8c0 0.2-0.1 0.3-0.1 0.5 C5.5 34.9 0 42.8 0 52.1C0 64.6 10.2 74.8 22.8 74.8" class="thinklandia-brain-style0"/></g></svg>