<svg xmlns="http://www.w3.org/2000/svg" xmlns:xlink="http://www.w3.org/1999/xlink" version="1.1" x="0px" y="0px" viewBox="0 0 295 167.5" enable-background="new 0 0 295 167.5" xml:space="preserve"><style>.ticket-style0{fill:	#CBDB2A;}.ticket-style1{fill:	#F5F2E5;}</style><path d="M266.9 83.7c0-19.7 11.5-36.6 28.1-44.3V0H0v39.4C16.5 47.1 28.1 64 28.1 83.7c0 19.7-11.5 36.6-28.1 44.3 v39.4h295v-39.4C278.5 120.4 266.9 103.4 266.9 83.7" class="ticket-style0"/><circle cx="68.1" cy="38.4" r="7.8" class="ticket-style1"/><circle cx="121.1" cy="38.4" r="7.8" class="ticket-style1"/><circle cx="174.1" cy="38.4" r="7.8" class="ticket-style1"/><circle cx="227.1" cy="38.4" r="7.8" class="ticket-style1"/><circle cx="227.1" cy="83.4" r="7.8" class="ticket-style1"/><circle cx="68.1" cy="129.4" r="7.8" class="ticket-style1"/><circle cx="121.1" cy="129.4" r="7.8" class="ticket-style1"/><circle cx="174.1" cy="129.4" r="7.8" class="ticket-style1"/><circle cx="227.1" cy="129.4" r="7.8" class="ticket-style1"/><circle cx="68.1" cy="83.4" r="7.8" class="ticket-style1"/></svg>