<?xml version="1.0" encoding="utf-8"?>
<!-- Generator: Adobe Illustrator 18.0.0, SVG Export Plug-In . SVG Version: 6.00 Build 0)  -->
<!DOCTYPE svg PUBLIC "-//W3C//DTD SVG 1.1//EN" "http://www.w3.org/Graphics/SVG/1.1/DTD/svg11.dtd">
<svg version="1.1" id="Layer_1" xmlns="http://www.w3.org/2000/svg" xmlns:xlink="http://www.w3.org/1999/xlink" x="0px" y="0px"
	 viewBox="269.9 8.4 299.2 583.2" enable-background="new 269.9 8.4 299.2 583.2" xml:space="preserve">
<g>
	<g>
		<path fill="#FFC100" d="M567.2,258.6c-7.6-64.5-48.3-139.3-41.8-185.8C487.8,49.1,419.6,49,419.6,49s-68.2,0.1-105.9,23.8
			c6.5,46.5-34.2,121.3-41.8,185.8c-1.3,8.6-2,17.5-2,26.5c0,12.4,1.3,24.4,3.7,36c8.3,51.3,35.6,100.4,99.6,119.8
			c4.7,1.7,9.5,3.1,14.4,4.3c29.4,40.6,33.1,135.7-101.9,135.7v10.7h133.9h133.9v-10.7c-135,0-131.3-95.1-101.9-135.7
			c4.9-1.2,9.7-2.6,14.4-4.3c64-19.4,91.3-68.5,99.6-119.8c2.4-11.6,3.7-23.7,3.7-36C569.2,276.1,568.5,267.2,567.2,258.6"/>
		<g opacity="0.6">
			<g>
				<path fill="#FFFFFF" d="M315.5,74.9c6.4,46-33.6,119.9-41.1,183.6c-1.3,8.5-1.9,17.3-1.9,26.2c0,1.7,0,3.4,0.1,5.1
					c0,1.1-0.1,2.2-0.1,3.3c0,84.8,65.9,153.5,147.1,153.5c81.3,0,147.1-68.7,147.1-153.5c0-1.1-0.1-2.2-0.1-3.3
					c0-1.7,0.1-3.4,0.1-5.1c0-8.9-0.7-17.7-1.9-26.2c-7.5-63.8-47.5-137.6-41.1-183.6"/>
			</g>
		</g>
		<path fill="#EFF1E4" d="M350.7,171.2c1.9-6.4,3.6-12.7,5-18.8H334c-1.4,6.1-3.2,12.4-5.1,18.8H350.7z M426.3,417.1
			c-58-8.7-102.5-60.6-102.5-123.3c0-0.9,0-1.8,0.1-2.7c0-1.4-0.1-2.8-0.1-4.2c0-7.2,0.6-14.4,1.6-21.3
			c3.3-28.5,14.7-59.5,23.4-87.8h-21.9c-8.6,28-19.7,58.5-23,86.6c-1,6.9-1.6,14-1.6,21.3c0,1.4,0,2.8,0.1,4.2
			c0,0.9-0.1,1.8-0.1,2.7c0,68.8,53.6,124.6,119.7,124.6C423.5,417.2,424.9,417.2,426.3,417.1"/>
		<path fill="#EFF1E4" d="M307,129.2l225.1-0.3c0,0-10.1-33.6-6.6-56.2c20.1-44.6-24.1-71.7-55.2-54.2c-20.5,11.6-31.5,4.1-39.4-2.3
			c-7.9-6.4-30.6-14.3-40.2,1.4c-12.3-12.4-31.1-4.4-34.1,2.6c-35.9-15.3-62,33-42.3,58.3C317.4,96,307,129.2,307,129.2"/>
		<path fill="none" stroke="#FFC100" stroke-width="18.2278" d="M279.1,285.1c0,1.6,0,3.3,0.1,4.9l0,1.8l0,1.8
			c0,80.6,63,146.2,140.5,146.2c77.5,0,140.5-65.6,140.5-146.2l0-1.8l0-1.4c0-2.1,0.1-3.7,0.1-5.4c0-8.3-0.6-16.8-1.9-25.2
			c-3.3-27.7-12.8-57.4-22-86.1c-10-31.2-19.5-60.8-20.5-86H323.4c-1,25.2-10.5,54.8-20.5,86c-9.2,28.7-18.7,58.4-21.9,85.8
			C279.7,268.3,279.1,276.8,279.1,285.1z"/>
		<path fill="#EFF1E4" d="M434.6,197.5c-1.1-13.9-6.7-16.5-6.7-81.2l28.1-15.1l2.6-28.9l-42.4,1.3l0.3,42.7
			c0,64.7-5.6,67.4-6.7,81.2c-0.6,8.8,0.3,20,12.4,20C434,217.5,435.2,206.3,434.6,197.5"/>
		<path fill="#EFF1E4" d="M467.7,231.5c-1.4-16.9-8.5-20.5-8.5-99.5l0.2-61.9l-7.2,35.9l-7.1,0.1l0.1,25.9c0,79.1-7.1,82.6-8.5,99.5
			c-0.7,10.8,0.7,24.2,15.4,24.2C466.7,255.8,468.5,242.3,467.7,231.5"/>
		<path fill="#EFF1E4" d="M428.2,143.9c-0.3-15.4,17.1-14.6,16.9-1c5.4-5.5,7.7-41.6,7.7-41.6l-31.5-0.8
			C421.3,100.6,425.7,141.4,428.2,143.9"/>
	</g>
</g>
</svg>
