<?xml version="1.0" encoding="utf-8"?>
<!-- Generator: Adobe Illustrator 18.0.0, SVG Export Plug-In . SVG Version: 6.00 Build 0)  -->
<!DOCTYPE svg PUBLIC "-//W3C//DTD SVG 1.1//EN" "http://www.w3.org/Graphics/SVG/1.1/DTD/svg11.dtd">
<svg version="1.1" id="Layer_1" xmlns="http://www.w3.org/2000/svg" xmlns:xlink="http://www.w3.org/1999/xlink" x="0px" y="0px"
	 viewBox="102 106 595 400" enable-background="new 102 106 595 400" xml:space="preserve">
<polyline fill="none" stroke="#F8F7F1" stroke-width="19.2505" stroke-miterlimit="10" points="605.8,115.9 513.8,115.9 
	513.8,265.8 558.7,376.8 "/>
<polyline fill="none" stroke="#F8F7F1" stroke-width="19.2505" stroke-miterlimit="10" points="514.9,175.7 240,175.7 240,372.5 
	514.9,218.5 "/>
<line fill="none" stroke="#F8F7F1" stroke-width="19.2505" stroke-miterlimit="10" x1="297.2" y1="138.3" x2="182.8" y2="138.3"/>
<path fill="none" stroke="#F8F7F1" stroke-width="19.2505" stroke-miterlimit="10" d="M240,494.4c70.9,0,128.3-57.5,128.3-128.3
	c0-70.9-57.5-128.3-128.3-128.3c-70.9,0-128.3,57.5-128.3,128.3C111.7,437,169.1,494.4,240,494.4z"/>
<path fill="none" stroke="#F8F7F1" stroke-width="19.2505" stroke-miterlimit="10" d="M558.7,494.4c70.9,0,128.3-57.5,128.3-128.3
	c0-70.9-57.5-128.3-128.3-128.3c-70.9,0-128.3,57.5-128.3,128.3C430.4,437,487.8,494.4,558.7,494.4z"/>
</svg>
