<?xml version="1.0" encoding="utf-8"?>
<!-- Generator: Adobe Illustrator 18.0.0, SVG Export Plug-In . SVG Version: 6.00 Build 0)  -->
<!DOCTYPE svg PUBLIC "-//W3C//DTD SVG 1.1//EN" "http://www.w3.org/Graphics/SVG/1.1/DTD/svg11.dtd">
<svg version="1.1" id="Layer_1" xmlns="http://www.w3.org/2000/svg" xmlns:xlink="http://www.w3.org/1999/xlink" x="0px" y="0px"
	 viewBox="119.2 25.9 569.6 554.2" enable-background="new 119.2 25.9 569.6 554.2" xml:space="preserve">
<g>
	<path fill="#F8F7F1" d="M302.2,531l14.4-56.6l-39.2-41.4l-53.6,15.2l-14.3,56.6l39.2,41.4L302.2,531z M634,234
		c-46.6,19.9-57.6-20.4-88.9,12.7c-18.5,19.5-135.2,142.2-183.8,194.2c-13.6,14.6-14.1,29.6-13.5,36c0.1,1.3,0.3,2.3,0.4,2.7
		c0,0.2,0.1,0.4,0.1,0.4l0-0.1c2.6,26.3-5.5,53.5-24.6,73.6c-33.5,35.4-87.8,35.4-121.2,0c-33.5-35.4-33.5-92.7,0-128.1
		c19-20.1,44.8-28.8,69.7-26l0,0c0,0,0.2,0,0.4,0.1c0.5,0.1,1.3,0.3,2.6,0.4c6,0.6,20.2,0.2,34-14.2
		c49.2-51.3,165.3-174.6,183.8-194.2c31.3-33.1-6.8-44.7,12-93.9c18.8-49.3,74.3-65.1,106.3-55c-49.6,52.4-56.3,59.6-19,99.1
		c37.4,39.5,44.2,32.4,93.8-20C695.7,155.5,680.6,214.2,634,234 M416.3,259.8c-13.2,14-26.9,28.4-40.5,42.8L296,213.3l35.8-37.9
		L416.3,259.8z M397.8,32c-124.2,0.2-117.4,77.6-99.2,96.9c10.4,10.9,24.9,26.3,28.9,30.5s1.6,13,1.6,13l-35.8,37.9
		c0,0-8,5.1-13.4-0.6c-5.4-5.7-14.2-15-30.4-32.2c-14.1-43.6-63.6,0-58,32.9c-5.8,6.2-10.9,11.6-24.4,25.9
		c-17.7-6.1-43.7-33-47.8-50.5c14-14.8,20.3-21.4,24.6-26c20.6,8.1,50.7-13.9,46.3-39.4C187.2,102.1,244.3,0.2,397.8,32
		 M438.2,372.2c14.8-15.6,29.8-31.4,44.1-46.5l177.3,177c0,0,16.6,15.6,7.9,24.8c-9.1,9.6-27,28.5-37,39.1
		c-9.7,10.3-25.4-7.9-25.4-7.9L438.2,372.2z"/>
	<path fill="#F8F7F1" d="M272.5,399.6c0.5,0.1,1.3,0.3,2.6,0.4C274.2,399.8,273.3,399.7,272.5,399.6"/>
	<path fill="#F8F7F1" d="M347.8,476.8c0.1,1.3,0.3,2.2,0.4,2.7C348.1,478.7,347.9,477.8,347.8,476.8"/>
	<path fill="#F8F7F1" d="M236.6,418.7c0.6,0.1,1.6,0.3,3.2,0.5C238.7,419.1,237.6,418.9,236.6,418.7"/>
	<path fill="#F8F7F1" d="M329.6,514.1c0.1,1.6,0.3,2.8,0.5,3.4C329.9,516.4,329.7,515.2,329.6,514.1"/>
</g>
</svg>
