<?xml version="1.0" encoding="utf-8"?>
<!-- Generator: Adobe Illustrator 18.0.0, SVG Export Plug-In . SVG Version: 6.00 Build 0)  -->
<!DOCTYPE svg PUBLIC "-//W3C//DTD SVG 1.1//EN" "http://www.w3.org/Graphics/SVG/1.1/DTD/svg11.dtd">
<svg version="1.1" id="Layer_1" xmlns="http://www.w3.org/2000/svg" xmlns:xlink="http://www.w3.org/1999/xlink" x="0px" y="0px"
	 viewBox="53.3 14.3 699.3 571.4" enable-background="new 53.3 14.3 699.3 571.4" xml:space="preserve">
<rect x="82.1" y="48.6" fill="#F8F7F1" width="641.7" height="502.8"/>
<g>
	<path fill="#FFC200" d="M703.6,536.7H102.2V63.3h601.3V536.7z M739,212.9c0,0-7.6-23.4,0-49c7.6-25.6-13.6-68.6,0-87.1
		c-10.9-21.8,0-49,0-49s-33.6,10.9-60.5,0c-22.8,13.6-75.9-7.6-107.5,0c-31.6,7.6-60.5,0-60.5,0S462.9,12,436,24.6
		c-2.6,1.2-5,2.6-7.2,4l-25.8-14.3l-25.8,14.3c-2.2-1.4-4.6-2.8-7.2-4c-27-12.6-74.5,3.3-74.5,3.3s-28.9,7.6-60.5,0
		c-31.6-7.6-84.7,13.6-107.5,0c-26.9,10.9-60.5,0-60.5,0v0c0,0,10.9,27.2,0,49c13.6,18.5-7.6,61.5,0,87.1c7.6,25.6,0,49,0,49
		s-15.9,38.5-3.3,60.3c1.2,2.1,2.6,4,4,5.9L53.3,300l14.3,20.9c-1.4,1.8-2.8,3.7-4,5.9c-12.6,21.9,3.3,60.3,3.3,60.3s7.6,23.4,0,49
		c-7.6,25.6,13.6,68.6,0,87.1c10.9,21.8,0,49,0,49s33.6-10.9,60.5,0c22.9-13.6,75.9,7.6,107.5,0c31.6-7.6,60.5,0,60.5,0
		s47.5,15.9,74.5,3.3c2.6-1.2,5-2.6,7.2-4l25.8,14.3l25.8-14.3c2.2,1.4,4.6,2.8,7.2,4c27,12.6,74.5-3.3,74.5-3.3s28.9-7.6,60.5,0
		c31.6,7.6,84.7-13.6,107.5,0c26.9-10.9,60.5,0,60.5,0c0,0-10.9-27.2,0-49c-13.6-18.5,7.6-61.5,0-87.1c-7.6-25.6,0-49,0-49
		s15.9-38.5,3.3-60.3c-1.2-2.1-2.6-4-4-5.9l14.3-20.9l-14.3-20.9c1.4-1.8,2.8-3.7,4-5.9C754.9,251.4,739,212.9,739,212.9"/>
	<path fill="#F8F7F1" d="M690.6,524.2H115.2V75.8c191.8,0,383.6,0,575.3,0V524.2z"/>
	<path fill="none" stroke="#FFC200" stroke-width="11.3369" d="M690.6,524.2H115.2V75.8c191.8,0,383.6,0,575.3,0V524.2z"/>
</g>
</svg>
