<?xml version="1.0" encoding="utf-8"?>
<!-- Generator: Adobe Illustrator 18.0.0, SVG Export Plug-In . SVG Version: 6.00 Build 0)  -->
<!DOCTYPE svg PUBLIC "-//W3C//DTD SVG 1.1//EN" "http://www.w3.org/Graphics/SVG/1.1/DTD/svg11.dtd">
<svg version="1.1" id="Layer_1" xmlns="http://www.w3.org/2000/svg" xmlns:xlink="http://www.w3.org/1999/xlink" x="0px" y="0px"
	 viewBox="4.3 79.5 792.7 443.8" enable-background="new 4.3 79.5 792.7 443.8" xml:space="preserve">
<line fill="none" stroke="#CBDB2A" stroke-width="38.0894" stroke-linecap="round" stroke-linejoin="round" stroke-dasharray="0,106.0795" x1="213.3" y1="304.4" x2="213.3" y2="357.4"/>
<line fill="none" stroke="#CBDB2A" stroke-width="38.0894" stroke-linecap="round" stroke-linejoin="round" stroke-dasharray="0,125.9503" x1="339.3" y1="410.4" x2="528.2" y2="410.4"/>
<line fill="none" stroke="#CBDB2A" stroke-width="38.0894" stroke-linecap="round" stroke-linejoin="round" stroke-dasharray="0,106.0795" x1="591.2" y1="304.4" x2="591.2" y2="251.3"/>
<line fill="none" stroke="#CBDB2A" stroke-width="38.0894" stroke-linecap="round" stroke-linejoin="round" stroke-dasharray="0,125.9503" x1="465.2" y1="198.3" x2="276.3" y2="198.3"/>
<g>
	<g>
		<defs>
			<rect id="SVGID_1_" x="4.3" y="79.5" width="792.7" height="443.8"/>
		</defs>
		<clipPath id="SVGID_2_">
			<use xlink:href="#SVGID_1_"  overflow="visible"/>
		</clipPath>
		<path clip-path="url(#SVGID_2_)" fill="#F8F7F1" d="M721.6,301.4c0-52.2,30.9-97.1,75.4-117.5V79.5H4.3v104.4
			c44.4,20.4,75.4,65.2,75.4,117.5c0,52.2-30.9,97.1-75.4,117.5v104.4H797V418.9C752.6,398.5,721.6,353.6,721.6,301.4"/>
	</g>
</g>
<line fill="none" stroke="#CBDB2A" stroke-width="42.9949" stroke-linecap="round" stroke-linejoin="round" stroke-dasharray="0,119.7415" x1="187.4" y1="301.4" x2="187.4" y2="361.3"/>
<line fill="none" stroke="#CBDB2A" stroke-width="42.9949" stroke-linecap="round" stroke-linejoin="round" stroke-dasharray="0,142.1716" x1="329.6" y1="421.1" x2="542.8" y2="421.1"/>
<line fill="none" stroke="#CBDB2A" stroke-width="42.9949" stroke-linecap="round" stroke-linejoin="round" stroke-dasharray="0,119.7415" x1="613.9" y1="301.4" x2="613.9" y2="241.5"/>
<line fill="none" stroke="#CBDB2A" stroke-width="42.9949" stroke-linecap="round" stroke-linejoin="round" stroke-dasharray="0,142.1716" x1="471.7" y1="181.6" x2="258.5" y2="181.6"/>
<path fill="none" stroke="#CBDB2A" stroke-width="42.9949" stroke-linecap="round" stroke-linejoin="round" d="M187.4,181.6
	L187.4,181.6 M613.9,181.6L613.9,181.6 M613.9,421.1L613.9,421.1 M187.4,421.1L187.4,421.1"/>
</svg>
