<svg xmlns="http://www.w3.org/2000/svg" xmlns:xlink="http://www.w3.org/1999/xlink" version="1.0" x="0px" y="0px" width="936.325px" height="1015.454px" viewBox="0 0 936.325 1015.454" enable-background="new 0 0 936.325 1015.454" xml:space="preserve"><style>.tool-bg-red{fill:	#5e3f4a;}.tool-bg-cream{fill:	#f5f1e6;}.tool-bg-grey{fill:	#f5f1e6;}</style><g><path d="M259.229 315.55c-15.731 0-32.036 3.294-33.293 14.759v0.424c0.92 11.8 17.4 15.1 33.3 15.1 c8.859 0 17.542-1.046 23.253-2.264c14.102-3.676 25.097-4.782 33.22-4.782c12.266 0 18 2.5 18 2.52l6.215-2.821v-9.603 v3.576v-9.599l-6.215-2.825c0 0-5.727 2.522-17.994 2.522c-8.123 0-19.113-1.105-33.213-4.78 C276.753 316.6 268.1 315.6 259.2 315.6 M245.414 336.784c-3.355 0-6.071-2.72-6.071-6.072c0-3.357 2.716-6.073 6.071-6.073 h42.642c3.354 0 6.1 2.7 6.1 6.073c0 3.352-2.719 6.072-6.072 6.072H245.414z M331.261 333.9 c-0.85 0-1.542-0.692-1.542-1.542v-3.254c0-0.854 0.692-1.542 1.542-1.542c0.856 0 1.5 0.7 1.5 1.542v3.254 C332.806 333.2 332.1 333.9 331.3 333.9 M326.038 333.879c-0.851 0-1.545-0.692-1.545-1.542v-3.254 c0-0.854 0.694-1.542 1.545-1.542c0.853 0 1.5 0.7 1.5 1.542v3.254C327.583 333.2 326.9 333.9 326 333.9 M320.392 333.879c-0.856 0-1.545-0.692-1.545-1.542v-3.254c0-0.854 0.688-1.542 1.545-1.542c0.854 0 1.5 0.7 1.5 1.5 v3.254C321.933 333.2 321.2 333.9 320.4 333.9" class="tool-bg-red"/></g><polygon points="429.7,326.9 418.3,328.8 340,328.8 340,332.6 418.3,332.6 429.7,334.5 442.1,333.2 442.1,328.5" class="tool-bg-cream"/><g><path d="M331.261 327.541c-0.851 0-1.542 0.688-1.542 1.542v3.254c0 0.8 0.7 1.5 1.5 1.5 c0.855 0 1.545-0.692 1.545-1.542v-3.254C332.806 328.2 332.1 327.5 331.3 327.5" class="tool-bg-cream"/><path d="M326.038 327.541c-0.851 0-1.545 0.688-1.545 1.542v3.254c0 0.8 0.7 1.5 1.5 1.5 c0.853 0 1.545-0.692 1.545-1.542v-3.254C327.583 328.2 326.9 327.5 326 327.5" class="tool-bg-cream"/><path d="M320.392 327.541c-0.856 0-1.545 0.688-1.545 1.542v3.254c0 0.8 0.7 1.5 1.5 1.5 c0.854 0 1.541-0.692 1.541-1.542v-3.254C321.933 328.2 321.2 327.5 320.4 327.5" class="tool-bg-cream"/><path d="M288.056 324.639h-42.642c-3.356 0-6.072 2.716-6.072 6.072c0 3.4 2.7 6.1 6.1 6.073h42.642 c3.353 0 6.072-2.721 6.072-6.073C294.128 327.4 291.4 324.6 288.1 324.6" class="tool-bg-cream"/><path d="M604.424 384.844c-0.628 3.022-0.755 6.7 0 11.229V384.844z" class="tool-bg-red"/><path d="M606.815 400.69h-1.374c0.016 0.1 0 0.1 0 0.15h-9.045c0.015-0.05 0.028-0.1 0.042-0.15h-1.376 l-2.116 4.653c0 0 5.2 11.85-1.693 38.363c-2.532 11.868-4.057 40.9 9.4 42.341h0.312 c13.742-1.073 12.197-30.389 9.651-42.341c-6.913-26.513-1.698-38.363-1.698-38.363L606.815 400.69z M600.956 410.9 c-1.486 0-2.695-1.206-2.695-2.695c0-1.489 1.209-2.696 2.695-2.696c1.493 0 2.7 1.2 2.7 2.7 C603.655 409.7 602.4 410.9 601 410.9" class="tool-bg-cream"/><path d="M600.956 405.51c-1.486 0-2.695 1.206-2.695 2.695c0 1.5 1.2 2.7 2.7 2.7 c1.493 0 2.699-1.206 2.699-2.696C603.655 406.7 602.4 405.5 601 405.5" class="tool-bg-red"/><path d="M610.612 316.536h-19.305l-2.852 55.971c0 0 14.1 5.5 8 28.2 c-0.015 0.05-0.027 0.101-0.041 0.151h9.044c-0.014-0.05-0.027-0.101-0.041-0.151c-0.439-1.625-0.775-3.163-1.02-4.616 c-0.755-4.508-0.628-8.207 0-11.229c1.995-9.583 9.04-12.338 9.04-12.338L610.612 316.536z" class="tool-bg-red"/><path d="M642.521 602.501h-7.377h2.745h-7.373l-2.172 4.775c0 0 5.4 12.15-1.729 39.3 c-2.601 12.169-4.167 41.9 9.6 43.422h0.326c14.088-1.105 12.505-31.165 9.893-43.422c-7.09-27.188-1.738-39.338-1.738-39.338 L642.521 602.501z" class="tool-bg-red"/><path d="M700.6 531.585c0.061 1.3 0.1 2.6 0.1 4.024c0 0.408-0.004 0.812-0.008 1.2 c3.583 0.8 6.3 4 6.3 7.779v10.299v13.15c-0.006 4.426-3.59 8.01-8.015 8.016h-10.249h-0.229h-41.635 c-7.271 0.004-13.162 5.895-13.162 13.169v13.187h5.15v-13.187c0.006-4.429 3.586-8.009 8.012-8.019h41.635h0.229h10.249 c7.271 0 13.161-5.895 13.161-13.166v-13.15v-10.299C712.106 537.9 707.1 532.4 700.6 531.6" class="tool-bg-cream"/><path d="M666.625 519.944h-0.072c-3.087 0.019-5.824 1.129-7.514 4.479c-0.011 0.02-0.02 0.037-0.029 0.1 c-0.032 0.057-0.068 0.115-0.108 0.172c-0.414 0.594-1.239 1.123-2.111 1.242c-0.12 0.018-0.242 0.025-0.363 0 c-0.021 0-0.042 0-0.063 0c-0.642-0.016-1.277-0.281-1.762-0.934c-0.033-0.045-0.069-0.092-0.104-0.137 c-0.146-0.189-0.3-0.371-0.458-0.543c-0.017-0.018-0.032-0.035-0.051-0.053c-1.68-1.792-3.948-2.584-6.07-2.584h-0.002 c-0.064 0-0.128 0-0.192 0.002c-1.994 0.045-3.834 0.79-4.903 2.061c-0.144 0.142-0.277 0.268-0.402 0.4 c-0.558 0.496-0.943 0.701-1.238 0.717c-0.013 0.001-0.024 0.002-0.037 0.002c-0.016 0-0.032-0.001-0.048-0.003 c-0.494-0.036-0.729-0.634-1.159-1.231c-0.446-0.617-1.096-1.234-2.454-1.234c-0.063 0-0.13 0-0.199 0 c-0.008 0.031-0.016 0.062-0.025 0.093c-0.136 0.416-0.434 0.589-0.859 0.61c-0.031 0-0.062 0.002-0.095 0 c-0.159 0-0.335-0.02-0.528-0.053c-0.147-0.025-0.304-0.059-0.469-0.1c-0.37-0.091-0.782-0.215-1.23-0.35 c-0.222-0.067-0.452-0.137-0.692-0.207c-1.195-0.35-2.586-0.699-4.062-0.711h-0.07c-0.073 0-0.149 0-0.224 0 c-1.521 0.037-3.126 0.453-4.694 1.611c-0.122 0.09-0.252 0.172-0.39 0.245c-0.791 0.431-1.826 0.606-3.026 0.612h-0.068 c-0.109 0-0.218 0-0.331-0.004c-0.596-0.014-1.229-0.065-1.89-0.143c-0.221-0.026-0.445-0.057-0.67-0.088 c-0.369-0.052-0.745-0.111-1.126-0.175c-0.233-0.039-0.47-0.08-0.707-0.124c-0.411-0.074-0.829-0.154-1.251-0.236 c-0.54-0.106-1.086-0.218-1.639-0.332c-0.098-0.02-0.197-0.039-0.298-0.06c-0.13-0.026-0.261-0.056-0.393-0.081 c-1.195-0.244-2.403-0.488-3.591-0.695c-0.479-0.082-0.956-0.16-1.428-0.229c-0.355-0.053-0.71-0.098-1.058-0.139 c-0.889-0.105-1.751-0.17-2.575-0.178c-0.062-0.002-0.126-0.002-0.188-0.002h-0.059c-2.377 0.008-4.4 0.51-5.696 1.9 c-0.006 0.005-0.009 0.009-0.014 0.016c-0.04 0.043-0.079 0.088-0.117 0.135c-0.021 0.023-0.04 0.049-0.062 0.1 c-0.04 0.047-0.082 0.092-0.124 0.135c-0.001 0-0.003 0.002-0.003 0.002c-0.589 0.604-1.338 0.937-2.085 1 c-0.055 0.004-0.109 0.005-0.165 0.005c-0.037 0-0.074 0-0.111-0.002c-0.586-0.022-1.16-0.228-1.638-0.624 c-0.135-0.111-0.262-0.236-0.379-0.378c-0.028-0.032-0.054-0.063-0.081-0.093c-0.889-1-2.07-1.344-3.466-1.344 c-1.527 0-3.31 0.412-5.236 0.824c-0.158 0.033-0.317 0.068-0.478 0.102c-1.754 0.369-3.618 0.711-5.511 0.7 c-0.034 0.001-0.065 0.001-0.098 0.001c-0.044 0-0.087 0-0.129-0.001c-0.894-0.007-1.789-0.09-2.683-0.28 c-0.282-0.061-0.564-0.131-0.847-0.213c-0.094-0.029-0.188-0.059-0.284-0.089c-0.063-0.021-0.127-0.041-0.188-0.063 c-0.029-0.01-0.058-0.019-0.086-0.027c-0.001-0.001-0.003-0.002-0.007-0.003c-0.068-0.022-0.14-0.044-0.209-0.065 c-0.783-0.238-1.534-0.35-2.25-0.354h-0.038c-0.062 0-0.128 0.001-0.189 0.003c-3.672 0.1-6.33 3.053-7.318 6.2 c-0.087 0.272-0.158 0.547-0.22 0.819c-0.114 1.773-0.179 3.632-0.179 5.56c0 9.8 1.6 18 3.7 20.354l0.737 0.696h127.981 l0.734-0.696c2.066-2.274 3.609-9.915 3.735-19.143c0.005-0.402 0.008-0.806 0.008-1.212c0-1.377-0.034-2.723-0.095-4.025 c-0.053-1.131-0.127-2.23-0.22-3.292c-0.934-0.231-2.238-1.265-4.041-3.458c-0.146-0.135-0.288-0.263-0.429-0.385 c-0.093-0.08-0.184-0.155-0.273-0.229c-0.008-0.008-0.015-0.013-0.023-0.02c-0.037-0.031-0.076-0.062-0.114-0.092 c-1.457-1.152-2.716-1.576-3.933-1.625c-0.084-0.006-0.168-0.006-0.251-0.006c-0.074 0-0.148 0-0.223 0 c-0.896 0.031-1.782 0.242-2.723 0.488c-1.489 0.391-3.114 0.871-5.138 0.871c-1.847 0-4.587-1.005-7.606-1.994 c-2.88-0.943-6.014-1.873-8.863-1.902C666.717 519.9 666.7 519.9 666.6 519.9" class="tool-bg-red"/><path d="M696.216 514.55h-62.837h-3.873h-61.271l-0.737 0.701c-1.727 1.908-3.091 7.582-3.562 14.8 c0.061-0.274 0.133-0.547 0.22-0.819c0.988-3.142 3.646-6.096 7.317-6.194c0.063-0.002 0.128-0.002 0.19-0.002h0.038 c0.715 0 1.5 0.1 2.2 0.353c0.071 0 0.1 0 0.2 0.067c0.004 0 0 0 0 0 c0.029 0 0.1 0 0.1 0.028c0.063 0 0.1 0 0.2 0.062c0.095 0 0.2 0.1 0.3 0.1 c0.28 0.1 0.6 0.2 0.8 0.213c0.893 0.2 1.8 0.3 2.7 0.281c0.042 0 0.1 0 0.1 0c0.032 0 0.1 0 0.1 0 c1.892-0.012 3.757-0.354 5.511-0.723c0.161-0.033 0.32-0.068 0.477-0.102c1.925-0.413 3.707-0.825 5.236-0.825 c1.396 0 2.6 0.3 3.5 1.345c0.027 0 0.1 0.1 0.1 0.092c0.117 0.1 0.2 0.3 0.4 0.4 c0.479 0.4 1.1 0.6 1.6 0.623c0.037 0 0.1 0 0.1 0.004c0.058 0 0.111-0.002 0.166-0.006 c0.747-0.041 1.495-0.375 2.085-0.978c0 0 0.001-0.002 0.003-0.003c0.042-0.044 0.083-0.089 0.123-0.135 c0.023-0.024 0.042-0.049 0.063-0.073c0.039-0.045 0.077-0.09 0.117-0.134c0.005-0.006 0.008-0.012 0.013-0.016 c1.296-1.435 3.32-1.938 5.698-1.945h0.057c0.063 0 0.1 0 0.2 0.002c0.823 0 1.7 0.1 2.6 0.2 c0.35 0 0.7 0.1 1.1 0.14c0.47 0.1 0.9 0.1 1.4 0.229c1.188 0.2 2.4 0.5 3.6 0.7 c0.132 0 0.3 0.1 0.4 0.082c0.1 0 0.2 0 0.3 0.06c0.553 0.1 1.1 0.2 1.6 0.3 c0.422 0.1 0.8 0.2 1.3 0.236c0.237 0 0.5 0.1 0.7 0.123c0.383 0.1 0.8 0.1 1.1 0.2 c0.226 0 0.5 0.1 0.7 0.087c0.662 0.1 1.3 0.1 1.9 0.144c0.111 0 0.2 0 0.3 0.004h0.066 c1.202-0.006 2.236-0.181 3.028-0.611c0.136-0.074 0.266-0.156 0.388-0.246c1.57-1.159 3.174-1.574 4.695-1.611 c0.074-0.001 0.149-0.002 0.224-0.002h0.07c1.477 0 2.9 0.4 4.1 0.711c0.239 0.1 0.5 0.1 0.7 0.2 c0.448 0.1 0.9 0.3 1.2 0.35c0.166 0 0.3 0.1 0.5 0.1c0.192 0 0.4 0.1 0.5 0.1 c0.032 0 0.064-0.001 0.096-0.003c0.425-0.021 0.722-0.192 0.858-0.608c0.01-0.03 0.019-0.062 0.026-0.094 c0.069-0.004 0.134-0.004 0.199-0.004c1.356 0 2 0.6 2.5 1.234c0.431 0.6 0.7 1.2 1.2 1.2 c0.017 0 0 0 0 0.002c0.013 0 0 0 0.036-0.002c0.297-0.016 0.682-0.221 1.239-0.717 c0.125-0.111 0.258-0.236 0.403-0.38c1.068-1.269 2.909-2.015 4.902-2.06c0.063-0.002 0.128-0.002 0.192-0.002h0.001 c2.122 0 4.4 0.8 6.1 2.584c0.018 0 0 0 0.1 0.053c0.159 0.2 0.3 0.4 0.5 0.5 c0.035 0 0.1 0.1 0.1 0.138c0.482 0.7 1.1 0.9 1.8 0.933c0.021 0 0 0 0.1 0c0.12 0 0.242-0.008 0.363-0.025 c0.872-0.119 1.697-0.648 2.112-1.242c0.04-0.057 0.075-0.115 0.106-0.173c0.011-0.019 0.021-0.037 0.029-0.056 c1.69-3.35 4.427-4.461 7.514-4.478h0.072c0.047 0 0.1 0 0.1 0c2.849 0 6 1 8.9 1.9 c3.02 1 5.8 2 7.6 1.994c2.021 0 3.647-0.48 5.137-0.871c0.941-0.247 1.826-0.457 2.722-0.489 c0.074-0.002 0.15-0.004 0.224-0.004c0.084 0 0.2 0 0.3 0.006c1.218 0.1 2.5 0.5 3.9 1.6 c0.039 0 0.1 0.1 0.1 0.092c0.006 0 0 0 0 0.019c0.091 0.1 0.2 0.1 0.3 0.2 c0.142 0.1 0.3 0.2 0.4 0.385c1.805 2.2 3.1 3.2 4 3.457c-0.564-6.373-1.839-11.295-3.429-13.041L696.216 514.55z " class="tool-bg-cream"/><path d="M554.753 316.158h-87.111v54.388c0 20.8 16.5 37.8 37.1 38.576h0.171 c-0.165-8.578-1.936-12.592-1.936-12.592l2.181-4.8h7.412h-2.758h7.414l2.178 4.8c0 0-1.767 4.015-1.933 12.6 c20.704-0.694 37.279-17.7 37.279-38.577V316.158z" class="tool-bg-cream"/><path d="M517.229 391.73h-7.414h2.758h-7.411l-2.182 4.8c0 0 1.8 4 1.9 12.6 c0.123 6.381-0.641 15.288-3.68 26.945c-2.61 12.225-4.181 42.1 9.6 43.638h0.329c14.154-1.108 12.563-31.322 9.941-43.638 c-3.039-11.657-3.804-20.563-3.681-26.944c0.165-8.578 1.934-12.593 1.934-12.593L517.229 391.73z M511.191 402.2 c-1.488 0-2.71-1.209-2.71-2.709c0-1.497 1.222-2.71 2.71-2.71c1.499 0 2.7 1.2 2.7 2.7 C513.904 401 512.7 402.2 511.2 402.2" class="tool-bg-red"/><path d="M511.191 396.768c-1.488 0-2.71 1.213-2.71 2.71c0 1.5 1.2 2.7 2.7 2.7 c1.499 0 2.713-1.21 2.713-2.709C513.904 398 512.7 396.8 511.2 396.8" class="tool-bg-cream"/><path d="M74.6 316.854H46.138L43.264 420.73c0 6.8 4.4 12.5 10.5 14.4 c-0.545-5.277-1.648-7.782-1.648-7.782l2.183-4.8h7.41h-2.762h7.415l2.182 4.8c0 0-1.104 2.505-1.647 7.8 c6.114-1.953 10.541-7.681 10.541-14.445L74.6 316.854z" class="tool-bg-cream"/><path d="M66.402 422.594h-7.415h2.762h-7.41l-2.183 4.801c0 0 1.1 2.5 1.6 7.8 c0.66 6.4 0.5 16.804-3.393 31.756c-2.61 12.224-4.181 42.1 9.6 43.634h0.326c14.157-1.107 12.566-31.318 9.944-43.634 c-3.897-14.952-4.054-25.379-3.395-31.756c0.544-5.277 1.646-7.781 1.646-7.781L66.402 422.594z M60.368 433.1 c-1.493 0-2.709-1.214-2.709-2.713c0-1.493 1.216-2.706 2.709-2.706c1.499 0 2.7 1.2 2.7 2.7 C63.081 431.8 61.9 433.1 60.4 433.1" class="tool-bg-red"/><path d="M60.368 427.632c-1.493 0-2.709 1.213-2.709 2.706c0 1.5 1.2 2.7 2.7 2.7 c1.499 0 2.713-1.214 2.713-2.713C63.081 428.8 61.9 427.6 60.4 427.6" class="tool-bg-cream"/><path d="M347.334 457.465l-11.666 1.815v8.612l18.602 1.105l1.822-2.088c-3.161-1.802-5.328-5.143-5.483-9.001 h-0.422L347.334 457.465z M436.203 457.908h-63.884c-0.146 3.643-2.086 6.824-4.96 8.685l1.397 3.057l67.446-11.515V457.908z" class="tool-bg-cream"/><path d="M368.757 445.278l-1.397 3.058c2.99 1.9 5 5.3 5 9.129c0 0.148-0.003 0.296-0.009 0.443h63.884 v-1.115L368.757 445.278z M354.27 445.933l-18.601 1.103v8.614l11.665 1.816l2.853 0.443h0.422c-0.007-0.147-0.01-0.295-0.01-0.443 c0-4.046 2.211-7.575 5.492-9.446L354.27 445.933z" class="tool-bg-cream"/><path d="M361.467 446.6c-1.956 0-3.791 0.516-5.376 1.419c-3.281 1.871-5.492 5.401-5.492 9.4 c0 0.1 0 0.3 0 0.443c0.155 3.9 2.3 7.2 5.5 9.002c1.585 0.9 3.4 1.4 5.4 1.4 c2.173 0 4.195-0.638 5.893-1.737c2.874-1.861 4.813-5.042 4.96-8.685c0.006-0.147 0.009-0.295 0.009-0.443 c0-3.828-1.979-7.193-4.969-9.129C365.662 447.2 363.6 446.6 361.5 446.6 M361.467 459.831c-1.311 0-2.369-1.059-2.369-2.366 s1.059-2.367 2.369-2.367c1.308 0 2.4 1.1 2.4 2.367S362.774 459.8 361.5 459.8" class="tool-bg-red"/><path d="M361.467 455.098c-1.311 0-2.369 1.059-2.369 2.367c0 1.3 1.1 2.4 2.4 2.4 c1.308 0 2.367-1.06 2.367-2.366C363.834 456.2 362.8 455.1 361.5 455.1" class="tool-bg-cream"/><path d="M271.367 426.523h-0.066c-12.051-0.007-26.205 2.8-43.484 10.138c-2.125 0.898-3.398 2.961-3.398 5.1 c0 0.7 0.1 1.5 0.4 2.171c0.902 2.1 3 3.4 5.1 3.4c0.727 0 1.463-0.142 2.174-0.443 c16.234-6.886 28.826-9.246 39.132-9.253c13.679 0 23.6 4.1 33.4 8.61c4.891 2.2 9.7 4.6 14.9 6.5 c4.945 1.8 10.3 3.1 16.1 3.16v-0.235v-8.614v-2.296c-4.205-0.101-8.162-1.024-12.314-2.506 c-6.58-2.339-13.554-6.163-21.905-9.536C293.115 429.3 283.3 426.5 271.4 426.5" class="tool-bg-red"/><path d="M335.669 459.042c-5.811 0.104-11.124 1.388-16.07 3.163c-5.168 1.849-9.988 4.206-14.879 6.5 c-9.805 4.499-19.74 8.59-33.419 8.61c-10.307-0.007-22.897-2.37-39.132-9.253c-0.712-0.302-1.451-0.445-2.178-0.445 c-2.169 0-4.228 1.275-5.129 3.399c-0.301 0.71-0.443 1.447-0.443 2.174c0 2.2 1.3 4.2 3.4 5.1 c17.271 7.3 31.4 10.1 43.5 10.134h0.022h0.066c11.967 0 21.748-2.813 30.08-6.173c8.353-3.377 15.326-7.202 21.905-9.54 c4.153-1.482 8.11-2.402 12.316-2.503v-2.297v-8.612V459.042z" class="tool-bg-red"/><path d="M296.383 620.043c3.328 0.1 6 2.8 5.9 6.106c-0.042 3.302-2.729 5.951-6.023 6 c-0.028 0-0.056 0-0.083 0c-3.328-0.045-5.989-2.776-5.943-6.107c0.041-3.303 2.733-5.95 6.025-5.95H296.383z M357.272 612.8 c-0.322-1.412-0.692-2.807-1.108-4.18l4.785-8.349l-6.945 2.427c-0.566-1.333-1.176-2.636-1.832-3.92l3.271-9.064l-6.421 3.6 c-0.783-1.206-1.619-2.377-2.479-3.523l1.65-9.513l-5.72 4.671c-0.982-1.052-1.985-2.084-3.038-3.066l-0.031-9.635l-4.807 5.6 c-1.146-0.862-2.328-1.685-3.534-2.468l-1.703-9.497l-3.761 6.324c-1.28-0.651-2.583-1.263-3.919-1.825l-3.321-9.044l-2.604 6.9 c-1.377-0.42-2.766-0.797-4.178-1.122l-4.842-8.33l-1.374 7.239c-1.412-0.172-2.846-0.294-4.29-0.366l-6.225-7.381l-0.094 7.4 c-1.452 0.07-2.882 0.196-4.298 0.371l-7.41-6.181l1.185 7.265c-1.412 0.325-2.808 0.695-4.185 1.111l-8.349-4.789l2.431 7 c-1.335 0.563-2.637 1.167-3.915 1.825l-9.068-3.27l3.6 6.426c-1.205 0.779-2.373 1.611-3.52 2.479l-9.512-1.65l4.667 5.7 c-1.053 0.979-2.087 1.982-3.069 3.035l-9.631 0.031l5.579 4.807c-0.863 1.146-1.688 2.332-2.472 3.534l-9.494 1.702l6.33 3.8 c-0.66 1.279-1.272 2.586-1.831 3.916l-9.04 3.319l6.883 2.608c-0.419 1.371-0.793 2.762-1.119 4.175l-8.329 4.838l7.232 1.4 c-0.173 1.415-0.29 2.848-0.367 4.295l-7.376 6.223l7.376 0.099c0.069 1.4 0.2 2.9 0.4 4.293l-6.188 7.411l7.275-1.186 c0.324 1.4 0.7 2.8 1.1 4.18l-4.793 8.35l6.957-2.423c0.561 1.3 1.2 2.6 1.8 3.911l-3.271 9.064l6.426-3.597 c0.783 1.2 1.6 2.4 2.5 3.524l-1.649 9.513l5.715-4.671c0.982 1.1 2 2.1 3 3.068l0.031 9.631l4.806-5.58 c1.146 0.9 2.3 1.7 3.5 2.473l1.707 9.49l3.758-6.319c1.282 0.6 2.6 1.3 3.9 1.824l3.317 9.043l2.607-6.886 c1.37 0.4 2.8 0.8 4.2 1.123l4.843 8.33l1.373-7.236c1.412 0.2 2.8 0.3 4.3 0.365l6.227 7.379l0.097-7.379 c1.445-0.071 2.874-0.195 4.293-0.369l7.411 6.18l-1.184-7.27c1.412-0.318 2.807-0.687 4.177-1.108l8.351 4.788l-2.422-6.948 c1.324-0.563 2.637-1.171 3.911-1.83l9.065 3.274l-3.594-6.428c1.202-0.778 2.373-1.61 3.517-2.478l9.516 1.651l-4.674-5.721 c1.059-0.972 2.087-1.984 3.065-3.037l9.638-0.021l-5.579-4.813c0.864-1.147 1.688-2.33 2.468-3.535l9.499-1.703l-6.325-3.764 c0.654-1.281 1.264-2.588 1.826-3.916l9.043-3.317l-6.883-2.615c0.416-1.367 0.797-2.758 1.118-4.17l8.327-4.838l-7.236-1.378 c0.175-1.412 0.294-2.846 0.371-4.289l7.375-6.227l-7.375-0.098c-0.074-1.447-0.196-2.873-0.371-4.293l6.18-7.407L357.272 612.81z" class="tool-bg-cream"/><path d="M563.495 653.872c-7.812 0-14.35 5.387-16.143 12.65h32.287 C577.846 659.3 571.3 653.9 563.5 653.9 M579.64 674.515h-32.287c1.793 7.3 8.3 12.6 16.1 12.6 C571.309 687.2 577.8 681.8 579.6 674.5" class="tool-bg-red"/><path d="M575.328 575.199h-23.669l-11.837 20.5l11.837 20.502h23.669l11.841-20.502L575.328 575.199z M563.495 605.878c-5.622 0-10.18-4.558-10.18-10.179c0-5.622 4.558-10.177 10.18-10.177s10.177 4.6 10.2 10.2 C573.672 601.3 569.1 605.9 563.5 605.9" class="tool-bg-red"/><path d="M408.737 362.512c-1.724 0-3.473 0.176-5.227 0.543c-4.403 0.915-8.306 2.918-11.477 5.7 c0 0-21.027 16.973-29.71 17.784l-1.729-0.036l-114.434-5.323c-6.928 0-12.543 5.617-12.543 12.5 c0 6.9 5.6 12.5 12.5 12.546l114.434-4.561l1.641-0.025c0.72-0.037 1.443-0.056 2.17-0.056 c16.949 0 35.2 9.8 35.2 9.753c4.679 1.8 7.1 2.4 9.2 2.359c1.569 0 2.999-0.326 5.093-0.761 c12.018-2.507 20.279-13.095 20.286-24.901l-14.497 8.429c-0.511 0.295-1.088 0.436-1.708 0.436c-2.759 0-6.384-2.782-8.899-7.103 c-3.075-5.3-3.32-10.9-0.541-12.515l15.966-9.282C420.105 364.5 414.6 362.5 408.7 362.5 M398.627 391.936l-8.773-8.771 c1.016-0.613 2.164-0.92 3.312-0.92c1.633 0 3.3 0.6 4.5 1.868C399.802 386.2 400.1 389.5 398.6 391.9 M393.146 395.027c-1.635 0-3.266-0.622-4.513-1.87c-2.122-2.122-2.433-5.359-0.947-7.821l8.771 8.8 C395.441 394.7 394.3 395 393.1 395 M247.452 400.784c-3.842 0-6.953-3.107-6.953-6.949 c0-3.835 3.111-6.947 6.953-6.947c3.835 0 6.9 3.1 6.9 6.947C254.398 397.7 251.3 400.8 247.5 400.8" class="tool-bg-red"/><path d="M393.165 382.245c-1.147 0-2.296 0.307-3.312 0.92l8.774 8.771c1.481-2.461 1.175-5.701-0.947-7.823 C396.433 382.9 394.8 382.2 393.2 382.2 M387.686 385.336c-1.486 2.462-1.175 5.7 0.9 7.8 c1.246 1.2 2.9 1.9 4.5 1.87c1.147 0 2.296-0.307 3.311-0.919L387.686 385.336z" class="tool-bg-cream"/><path d="M388.497 650.243L388.497 650.243v22.762v3.282c0 6.6 5.4 12 12 12.019h37.079l4.695-4.615 h27.436l4.866 4.615h21.505c6.636 0 12.019-5.384 12.019-12.019v-25.981h-41.016h-0.266h-0.27c-1.863 0-2.747 2.576-2.747 2.6 h-15.364c0 0-0.339-2.576-2.747-2.576h-0.27h-0.451h-56.484V650.243z M425.168 671.442c-1.734 0-3.144-1.409-3.144-3.146 c0-1.73 1.409-3.139 3.144-3.139c1.733 0 3.1 1.4 3.1 3.139C428.311 670 426.9 671.4 425.2 671.4" class="tool-bg-cream"/><path d="M414.086 560.954h-3.1c3.366 0.3 6 3.1 6 6.517l0.007 0.946v9.39 c0 2.2 1.8 4.1 4.1 4.06h6.229h0.462c0.599-1.07 0.939-2.306 0.939-3.619V568.4c0-4.098-3.32-7.422-7.422-7.422h-4.911 L414.086 560.954z" class="tool-bg-cream"/><path d="M447.649 552.029l-46.756 0.279l-0.032-0.007v3.765c0 2.7 2.2 4.9 4.9 4.888h5.242h3.099 l2.284 0.024h4.911c4.1 0 7.4 3.3 7.4 7.422v9.847c0 1.313-0.341 2.549-0.939 3.619c-0.752 1.344-1.908 2.432-3.305 3.1 l0.339 1.168h7.824c3.451 0 6.2 2.8 6.2 6.246c2.488 26.3 6.5 36.3 7.7 38.74h11.137l-11.696-74.908 C446.012 554.6 446.6 553.1 447.6 552" class="tool-bg-red"/><path d="M505 499.707H398.193v51.979l2.668 0.615l0.031 0.008l46.757-0.28c1.123-1.211 2.728-1.968 4.509-1.968 h2.402h1.114h47.151c1.093 0 2 0.7 2.4 1.625c14.147-0.129 16.667-11.713 16.667-25.988 C521.906 511.3 519.4 499.7 505 499.7" class="tool-bg-red"/></g><polygon points="398,499.7 382.4,503.9 382.4,543.3 382.4,544.3 382.4,544.3 382.4,547.5 398,551.7" class="tool-bg-red"/><polygon points="321.4,507.3 307.5,512.7 307.5,538.7 321.4,544.1" class="tool-bg-red"/><polygon points="382.2,507.1 361.2,507.1 361.2,518.7 361.5,518.7 361.5,532.7 361.2,532.7 361.2,544.3 382.4,544.3 382.4,544.3 382.4,543.3" class="tool-bg-cream"/><polygon points="361.5,518.7 361.2,518.7 356.5,518.7 356.5,532.7 361.2,532.7 361.5,532.7" class="tool-bg-red"/><g><path d="M307.087 516.39h-6.631v4.531c0.007 0 0.013-0.001 0.021-0.001v9.565h-0.021v4.523h6.68L307.087 516.39z" class="tool-bg-red"/></g><rect x="321.5" y="507.3" width="34.7" height="36.9" class="tool-bg-cream"/><g><path d="M300.477 520.92c-0.008 0-0.015 0.001-0.021 0.001c-2.729 0.055-5.244 0.781-6.89 1.88v5.89 c1.618 1.1 4.1 1.8 6.9 1.793h0.021V520.92z" class="tool-bg-cream"/><path d="M502.826 550.062h-47.151h-1.114h-2.402c-1.782 0-3.386 0.756-4.509 2 c-1.016 1.097-1.637 2.563-1.637 4.178l11.695 74.908h26.496c3.304-16.141-10.918-54.758-13.092-65.93 c-0.73-3.756 0.521-8.555 5.925-9.3c1.512-0.444 4.985-0.64 8.678-0.706l3.135 0.094h13.977c1.44 0 2.604-1.166 2.604-2.607 c0-0.348-0.068-0.678-0.191-0.979C504.853 550.7 503.9 550.1 502.8 550.1" class="tool-bg-cream"/><path d="M496.093 631.114h-11.889h-26.496h-11.137h-43.913c-3.838 0-6.321 2.979-6.321 2.979v4.039l0.088-1.596 h1.248c2.38 0 4.3 1.9 4.3 4.311c0 2.384-1.934 4.314-4.313 4.314h0.354h-0.354h-1.336h-0.384h-1.304 c-4.901 0-6.152 4.971-6.152 4.971v0.111v0.062h56.484h0.452h0.269c2.408 0 2.7 2.6 2.7 2.576h15.364 c0 0 0.885-2.576 2.748-2.576h0.269h0.266h41.017v-0.36v-6.815C508.112 636.5 502.7 631.1 496.1 631.1" class="tool-bg-red"/><path d="M397.673 636.536h-1.247l-0.089 1.598l-0.384 7.026h0.384h1.336c2.381 0 4.313-1.931 4.313-4.313 C401.986 638.5 400.1 636.5 397.7 636.5 M398.027 645.16h-0.354H398.027z" class="tool-bg-cream"/><path d="M425.168 665.157c-1.734 0-3.144 1.408-3.144 3.139c0 1.7 1.4 3.1 3.1 3.1 c1.733 0 3.143-1.409 3.143-3.146C428.311 666.6 426.9 665.2 425.2 665.2" class="tool-bg-cream"/></g><polygon points="240.1,523.7 237,523.7 241.5,528 244.6,528" class="tool-bg-red"/><polygon points="255.3,523.7 252.1,523.7 256.6,528 259.8,528" class="tool-bg-red"/><polygon points="245.2,523.7 242,523.7 246.5,528 249.7,528" class="tool-bg-red"/><polygon points="235.1,523.7 231.9,523.7 236.4,528 239.6,528" class="tool-bg-red"/><polygon points="230,523.7 227.4,523.7 227.4,524.2 231.4,528 234.6,528" class="tool-bg-red"/><polygon points="225,523.7 222.7,525.8 225.1,528 227.4,528 229.5,528 227.4,526" class="tool-bg-red"/><polygon points="250.2,523.7 247,523.7 251.6,528 254.7,528" class="tool-bg-red"/><polygon points="292.1,523.7 267.2,523.7 269,525.4 269,527.2 265.3,523.7 262.2,523.7 266.7,528 292.1,528" class="tool-bg-red"/><polygon points="260.3,523.7 257.1,523.7 261.7,528 264.8,528" class="tool-bg-red"/><polygon points="226.9,523.7 227.4,524.2 227.4,523.7" class="tool-bg-red"/><g><path d="M769.936 562.897h-4.719v56.135c0 2.062-1.679 3.738-3.738 3.738c-2.062 0-3.732-1.676-3.732-3.738V571.39 c-1.397 3.504-3.562 6.061-5.657 8.516l0.011 0.125c-0.115 0.154-0.186 0.332-0.186 0.552c0 1.1 1.9 1.1 1.9 2.3 c0 1.146-1.856 1.146-1.856 2.29c0 1.1 1.9 1.1 1.9 2.293s-1.856 1.147-1.856 2.294c0 1.1 1.9 1.1 1.9 2.3 c0 1.146-1.856 1.146-1.856 2.293s1.856 1.1 1.9 2.293c0 1.147-1.856 1.147-1.856 2.293c0 1.1 1.9 1.1 1.9 2.3 c0 1.146-1.856 1.146-1.856 2.297c0 1.1 1.9 1.1 1.9 2.291c0 1.146-1.856 1.146-1.856 2.3 c0 1.1 1.9 1.1 1.9 2.293c0 1.149-1.856 1.149-1.856 2.3c0 1.1 1.9 1.1 1.9 2.293c0 1.153-1.856 1.153-1.856 2.3 s1.856 1.1 1.9 2.301l-0.007 0.248c0 4.2 3.5 7.4 7.7 7.446c4.177 0 7.61-3.36 7.61-7.534l-0.015-0.16 c0-1.154 1.856-1.154 1.856-2.312c0-1.153-1.856-1.153-1.856-2.308c0-1.152 1.856-1.152 1.856-2.31 c0-1.153-1.856-1.153-1.856-2.312c0-1.152 1.856-1.152 1.856-2.307c0-1.158-1.856-1.158-1.856-2.311 c0-1.153 1.856-1.153 1.856-2.307s-1.856-1.153-1.856-2.312c0-1.157 1.856-1.157 1.856-2.31c0-1.151-1.856-1.151-1.856-2.309 c0-1.15 1.856-1.15 1.856-2.303c0-1.154-1.856-1.154-1.856-2.307c0-1.154 1.856-1.154 1.856-2.309s-1.856-1.154-1.856-2.311 c0-1.153 1.856-1.153 1.856-2.308c0-1.153-1.856-1.153-1.856-2.31c0-1.154 1.856-1.154 1.856-2.312c0-1.15-1.856-1.15-1.856-2.31 c0-1.154 1.856-1.154 1.856-2.308c0-1.156-1.856-1.156-1.856-2.313c0-1.153 1.856-1.153 1.856-2.315 c0-1.152-1.856-1.152-1.856-2.306c0-1.157 1.856-1.157 1.856-2.315c0-1.156-1.856-1.156-1.856-2.31 C769.016 563.7 769.6 563.1 769.9 562.9" class="tool-bg-red"/><path d="M765.217 562.897h-5.954c0 3.416-0.588 6.164-1.517 8.492v47.643c0 2.1 1.7 3.7 3.7 3.7 c2.061 0 3.738-1.676 3.738-3.738V562.897z" class="tool-bg-cream"/><path d="M777.65 507.256v0.094h-17.637v2.944h-29.814v167.588v2.01v2.918c0 4.4 3.5 7.9 7.9 7.9 c4.358 0 7.892-3.537 7.892-7.898v-3.037l0.004-1.043v-85.67c0-6.041 2.971-9.484 6.101-13.154c2.095-2.455 4.26-5.012 5.657-8.516 c0.929-2.328 1.517-5.077 1.517-8.492v-0.003c0 0-5.694 0-8.173 0c-2.481 0-2.321-2.382-2.321-2.382v-15.653 c0-2.263 1.476-2.45 2.438-2.45h26.277c7.816 0 14.15-6.335 14.15-14.15v-6.853C791.634 513.6 785.4 507.3 777.6 507.3 M769.106 529.53c-2.713 0-4.926-2.209-4.926-4.934c0-2.719 2.213-4.924 4.926-4.924c2.729 0 4.9 2.2 4.9 4.9 C774.037 527.3 771.8 529.5 769.1 529.5 M743.298 526.782c-1.209 0-2.189-0.975-2.189-2.186 c0-1.205 0.98-2.184 2.189-2.184h13.364c1.21 0 2.2 1 2.2 2.184c0 1.211-0.978 2.186-2.188 2.186H743.298z M738.131 686.188c-2.112 0-3.824-1.714-3.824-3.824c0-2.116 1.712-3.825 3.824-3.825c2.116 0 3.8 1.7 3.8 3.8 C741.959 684.5 740.2 686.2 738.1 686.2" class="tool-bg-red"/><path d="M758.528 471.474c-0.617 0-1.248 0.02-1.894 0.058c0 0-9.51 0.077-27.597 12.06l1.105 0.329h35.226v5.873 c0 1.79-1.45 3.24-3.243 3.24h-2.246v12.12c0.087 0.2 0.1 0.5 0.1 0.79v1.406h17.636v-0.093v-13.814 C777.65 479.9 771.4 471.5 758.5 471.5" class="tool-bg-red"/><path d="M769.106 519.672c-2.713 0-4.926 2.206-4.926 4.925c0 2.7 2.2 4.9 4.9 4.9 c2.729 0 4.931-2.209 4.931-4.934C774.037 521.9 771.8 519.7 769.1 519.7" class="tool-bg-cream"/><path d="M770.197 545.136h-17.206c-0.92 0-1.664 0.744-1.664 1.66v3.087c0 0.9 0.7 1.7 1.7 1.663h17.206 c0.919 0 1.664-0.747 1.664-1.663v-3.087C771.861 545.9 771.1 545.1 770.2 545.1" class="tool-bg-red"/><path d="M770.197 553.721h-17.206c-0.92 0-1.664 0.744-1.664 1.664v3.08c0 0.9 0.7 1.7 1.7 1.667h17.206 c0.919 0 1.664-0.744 1.664-1.667v-3.08C771.861 554.5 771.1 553.7 770.2 553.7" class="tool-bg-red"/><path d="M757.613 503.543h-25.055c-1.331 0-2.406 1.073-2.406 2.401v4.349h0.047h29.814v-2.943v-1.406 c0-0.277-0.046-0.543-0.133-0.79C759.555 504.2 758.7 503.5 757.6 503.5" class="tool-bg-cream"/><path d="M765.369 483.92h-35.226h-1.035v5.873c0 1.8 1.5 3.2 3.2 3.241h27.529h2.245 c1.793 0 3.243-1.451 3.243-3.241V483.92z" class="tool-bg-cream"/><path d="M756.662 522.413h-13.364c-1.209 0-2.189 0.979-2.189 2.184c0 1.2 1 2.2 2.2 2.187h13.364 c1.21 0 2.188-0.976 2.188-2.187C758.85 523.4 757.9 522.4 756.7 522.4" class="tool-bg-cream"/><path d="M738.131 678.538c-2.112 0-3.824 1.709-3.824 3.824c0 2.1 1.7 3.8 3.8 3.8 c2.116 0 3.828-1.714 3.828-3.825C741.959 680.2 740.2 678.5 738.1 678.5" class="tool-bg-cream"/><path d="M231.306 101.318h-7.537c-1.818 0-3.29 1.472-3.29 3.29v10.781c0 1.8 1.5 3.3 3.3 3.292h7.624 L231.306 101.318z" class="tool-bg-red"/><path d="M261.264 94.861c-6.985 0-12.438 1.733-14.566 4.062c-2.419 2.646-4.955 3.645-7.594 3.6 c-1.847 0-3.744-0.489-5.687-1.247l0.05 17.378c3.263-2.359 6.293-3.222 8.978-3.222c7.321 0 12.1 6.4 12.1 6.418h0.074 v6.236h2.442v48.134h7.544v-48.134h2.444v-6.236c0 0 3.322-11.413 14.18-11.413c6.091 0 14.6 3.6 26.1 14.8 C295.605 101.9 275.3 94.9 261.3 94.9" class="tool-bg-red"/><path d="M266.997 179.673h-12.361c0 0-3.373 23.537-2.251 41.239c1.125 17.7 2.4 48.431-0.748 62.7 c1.314 1.6 2.4 2.9 2.4 2.949h13.486c0 0 1.126-1.359 2.438-2.949c-3.141-14.239-1.874-44.964-0.748-62.67 C270.371 203.2 267 179.7 267 179.7" class="tool-bg-cream"/><path d="M558.182 177.823h-9.44h3.516h-9.438l-2.779 6.111c0 0 6.9 15.549-2.219 50.3 c-3.325 15.574-5.328 53.6 12.3 55.572h0.416c18.029-1.408 16.003-39.882 12.653-55.572c-9.066-34.797-2.22-50.346-2.22-50.346 L558.182 177.823z M550.501 276.67c-3.299 0-5.97-2.67-5.97-5.967v-41.928c0-3.297 2.671-5.972 5.97-5.972 c3.301 0 6 2.7 6 5.972v41.928C556.473 274 553.8 276.7 550.5 276.7" class="tool-bg-red"/></g><polygon points="553,77.3 548.3,77.3 546.7,89.6 548.6,100.7 548.6,177.7 552.4,177.7 552.4,100.7 554.3,89.6" class="tool-bg-cream"/><g><path d="M550.501 222.803c-3.299 0-5.97 2.674-5.97 5.971v41.928c0 3.3 2.7 6 6 6 c3.301 0 5.972-2.671 5.972-5.968v-41.928C556.473 225.5 553.8 222.8 550.5 222.8" class="tool-bg-cream"/><path d="M478.894 3.278c-1.696 0-3.392 0.646-4.688 1.941c-2.204 2.202-2.529 5.572-0.984 8.128l9.114-9.113 C481.278 3.6 480.1 3.3 478.9 3.3 M484.593 6.488l-9.118 9.114c1.055 0.6 2.2 1 3.4 1 c1.696 0 3.393-0.645 4.69-1.938C485.812 12.4 486.1 9 484.6 6.5" class="tool-bg-red"/><path d="M428.254 113.686l7.265 12.499c1.388 2.39-1.185 6.481-5.743 9.137c-2.437 1.414-4.946 2.133-6.97 2.1 c-1.77 0-3.166-0.551-3.815-1.668l-8.001-13.759c-3.888 4.929-5.653 11.476-4.272 18.104c0.789 3.8 2.5 7.2 4.9 9.9 c0 0 14.6 18.1 15.3 25.6l-0.031 1.489l-4.583 98.608c0 6 4.8 10.8 10.8 10.8 c5.971 0 10.809-4.841 10.809-10.813L440 177.11l-0.021-1.413c-0.783-15.098 8.357-32.203 8.357-32.203 c2.626-6.999 2.262-8.068 1.374-12.326C447.554 120.8 438.4 113.7 428.3 113.7 M424.049 151.9 c-1.284-2.118-1.014-4.915 0.814-6.744c1.074-1.071 2.479-1.606 3.887-1.606c0.99 0 2 0.3 2.9 0.792L424.049 151.898z M428.77 154.562c-0.989 0-1.979-0.265-2.854-0.793l7.562-7.557c1.278 2.1 1 4.911-0.818 6.7 C431.585 154 430.2 154.6 428.8 154.6 M433.243 280.6c-3.307 0-5.989-2.678-5.989-5.985c0-3.31 2.683-5.989 5.989-5.989 c3.306 0 6 2.7 6 5.989C439.231 277.9 436.5 280.6 433.2 280.6" class="tool-bg-red"/><path d="M428.751 143.548c-1.407 0-2.813 0.536-3.888 1.607c-1.828 1.829-2.098 4.625-0.814 6.744l7.554-7.558 C430.729 143.8 429.7 143.5 428.8 143.5 M433.477 146.211l-7.561 7.557c0.875 0.5 1.9 0.8 2.9 0.8 c1.409 0 2.816-0.537 3.892-1.61C434.49 151.1 434.8 148.3 433.5 146.2" class="tool-bg-cream"/><path d="M509.71 111.264l-0.008 19.755l-10.473 6.04l-10.47-6.055l0.01-19.74 c-7.683 3.852-12.973 11.788-12.973 20.981c0 5.9 2.1 11.2 5.7 15.336c4.556 5.4 10.9 11 10.5 21.793v0.063 l-4.262 110.778c0 6.3 5.1 11.5 11.5 11.487c6.345 0 11.491-5.142 11.491-11.487l-4.094-110.443l0.007-0.426 c-0.339-8.9 8.441-19.558 10.341-21.765c3.548-4.111 5.697-9.473 5.697-15.336C522.675 123.1 517.4 115.1 509.7 111.3 M499.232 285.398c-3.51 0-6.359-2.845-6.359-6.362c0-3.514 2.85-6.362 6.359-6.362c3.518 0 6.4 2.8 6.4 6.4 C505.598 282.6 502.8 285.4 499.2 285.4" class="tool-bg-red"/><path d="M468.056 90.323c-1.096 0-2.192 0.417-3.029 1.252c-1.424 1.43-1.633 3.608-0.637 5.261l5.89-5.894 C469.599 90.5 468.8 90.3 468.1 90.3 M471.738 92.4l-5.888 5.891c0.682 0.4 1.5 0.6 2.2 0.6 c1.096 0 2.191-0.418 3.029-1.254C472.532 96.2 472.7 94 471.7 92.4" class="tool-bg-red"/><path d="M479.331 34.867c-1.097 0-2.192 0.417-3.027 1.254c-1.427 1.427-1.636 3.604-0.636 5.254l5.89-5.89 C480.875 35.1 480.1 34.9 479.3 34.9 M483.012 36.943l-5.887 5.89c0.682 0.4 1.5 0.6 2.2 0.6 c1.096 0 2.191-0.418 3.026-1.253C483.806 40.8 484 38.6 483 36.9" class="tool-bg-red"/><path d="M716.372 75.184H705.41l-4.437 1.667l2.958 4.206l-4.44 1.94l2.962 4.201l-4.444 1.941l2.962 4.2 l-4.44 1.939l2.958 4.209l-4.442 1.944l2.96 4.209l-4.443 1.943l2.962 4.206l-4.444 1.94l2.963 4.206l-4.443 1.943l2.96 4.2 l-4.443 1.943l2.957 4.209l-4.442 1.944l2.961 4.205l-4.44 1.944l2.954 4.213l-4.44 1.943l2.963 4.209l-4.444 1.94l2.958 4.2 l-4.444 1.948l2.959 4.209l-4.444 1.943l2.962 4.21l-4.443 1.946l2.961 4.209l-4.443 1.947l2.957 4.212l-4.442 1.948l2.96 4.2 l-4.446 1.947l2.957 4.209l-4.438 1.947l2.957 4.206l-4.44 1.943l2.959 4.213l-4.44 1.943l2.957 4.212l-4.442 1.944l2.958 4.2 l-4.44 1.947l2.957 4.213l-4.442 1.95l2.953 4.213l-4.442 1.947l2.957 4.216l-4.439 1.947l2.954 4.216l-4.328 1.891l2.961 4.2 l0.717 0.839l4.632 2.75l21.506-19.306h20.243l5.282-2.444V75.184z M709.957 92.862c-1.082 0-1.955-0.85-1.955-1.891v-6.478 c0-1.042 0.873-1.892 1.955-1.892c1.081 0 2 0.8 2 1.892v6.478C711.912 92 711 92.9 710 92.9" class="tool-bg-cream"/><path d="M716.373 231.462h-5.283h-20.243l-21.506 19.307l-0.855 35.559c0 0 0.3 0.2 0.8 0.2 c0.851 0 2.242-0.461 3.665-2.886c1.152-1.979 9.18-2.542 18.465-4.132c7.27-1.244 15.849-4.766 19.137-4.766 c0.649 0 1.1 0.1 1.3 0.455c1.416 2.4 2.8 2.9 3.7 2.888c0.523 0 0.845-0.175 0.845-0.175V231.462z M707.484 241.1 c-0.512-0.843-0.403-1.954 0.323-2.685c0.429-0.428 0.988-0.641 1.552-0.641c0.395 0 0.8 0.1 1.1 0.315L707.484 241.055z M689.536 241.055c-0.508-0.843-0.398-1.954 0.329-2.685c0.428-0.428 0.987-0.641 1.549-0.641c0.393 0 0.8 0.1 1.1 0.3 L689.536 241.055z M709.365 242.119c-0.395 0-0.789-0.106-1.138-0.316l3.011-3.01c0.514 0.8 0.4 1.954-0.322 2.7 C710.486 241.9 709.9 242.1 709.4 242.1 M691.422 242.119c-0.394 0-0.787-0.106-1.134-0.316l3.007-3.01 c0.509 0.8 0.4 1.954-0.327 2.685C692.541 241.9 692 242.1 691.4 242.1 M676.873 270.7 c-1.764 0-3.102-1.2-3.113-2.939l-0.039-4.572c0 0-0.653-1.937 2.458-3.227c3.111-1.294 9.711-5.02 13.851-9.156 c2.875-2.88 3.653-3.53 6.131-3.53c1.086 0 2.5 0.1 4.6 0.241c2.17 0.2 5 0.5 7.2 0.8 c2.553 0.2 2.7 3.8 2.7 3.8l0.066 8.774c0.017 1.979-1.695 3.912-3.821 4.31l-29.169 5.5 C677.375 270.7 677.1 270.7 676.9 270.7 M673.965 253.27c-0.509-0.842-0.4-1.958 0.329-2.685 c0.428-0.427 0.987-0.641 1.549-0.641c0.394 0 0.8 0.1 1.1 0.316L673.965 253.27z M675.851 254.3 c-0.394 0-0.788-0.105-1.137-0.316l3.01-3.01c0.507 0.8 0.4 1.958-0.325 2.684C676.972 254.1 676.4 254.3 675.9 254.3" class="tool-bg-red"/><path d="M675.843 249.944c-0.562 0-1.121 0.214-1.548 0.641c-0.731 0.726-0.839 1.842-0.33 2.685l3.014-3.011 C676.63 250 676.2 249.9 675.8 249.9 M677.724 251.004l-3.01 3.01c0.348 0.2 0.7 0.3 1.1 0.3 c0.562 0 1.121-0.212 1.547-0.641C678.125 253 678.2 251.8 677.7 251" class="tool-bg-cream"/><path d="M691.414 237.729c-0.562 0-1.121 0.213-1.549 0.641c-0.728 0.731-0.837 1.842-0.33 2.685l3.015-3.011 C692.202 237.8 691.8 237.7 691.4 237.7 M693.295 238.793l-3.008 3.01c0.348 0.2 0.7 0.3 1.1 0.3 c0.561 0 1.12-0.214 1.547-0.641C693.699 240.7 693.8 239.6 693.3 238.8" class="tool-bg-cream"/><path d="M709.359 237.729c-0.563 0-1.123 0.213-1.551 0.641c-0.728 0.731-0.836 1.842-0.324 2.685l3.013-3.011 C710.146 237.8 709.8 237.7 709.4 237.7 M711.238 238.793l-3.011 3.01c0.349 0.2 0.7 0.3 1.1 0.3 c0.561 0 1.121-0.214 1.552-0.641C711.643 240.7 711.8 239.6 711.2 238.8" class="tool-bg-cream"/><path d="M447.452 10.824c-1.096 0-2.191 0.417-3.026 1.253c-1.427 1.427-1.636 3.605-0.641 5.254l5.895-5.89 C448.997 11 448.2 10.8 447.5 10.8 M451.134 12.899l-5.887 5.891c0.681 0.4 1.5 0.6 2.2 0.6 c1.097 0 2.19-0.417 3.028-1.253C451.927 16.7 452.1 14.6 451.1 12.9" class="tool-bg-red"/><path d="M416.987 52.884c-1.098 0-2.193 0.418-3.031 1.255c-1.422 1.423-1.632 3.601-0.636 5.254l5.89-5.89 C418.529 53.1 417.8 52.9 417 52.9 M420.672 54.96l-5.891 5.89c0.681 0.4 1.4 0.6 2.2 0.6 c1.096 0 2.192-0.417 3.03-1.253C421.458 58.8 421.7 56.6 420.7 55" class="tool-bg-red"/><path d="M388.566 29.54c-1.39 0-2.777 0.529-3.838 1.589c-1.801 1.801-2.066 4.559-0.801 6.646l7.453-7.453 C390.517 29.8 389.5 29.5 388.6 29.5 M393.223 32.168l-7.449 7.45c0.861 0.5 1.8 0.8 2.8 0.8 c1.387 0 2.773-0.528 3.832-1.587C394.223 37 394.5 34.3 393.2 32.2" class="tool-bg-red"/><path d="M457.447 41.642h-14.661l-7.331 12.7l7.331 12.697h14.661l7.334-12.697L457.447 41.642z M450.116 60.6 c-3.48 0-6.303-2.821-6.303-6.299c0-3.482 2.822-6.307 6.303-6.307c3.482 0 6.3 2.8 6.3 6.3 C456.419 57.8 453.6 60.6 450.1 60.6" class="tool-bg-red"/><path d="M499.243 100.901l-9.558 5.513l-0.007 11.033l9.55 5.523l9.562-5.509l0.007-11.036L499.243 100.901z M499.235 116.681c-0.807 0-1.624-0.206-2.372-0.639c-2.27-1.31-3.042-4.212-1.731-6.477c0.879-1.521 2.473-2.371 4.111-2.371 c0.805 0 1.6 0.2 2.4 0.637c2.271 1.3 3 4.2 1.7 6.482C502.464 115.8 500.9 116.7 499.2 116.7" class="tool-bg-cream"/><path d="M397.19 70.429h-9.715l-4.852 8.407l4.852 8.411h9.715l4.855-8.411L397.19 70.429z M392.335 83 c-2.307 0-4.174-1.867-4.174-4.175c0-2.303 1.867-4.173 4.174-4.173s4.174 1.9 4.2 4.2 C396.509 81.1 394.6 83 392.3 83" class="tool-bg-red"/><path d="M412.995 0h-5.673l-2.836 4.911l2.836 4.915h5.673l2.839-4.915L412.995 0z M410.16 7.4 c-1.35 0-2.44-1.091-2.44-2.44c0-1.346 1.091-2.436 2.44-2.436c1.346 0 2.4 1.1 2.4 2.4 C412.597 6.3 411.5 7.4 410.2 7.4" class="tool-bg-red"/><path d="M362.939 93.529h-7.866c-7.994 8.596-13.057 21.264-13.057 35.398v0.332c0 0 1.4 30.18-1.643 40.5 c-0.612 2.066-2.048 5.89-3.712 11.071h14.607c0.776-1.986 1.538-3.772 2.245-5.317c1.499-3.293 3.782-6.468 5.495-8.596 c1.71 2.1 4 5.3 5.5 8.596c0.706 1.5 1.5 3.3 2.2 5.317h14.608c-1.667-5.181-3.101-9.005-3.709-11.071 C374.59 159.4 376 129.3 376 129.26v-0.332C376 114.8 370.9 102.1 362.9 93.5 M359.304 109.8 c0.377 0 0.997-0.314 1.502-0.314c0.245 0 0.5 0.1 0.6 0.293c0.314 0.462-0.615 1.664-0.374 2.4 c0.192 0.6 1.7 0.8 1.8 1.535c0.119 0.604-1.149 1.44-1.087 2.118c0.053 0.6 1.5 1.2 1.5 1.9 c0 0.671-1.398 1.265-1.455 1.891c-0.059 0.7 1.2 1.5 1.1 2.122c-0.129 0.689-1.618 0.972-1.811 1.5 c-0.241 0.7 0.7 1.9 0.4 2.366c-0.15 0.219-0.367 0.293-0.611 0.293c-0.506 0-1.126-0.318-1.503-0.318 c-0.379 0-0.999 0.315-1.505 0.315c-0.245 0-0.463-0.074-0.614-0.293c-0.314-0.458 0.615-1.664 0.378-2.366 c-0.196-0.564-1.685-0.847-1.814-1.532c-0.115-0.608 1.149-1.444 1.091-2.122c-0.052-0.626-1.454-1.22-1.454-1.891 c0-0.668 1.402-1.262 1.454-1.888c0.059-0.678-1.206-1.517-1.091-2.122c0.13-0.685 1.623-0.972 1.814-1.534 c0.237-0.7-0.692-1.906-0.378-2.364c0.151-0.219 0.369-0.293 0.614-0.293C358.305 109.5 358.9 109.8 359.3 109.8 M359.16 152.039c-3.782 0-6.852-3.07-6.852-6.855c0-3.779 3.069-6.845 6.852-6.845s6.848 3.1 6.8 6.8 C366.008 149 362.9 152 359.2 152" class="tool-bg-red"/><path d="M359.16 138.338c-3.782 0-6.852 3.066-6.852 6.845c0 3.8 3.1 6.9 6.9 6.9 s6.848-3.069 6.848-6.855C366.008 141.4 362.9 138.3 359.2 138.3" class="tool-bg-cream"/><path d="M383.844 184.857h-16.007c0.523 0.9 1.1 1.9 1.6 3.065c6.324 13.9 14.5 41.7 2.6 86.2 c0 0-1.558 4.614-1.681 8.778c-0.129 4.3 2.3 7.3 4.1 7.288c0.474 0 0.896-0.214 1.202-0.674 C404.772 243.4 389.1 200.3 383.8 184.9 M349.944 184.857h-16.007c-5.292 15.405-20.699 58.5 8.4 104.7 c0.306 0.5 0.7 0.7 1.2 0.674c1.755 0 4.217-2.947 4.087-7.288c-0.122-4.164-1.681-8.778-1.681-8.778 c-12.13-45.323-4.342-71.492 2.367-86.217C348.815 186.8 349.4 185.8 349.9 184.9" class="tool-bg-cream"/><path d="M787.764 90.017l-2.663 5.733c0.659 0.7 1.6 1.2 2.7 1.182c1.055 0 1.998-0.459 2.663-1.179 L787.764 90.017z" class="tool-bg-cream"/><path d="M796.633 109.386c-0.829 0.724-1.905 1.164-3.094 1.164c-0.71 0-1.375-0.16-1.979-0.44v146.33h5.073 V109.386z" class="tool-bg-red"/><path d="M778.901 109.386V256.44h5.069V110.11c-0.6 0.28-1.27 0.44-1.979 0.4 C780.81 110.5 779.7 110.1 778.9 109.4" class="tool-bg-red"/></g><polygon points="784,110 784,110 784,110" class="tool-bg-red"/><g><path d="M790.672 110.823c-0.813 0.605-1.813 0.961-2.903 0.961c-1.093 0-2.096-0.356-2.909-0.961v145.617h5.812 V110.823z" class="tool-bg-red"/><path d="M790.916 96.795c-0.835 0.755-1.935 1.216-3.147 1.216c-1.214 0-2.315-0.461-3.15-1.216l-5.317 11.4 l0.003 0.035c0.189 0.2 0.4 0.4 0.6 0.552c0.585 0.4 1.3 0.7 2.1 0.651c0.514 0 1.004-0.109 1.444-0.302 c0.188-0.08 0.368-0.181 0.535-0.293l0.419-0.318c0.13 0.3 0.3 0.5 0.5 0.724l0.154 0.2 c0.688 0.7 1.7 1.2 2.8 1.202c1.086 0 2.064-0.465 2.755-1.202l0.148-0.175c0.182-0.224 0.343-0.462 0.473-0.724 l0.416 0.318c0.167 0.1 0.3 0.2 0.5 0.293c0.439 0.2 0.9 0.3 1.4 0.302c0.77 0 1.479-0.242 2.066-0.651 c0.23-0.16 0.439-0.349 0.626-0.556v-0.031L790.916 96.795z" class="tool-bg-red"/></g><rect x="778.9" y="257.6" width="17.7" height="1.4" class="tool-bg-red"/><rect x="778.9" y="260.2" width="17.7" height="11.5" class="tool-bg-red"/><rect x="778.9" y="272.9" width="17.7" height="1.4" class="tool-bg-red"/><g><path d="M796.637 275.422h-17.731v10.648c0.231 0.1 0.5 0.2 0.7 0.318c2.499 1.1 5.3 1.7 8.2 1.7 s5.665-0.612 8.166-1.703c0.232-0.105 0.467-0.209 0.702-0.318V275.422z" class="tool-bg-cream"/></g><rect x="744" y="91.7" width="16.9" height="31.3" class="tool-bg-red"/><g><path d="M759.497 124.289h-14.071v157.968v0.657c0.182 0.2 0.4 0.4 0.6 0.5 c1.985 1.8 4.2 2.9 6.5 2.881c2.304 0 4.496-1.032 6.478-2.881c0.19-0.179 0.378-0.354 0.557-0.542v-0.657V124.289z" class="tool-bg-red"/></g><polygon points="743.7,43.6 744,50.7 761.5,84.9 763,81.3" class="tool-bg-cream"/><g><path d="M752.487 86.849c-2.101 0-3.831 1.58-4.075 3.615h8.152C756.323 88.4 754.6 86.8 752.5 86.8" class="tool-bg-red"/><path d="M744.053 52.234l1.479 38.23h1.667c0.249-2.703 2.521-4.824 5.289-4.824c2.769 0 5 2.1 5.3 4.8 h1.523l1.887-4.727L744.053 52.234z" class="tool-bg-cream"/><path d="M624.649 130.004c-2.998-0.001-6.093 2.587-6.138 5.688c-0.042 2.7 0.5 5.3 0.8 7.6 c0.435 3.1 1.3 6.433-1.481 6.45h-0.008c-2.337 0-1.865-4.164-1.285-7.373c0.427-2.321 0.626-4.604 0.527-6.641 c-0.076-1.578-1.194-2.304-2.337-2.304c-1.234 0-2.498 0.85-2.498 2.387c0 3 0.1 9.6 0.8 12.5 c0.716 2.8 1.6 8.219-1.868 8.331c-0.031 0.001-0.062 0.002-0.093 0.002c-3.06 0-2.814-4.957-1.774-7.881 c1.123-3.14 2.423-13.11-1.31-13.11c-3.733 0-3.415 4.646-3.328 8.712c0.159 7.364-2.71 12.763-5.683 14.676v5.953h43.275v-28.152 c-0.58-0.408-1.036-1.712-0.838-3.937c0.107-1.229-0.556-2.37-1.269-2.37c-0.737 0-1.526 1.222-1.563 4.8 c-0.05 4.9 2.1 11.874-0.861 11.874c-3.471 0-0.906-7.344-0.906-11.647c0-1.92-1.084-3.159-2.198-3.159 c-1.383 0-2.812 1.914-2.256 6.811c0.289 2.6 1.4 8.031-1.004 8.031c-2.44 0-1.267-5.132-1.15-7.226 C630.596 132.6 627.7 130 624.6 130 M626.259 154.09c-2.458-0.003-2.3-3.436-1.521-5.729 c0.867-2.542 1.308-8.212 1.308-8.212s0.669 5.9 1.6 8.212C628.569 150.6 628.6 154.1 626.3 154.1" class="tool-bg-cream"/><path d="M643.057 136.827c-0.135 0.094-0.274 0.141-0.415 0.141c-0.139 0-0.277-0.047-0.411-0.14v28.152h0.826 V136.827z M598.956 159.027c-0.273 0.177-0.548 0.323-0.821 0.439v5.514h0.821V159.027z" class="tool-bg-red"/><path d="M643.846 164.98h-0.789h-0.825h-43.275h-0.821h-0.698v3.586h46.409V164.98z M643.846 179.806h-46.409v2.233 c0 1.5 1 2.7 2.4 3.056c0.308 0.2 16.8 10.4 13.4 37.611l-0.039 56.297c0 4.1 3.3 7.4 7.4 7.4 c4.114 0 7.446-3.335 7.446-7.445l0.027-56.297c-3.359-27.225 13.137-37.443 13.417-37.615c1.349-0.367 2.349-1.587 2.349-3.052 V179.806z" class="tool-bg-red"/></g><polygon points="644,168.6 643.8,168.6 597.4,168.6 597.4,168.6 597.4,179.8 597.4,179.8 643.8,179.8 644,179.8" class="tool-bg-cream"/><g><path d="M626.045 140.149c0 0-0.439 5.67-1.308 8.212c-0.779 2.293-0.937 5.7 1.5 5.7 c2.383 0 2.312-3.524 1.405-5.729C626.713 146.1 626 140.1 626 140.1" class="tool-bg-red"/><path d="M643.964 123.128h-46.649v36.594c0.27-0.053 0.545-0.139 0.82-0.255c0.273-0.117 0.549-0.263 0.821-0.44 c2.971-1.913 5.84-7.311 5.681-14.676c-0.087-4.065-0.404-8.711 3.328-8.711c3.733 0 2.4 10 1.3 13.1 c-1.041 2.924-1.285 7.9 1.8 7.881c0.031 0 0.063-0.001 0.094-0.002c3.493-0.111 2.585-5.488 1.867-8.33 c-0.718-2.843-0.769-9.512-0.769-12.466c0-1.537 1.263-2.387 2.498-2.387c1.142 0 2.3 0.7 2.3 2.3 c0.098 2.038-0.103 4.321-0.529 6.642c-0.58 3.209-1.05 7.4 1.3 7.373h0.008c2.755-0.018 1.916-3.304 1.483-6.45 c-0.321-2.342-0.854-4.96-0.812-7.621c0.045-3.101 3.141-5.688 6.138-5.688c3.022 0 5.9 2.6 5.5 10 c-0.115 2.093-1.289 7.2 1.1 7.225c2.44 0 1.293-5.46 1.004-8.03c-0.554-4.897 0.874-6.811 2.257-6.811 c1.113 0 2.2 1.2 2.2 3.158c0 4.304-2.562 11.6 0.9 11.648c2.923 0 0.811-6.978 0.861-11.875 c0.036-3.61 0.824-4.831 1.562-4.831c0.714 0 1.4 1.1 1.3 2.37c-0.197 2.2 0.3 3.5 0.8 3.9 c0.133 0.1 0.3 0.1 0.4 0.14c0.14 0 0.279-0.046 0.413-0.14c0.497-0.347 0.908-1.337 0.908-2.954V123.128" class="tool-bg-red"/></g><polygon points="657,798.9 643.9,806.3 643.9,830.2 667,817.4 666.6,816.8 645.5,828.5 644.7,827.1 644.3,827.1 644.3,826.4 643.9,825.6 644.3,825.4 644.3,806.9 645.1,806.9 645.1,825 645.6,824.7 645.6,807.2 657.2,800.7 657.2,799.4" class="tool-bg-red"/><polygon points="657.2,800.7 657.2,818.2 658.1,817.8 658.1,800.9 657.2,799.4" class="tool-bg-red"/><polygon points="670.1,794.6 670.1,810.1 671,811.6 671,794.2" class="tool-bg-red"/><polygon points="683.1,787.4 683.1,805.2 683.9,804.7 683.9,786.9" class="tool-bg-red"/><polygon points="696,780.1 696,797.9 696.8,797.4 696.8,779.7" class="tool-bg-red"/><polygon points="708.9,772.9 708.9,790.6 709.7,790.2 709.7,772.4" class="tool-bg-red"/><polygon points="721.8,765.6 721.8,783.4 722.6,782.9 722.6,765.2" class="tool-bg-red"/><g><path d="M748.419 750.642l-0.821 0.461v8.061c0.304 0.5 0.6 0.9 0.8 1.415V750.642z" class="tool-bg-red"/></g><polygon points="760.5,743.8 760.5,761.5 761.3,761.1 761.3,743.4" class="tool-bg-red"/><path d="M665.066 813.856l-7.006 3.91l-0.826 0.461l-11.676 6.514l-0.409 0.229v2.112h-0.413l0.802 1.4 l21.095-11.771L665.066 813.856z M644.329 825.43l-0.393 0.218l0.393 0.702V825.43z" class="tool-bg-red"/><g><path d="M774.24 729.913c-5.674 0-11.098 1.951-15.379 4.33l-94.766 52.649l0.463 5.8l-8.412 4.674l0.848 1.6 l0.241 0.445l0.824 1.525l7.008 12.953l1.565 2.895l0.342 0.633l0.565 1.044l0.493 0.326l14.057-7.806l7.009 10 c0 0 6.615-4.236 10.543-6.414c1.825-1.018 3.175-9.094 11.816-13.896c13.256-7.363 24.043-13.357 31.724-17.622 c10.369-5.763 17.648-7.272 22.432-7.272c1.46 0 2.7 0.1 3.7 0.344l0.138-0.01c1.762 0.4 3.6 0.7 5.5 0.7 c12.934 0 23.422-10.484 23.422-23.418c0-2.811-0.521-5.491-1.429-7.987l0.003-0.074l-0.08-0.14 c-3.126-8.342-10.849-14.412-20.091-15.125C775.914 730 775.1 729.9 774.2 729.9 M761.328 743.387l2.424-1.362 l7.494 13.477l-9.918 5.585l-0.821 0.462l-5.949 3.35l-4.733 2.667c-0.017 0.161-0.038 0.322-0.057 0.486l-0.003 0 c-0.027 0.28-0.062 0.556-0.112 0.836l-0.08 0.409c-0.176 0.884-0.44 1.754-0.797 2.598c-0.279 0.656-0.608 1.289-0.992 1.9 c-0.206 0.328-0.423 0.654-0.657 0.966c-0.246 0.324-0.505 0.642-0.781 0.951c-2.38 2.627-5.554 4.089-8.826 4.4 c-0.389 0.036-0.781 0.057-1.178 0.057h-0.069c-0.699 0-1.394-0.053-2.084-0.16c-1-0.154-1.985-0.432-2.937-0.815l-0.077-0.032 c-0.258-0.104-0.517-0.213-0.775-0.338l-0.047-0.024l-0.215-0.115c-0.022-0.013-0.044-0.021-0.064-0.032l-7.474 4.211l-0.82 0.5 l-12.085 6.807l-0.821 0.464l-12.086 6.806l-0.825 0.465l-12.085 6.807l-0.821 0.462l-11.914 6.711l-0.175-0.318l-0.822-1.495 l-6.476-11.787l6.476-3.643l0.822-0.461l12.089-6.794l0.821-0.463l12.085-6.792l0.825-0.463l12.086-6.793l0.821-0.463l12.085-6.791 l0.82-0.463l0.262-0.147c0.022-0.194 0.05-0.388 0.082-0.581c0.11-0.659 0.265-1.301 0.468-1.934 c0.133-0.405 0.287-0.812 0.458-1.203c0.077-0.186 0.157-0.363 0.24-0.541c0.553-1.133 1.26-2.207 2.147-3.187 c2.67-2.948 6.341-4.438 10.028-4.438c0.474 0 0.9 0 1.4 0.074c0.207 0 0.4 0 0.6 0.1 c0.425 0.1 0.8 0.2 1.3 0.249l0.356 0.105c0.34 0.1 0.7 0.2 1 0.317l0.146 0.1 c0.263 0.1 0.5 0.2 0.8 0.33l5.726-3.219l0.821-0.461l3.577-2.009l8.511-4.785L761.328 743.387z" class="tool-bg-cream"/><path d="M736.283 753.124c-3.686 0-7.357 1.49-10.027 4.439c-0.889 0.979-1.596 2.053-2.147 3.2 c-0.084 0.178-0.164 0.355-0.241 0.541c-0.17 0.392-0.324 0.798-0.458 1.203c-0.201 0.633-0.356 1.275-0.467 1.9 c-0.032 0.193-0.06 0.387-0.082 0.581c-0.02 0.172-0.037 0.346-0.052 0.519l-0.008 0.053c-0.321 4 1.2 8.2 4.4 11.1 c0.609 0.5 1.3 1 1.9 1.438c0.184 0.1 0.4 0.2 0.6 0.332c0.128 0.1 0.3 0.1 0.4 0.2 c0.021 0 0 0 0.1 0.032l0.215 0.115l0.047 0.024c0.258 0.1 0.5 0.2 0.8 0.338l0.077 0 c0.95 0.4 1.9 0.7 2.9 0.814c0.691 0.1 1.4 0.2 2.1 0.16h0.069c0.395 0 0.788-0.021 1.177-0.057 c3.272-0.297 6.446-1.758 8.826-4.386c0.276-0.31 0.535-0.627 0.781-0.951c0.234-0.312 0.45-0.638 0.656-0.965 c0.385-0.616 0.714-1.249 0.993-1.905c0.356-0.844 0.621-1.714 0.796-2.598l0.081-0.409c0.049-0.28 0.085-0.556 0.112-0.836 l0.003-0.049c0.018-0.164 0.04-0.325 0.057-0.486c0.01-0.093 0.018-0.184 0.021-0.276c0.103-2.301-0.375-4.617-1.426-6.711 c-0.242-0.482-0.518-0.957-0.821-1.414c-0.61-0.918-1.343-1.773-2.195-2.547c-0.892-0.811-1.875-1.461-2.892-1.989l-0.041-0.021 c-0.198-0.099-0.397-0.194-0.599-0.284c-0.259-0.119-0.52-0.229-0.783-0.33l-0.146-0.06c-0.332-0.122-0.668-0.224-1.007-0.317 l-0.357-0.105c-0.415-0.098-0.838-0.184-1.262-0.248c-0.202-0.027-0.405-0.046-0.612-0.062 C737.231 753.1 736.8 753.1 736.3 753.1" class="tool-bg-red"/></g><polygon points="644.3,806.9 644.3,825.4 644.3,826.4 644.3,827.1 644.7,827.1 645.1,827.1 645.1,825 645.1,806.9" class="tool-bg-red"/><polygon points="835.3,102.3 835.2,130.1 836,130.1 836.1,104.6 837.7,104.6 837.9,104.3 838.6,104.6 839.4,104.7 839.4,105.1 856.5,114.8 856.1,115.5 839.4,106 839.4,106.5 855.6,115.7 855.5,129.9 856.6,130.5 857.2,130.5 857.2,114.7" class="tool-bg-red"/><polygon points="839.3,120.7 839.3,121.6 854.9,130.4 856.6,130.5 855.5,129.9" class="tool-bg-red"/><polygon points="838.4,136.8 854.4,145.8 854.4,144.8 840.1,136.8" class="tool-bg-red"/><polygon points="838,151.2 838,152.1 854.3,161.4 854.3,160.4" class="tool-bg-red"/><polygon points="838,166.8 838,167.8 854.3,177 854.3,176" class="tool-bg-red"/><polygon points="838,182.4 838,183.4 854.3,192.6 854.3,191.6" class="tool-bg-red"/><polygon points="838,198.1 838,199 854.3,208.2 854.3,207.3" class="tool-bg-red"/><g><path d="M846.772 234.282c-0.333 0.023-0.665 0.035-0.995 0.035c-0.216 0-0.43-0.004-0.643-0.014l9.076 5.1 l0.004-0.944L846.772 234.282z" class="tool-bg-red"/></g><polygon points="837.9,244.9 837.9,245.9 854.2,255 854.2,254.1" class="tool-bg-red"/><path d="M836.078 104.635l-0.118 25.469l3.288 0.059l0.041-8.538l0.003-0.938l0.068-14.173l0.002-0.473l-1.84-1.038 l0.2-0.358L836.078 104.635z M838.568 104.649l0.798 0.45l0.002-0.446L838.568 104.649z" class="tool-bg-red"/><g><path d="M833.858 130.068l-0.556 0.282l-0.106 16.955l-12.858 1.234c0 0 0.5 8.3 0.4 13 c-0.014 2.2 6.7 7.6 6.6 18.048c-0.106 15.99-0.19 29.002-0.249 38.258c-0.105 16.329-4.131 24.065-7.175 27.6 l-0.062 0.132c-1.301 1.398-2.479 2.947-3.457 4.685c-6.703 11.879-2.504 26.9 9.4 33.636c2.584 1.5 5.3 2.4 8.1 2.8 l0.068 0.042l0.169-0.003c1.266 0.2 2.5 0.3 3.8 0.295c8.008 0 15.787-3.896 20.491-10.909 c4.044-5.673 5.372-12.682 5.413-18.604l0.737-114.295l-5.557-2.58l0.062-10.141l-1.877-0.034l-0.042-0.002l-0.54-0.009 l-1.729-0.031l-15.665-0.279l-3.288-0.059l-0.802-0.014L833.858 130.068z M837.995 151.203l0.01-14.438l0.429 0.005l1.707 0 l14.229 0.16l-0.014 7.857v0.944l-0.023 14.668l-0.002 0.943l-0.022 14.67l-0.002 0.945l-0.021 14.664l-0.002 0.944l-0.022 14.7 l-0.002 0.945v0.336c0.167 0.1 0.3 0.2 0.5 0.377c0.546 0.4 1.1 0.9 1.5 1.434c0.3 0.3 0.6 0.7 0.9 1 c0.125 0.2 0.2 0.3 0.4 0.504c0.756 1.1 1.4 2.3 1.8 3.618c0.49 1.5 0.7 3 0.7 4.4 c0.012 3.015-0.942 5.927-2.647 8.334c-0.131 0.179-0.249 0.353-0.381 0.528c-0.277 0.352-0.57 0.695-0.879 1.028l-0.282 0.3 c-0.262 0.263-0.527 0.521-0.812 0.762l-0.131 0.105c-0.229 0.19-0.464 0.372-0.707 0.549l-0.011 6.949l-0.004 0.944l-0.006 4.3 l-0.019 10.321l-0.001 0.945l-0.005 2.955l-16.257-0.099l0.01-12.024v-0.946l0.005-7.217l0.007-5.732 c-0.141-0.099-0.278-0.202-0.423-0.302l-0.042-0.031c-0.24-0.168-0.479-0.347-0.707-0.535l-0.335-0.284 c-0.72-0.621-1.383-1.314-1.971-2.079c-0.458-0.594-0.871-1.227-1.234-1.902c-0.198-0.356-0.382-0.723-0.549-1.098 c-0.167-0.395-0.33-0.797-0.469-1.209c-0.498-1.497-0.733-3.016-0.729-4.509c0.004-2.045 0.452-4.042 1.275-5.867 c0.167-0.377 0.356-0.751 0.56-1.111c0.37-0.668 0.786-1.297 1.259-1.899c0.66-0.839 1.43-1.597 2.271-2.272l0.068-0.053 c0.233-0.184 0.464-0.37 0.716-0.538l0.045-0.028l0.217-0.143c0.02-0.013 0.04-0.026 0.06-0.039l0.007-9.069v-0.944l0.011-14.676 v-0.941l0.01-14.676l0.001-0.943l0.011-14.678V151.203z" class="tool-bg-cream"/><path d="M845.755 205.729c-1.487 0-3 0.235-4.491 0.732c-0.814 0.272-1.587 0.622-2.321 1 c-0.199 0.112-0.403 0.224-0.597 0.342c-0.131 0.082-0.262 0.167-0.39 0.252c-0.019 0.013-0.04 0.026-0.06 0.039l-0.216 0.1 l-0.045 0.028c-0.253 0.168-0.484 0.354-0.718 0.538l-0.066 0.053c-0.842 0.675-1.611 1.433-2.271 2.3 c-0.473 0.602-0.889 1.231-1.26 1.899c-0.202 0.36-0.392 0.734-0.559 1.112c-0.822 1.824-1.272 3.821-1.275 5.9 c-0.003 1.5 0.2 3 0.7 4.509c0.14 0.4 0.3 0.8 0.5 1.209c0.167 0.4 0.3 0.7 0.5 1.1 c0.363 0.7 0.8 1.3 1.2 1.902c0.588 0.8 1.3 1.5 2 2.079l0.336 0.284c0.229 0.2 0.5 0.4 0.7 0.5 l0.042 0.031c0.146 0.1 0.3 0.2 0.4 0.302c0.08 0.1 0.2 0.1 0.2 0.163c2.071 1.3 4.5 2.1 6.9 2.2 c0.214 0 0.4 0 0.6 0.014c0.33 0 0.663-0.012 0.995-0.035c1.171-0.083 2.353-0.311 3.516-0.698 c1.207-0.398 2.31-0.961 3.322-1.625l0.042-0.029c0.194-0.129 0.385-0.261 0.573-0.398c0.243-0.177 0.479-0.359 0.707-0.548 l0.132-0.106c0.284-0.24 0.549-0.499 0.811-0.762l0.283-0.272c0.309-0.332 0.603-0.675 0.878-1.028 c0.132-0.175 0.251-0.349 0.382-0.528c1.705-2.407 2.659-5.319 2.648-8.334c-0.005-1.472-0.24-2.969-0.729-4.443 c-0.44-1.321-1.061-2.528-1.815-3.618c-0.122-0.168-0.244-0.339-0.369-0.504c-0.272-0.36-0.566-0.713-0.867-1.041 c-0.476-0.518-0.989-0.993-1.535-1.434c-0.161-0.13-0.325-0.255-0.492-0.377c-0.147-0.108-0.297-0.213-0.451-0.318l-0.042-0.028 C851.425 206.6 848.6 205.7 845.8 205.7" class="tool-bg-red"/></g><polygon points="837.9,104.3 837.7,104.6 837.5,105 839.4,106 856.1,115.5 856.5,114.8 839.4,105.1 838.6,104.6" class="tool-bg-red"/><g><path d="M425.244 753.12c-27.508 0-49.804 22.3-49.804 49.805c0 27.5 22.3 49.8 49.8 49.8 c27.505 0 49.804-22.297 49.804-49.805C475.048 775.4 452.7 753.1 425.2 753.1 M425.244 831.6 c-15.857 0-28.707-12.855-28.707-28.711c0-15.854 12.85-28.704 28.707-28.704c15.853 0 28.7 12.9 28.7 28.7 C453.951 818.8 441.1 831.6 425.2 831.6" class="tool-bg-cream"/></g><polygon points="519.1,846.2 517.3,846.2 517.3,850.4 514.2,850.4 514.2,854.2 519.1,854.2" class="tool-bg-red"/><polygon points="517.3,845.4 475,845.4 475,850.4 514.2,850.4 517.3,850.4 517.3,846.2" class="tool-bg-red"/><g><path d="M475.048 816.95c-4.861 17.297-18.481 30.92-35.778 35.779h35.778v-2.374v-4.937V816.95z" class="tool-bg-cream"/><path d="M425.244 774.222c-15.857 0-28.707 12.85-28.707 28.703c0 15.9 12.8 28.7 28.7 28.7 c15.853 0 28.707-12.854 28.707-28.711C453.951 787.1 441.1 774.2 425.2 774.2 M425.244 822.2 c-10.662 0-19.304-8.642-19.304-19.304c0-10.66 8.642-19.304 19.304-19.304c10.659 0 19.3 8.6 19.3 19.3 C444.544 813.6 435.9 822.2 425.2 822.2" class="tool-bg-grey"/><path d="M425.244 783.621c-10.662 0-19.304 8.646-19.304 19.304c0 10.7 8.6 19.3 19.3 19.3 c10.659 0 19.3-8.641 19.3-19.303C444.544 792.3 435.9 783.6 425.2 783.6" class="tool-bg-red"/><path d="M213.799 371.458l-19.112 18.017c2.552 2.5 5.9 3.8 9.2 3.78c3.231 0 6.469-1.186 9.008-3.581 C218.092 384.8 218.4 376.8 213.8 371.5" class="tool-bg-cream"/><path d="M140.447 356.678c-9.088 8.617-15.425 21.625-15.428 35.105v62.991h8.547v-62.991 c0.003-10.669 4.314-20.289 11.303-27.281c0.292-0.292 0.984-0.921 1.579-1.457L140.447 356.678z" class="tool-bg-red"/><path d="M158.506 454.969h-55.897c-5.22 0-9.449 4.226-9.449 9.449v2.098h74.796v-2.098 C167.955 459.2 163.7 455 158.5 455" class="tool-bg-red"/><path d="M144.963 343.296l-0.639 0.597c-1.413 1.339-1.48 3.566-0.145 4.982l0.511 0.546l-4.93 4.6 c-0.52 0.485-0.545 1.307-0.055 1.824l0.3 0.318l0.442 0.468l6.001 6.368l0.392 0.415c0.252 0.3 0.6 0.4 0.9 0.4 c0.318 0 0.639-0.117 0.889-0.352l4.933-4.642l0.51 0.545c0.693 0.7 1.6 1.1 2.6 1.105c0.867 0 1.734-0.318 2.418-0.959 l0.637-0.604L144.963 343.296z" class="tool-bg-red"/><path d="M156.879 315.896c-2.643 0-5.289 0.969-7.365 2.926l-6.802 6.408c-4.317 4.068-4.521 10.864-0.451 15.2 l25.047 26.581c-5.663 13.38-3.426 29.4 7 40.758l55.761-52.545c-7.49-7.685-17.451-11.562-27.433-11.562 c-4.345 0-8.691 0.734-12.842 2.207l-25.048-26.582C162.585 317 159.7 315.9 156.9 315.9" class="tool-bg-red"/><path d="M144.009 312.518c-1.789 0-3.58 0.655-4.985 1.977c-2.716 2.562-3.027 6.715-0.856 9.638l10.525-9.911 C147.346 313.1 145.7 312.5 144 312.5" class="tool-bg-red"/><path d="M146.696 451.231c-1.991 0-3.61 1.612-3.61 3.607h7.219C150.305 452.8 148.7 451.2 146.7 451.2" class="tool-bg-red"/></g><rect x="896.7" y="169.5" width="39.6" height="117.4" class="tool-bg-red"/><g><path d="M936.325 164.27h-2.586c0.252 0.2 0.4 0.3 0.4 0.263h-35.213c0 0 0.141-0.086 0.394-0.263h-2.59 v5.216h39.603V164.27z" class="tool-bg-cream"/><path d="M933.518 287.108h-33.98v4.701c0 1 0.8 1.9 1.9 1.899h30.193c1.045 0 1.896-0.85 1.896-1.899 V287.108z" class="tool-bg-cream"/><path d="M922.802 132.797h-4.896h-2.755h-4.897c2.571 20.851-8.671 29.878-10.94 31.5 c-0.252 0.176-0.394 0.262-0.394 0.262h35.213c0 0-0.141-0.086-0.393-0.262C931.469 162.7 920.2 153.6 922.8 132.8" class="tool-bg-red"/></g><polygon points="920.3,123.1 912.7,125.9 912.7,132.7 920.3,132.7" class="tool-bg-cream"/><g><path d="M932.958 53.395h-2.86v55.115c0 1.695-1.367 3.062-3.062 3.062h-21.023c-1.688 0-3.059-1.367-3.059-3.062 V53.395h-2.86c-1.688 0-3.059 1.373-3.059 3.062v60.627h38.984V56.457C936.02 54.8 934.6 53.4 933 53.4" class="tool-bg-red"/><path d="M930.098 53.395h-27.145v55.115c0 1.7 1.4 3.1 3.1 3.062h21.023c1.694 0 3.062-1.367 3.062-3.062 V53.395z" class="tool-bg-cream"/><path d="M873.343 500.918h-33.63c-0.167 2.509-0.688 9.438-1.558 12.26c-1.36 4.422-5.613 4.933-9.529 5.953v3.401 h55.803v-3.401c-3.911-1.021-8.166-1.531-9.525-5.953C874.035 510.4 873.5 503.4 873.3 500.9" class="tool-bg-red"/><path d="M921.446 405.171H791.613c-3.251 0-5.883 2.633-5.883 5.881v83.985c0 3.2 2.6 5.9 5.9 5.881h48.1 h33.63h48.104c3.248 0 5.884-2.633 5.884-5.881v-83.985C927.33 407.8 924.7 405.2 921.4 405.2 M792.312 492.685v-80.606 h126.938v0.353h0.562v19.206h-0.562v61.047H792.312z" class="tool-bg-red"/><path d="M919.25 412.432v-0.353H792.312v80.606H919.25v-61.047H792.326v-19.206 M819.529 440.944h6.528v35.041 h-6.528V440.944z M891.65 461.335l9.896-13.123v27.773h-39.057l8.64-12.829l5.945 6.999l9.607-15.456L891.65 461.335z M842.432 454.399h6.52v21.586h-6.52V454.399z M808.081 454.399h6.526v21.586h-6.526V454.399z M830.979 464.495h6.526v11.49h-6.526 V464.495z M859.634 483.292c-0.755 0-1.366-0.651-1.366-1.451c0-0.8 0.611-1.451 1.366-1.451h44.771c0.755 0 1.4 0.7 1.4 1.5 c0 0.8-0.615 1.451-1.37 1.451H859.634z M806.131 483.292c-0.756 0-1.367-0.651-1.367-1.451c0-0.8 0.611-1.451 1.367-1.451h44.77 c0.755 0 1.4 0.7 1.4 1.451c0 0.8-0.612 1.451-1.367 1.451H806.131z" class="tool-bg-grey"/></g><rect x="799.7" y="419.4" width="86.5" height="6.4" class="tool-bg-grey"/><g><path d="M902.743 419.546c-1.555 0-2.819 1.339-2.819 2.993c0 1.7 1.3 3 2.8 3 c1.563 0 2.825-1.342 2.825-2.995C905.568 420.9 904.3 419.5 902.7 419.5" class="tool-bg-grey"/><path d="M894.399 419.546c-1.561 0-2.824 1.339-2.824 2.993c0 1.7 1.3 3 2.8 3 c1.555 0 2.816-1.342 2.816-2.995C897.216 420.9 896 419.5 894.4 419.5" class="tool-bg-grey"/><path d="M911.095 419.546c-1.556 0-2.824 1.339-2.824 2.993c0 1.7 1.3 3 2.8 3 c1.56 0 2.821-1.342 2.821-2.995C913.916 420.9 912.7 419.5 911.1 419.5" class="tool-bg-grey"/></g><rect x="808.1" y="454.4" width="6.5" height="21.6" class="tool-bg-red"/><rect x="831" y="464.5" width="6.5" height="11.5" class="tool-bg-red"/><g><path d="M850.9 480.39h-44.77c-0.755 0-1.367 0.651-1.367 1.45c0 0.8 0.6 1.5 1.4 1.452h44.77 c0.756 0 1.367-0.651 1.367-1.452C852.268 481 851.7 480.4 850.9 480.4" class="tool-bg-red"/><path d="M904.404 480.39h-44.771c-0.755 0-1.366 0.651-1.366 1.45c0 0.8 0.6 1.5 1.4 1.452h44.771 c0.755 0 1.37-0.651 1.37-1.452C905.774 481 905.2 480.4 904.4 480.4" class="tool-bg-red"/><path d="M148.253 97.135c-1.455 0-2.923 0.184-4.381 0.568c-10.196 2.699-16.011 14.169-12.986 25.6 c0.688 2.6 1.8 5 3.2 7.076l-0.014 0.003c5.383 8.3 12.5 7.7 18.5 19.5 c5.967 11.9 9.9 40.2 9.9 40.202l11.688 117.667c0 0 0.8 0 1.289-1.982c0.23-1.006 2.325-51.716 3.587-82.755 c0.562-13.752 0.961-23.646 0.961-23.646c-0.465-9.997-8.246-6.673-11.539-15.503c-3.289-8.831-7.247-31.312-7.583-37.395 c-0.272-5.044 3.185-12.553 4.377-14.976c3.196-4.915 4.342-11.452 2.618-17.985C165.224 103.8 157 97.1 148.3 97.1 M149.564 133.961c-6.453 0-12.348-5.49-13.649-13.115c-1.432-8.38 3.217-16.164 10.383-17.385 c0.644-0.109 1.284-0.162 1.921-0.162c6.452-0.001 12.3 5.5 13.6 13.114c1.429 8.379-3.22 16.161-10.383 17.4 C150.841 133.9 150.2 134 149.6 134 M172.152 218.013c-1.184 0-2.34-0.59-3.009-1.673 c-1.031-1.661-0.514-3.849 1.149-4.881c0.582-0.358 1.228-0.529 1.864-0.529c1.188 0 2.3 0.6 3 1.7 c1.027 1.7 0.5 3.848-1.151 4.879c-0.437 0.269-0.905 0.427-1.384 0.493l-0.087 0 C172.421 218 172.3 218 172.2 218" class="tool-bg-red"/><path d="M191.596 97.909c-0.525 0-1.054 0.026-1.587 0.078c-9.91 0.975-17.052 10.837-15.947 22 c0.231 2.3 0.8 4.6 1.7 6.583c0.758 2 2 4.8 4 8.362c5.205 9.1 0.9 20.488-0.885 31.7 c-1.251 7.848-2.877 14.948-4.684 18.986c2.017 1.9 4.6 3.4 6.9 5.25c0.961-8.631 2.465-20.346 4.285-28.582 c3.021-13.675 3.653-17.058 15.63-26.113c0.853-0.527 1.664-1.129 2.42-1.796l0.094-0.074l-0.01-0.003 c4.564-4.097 7.205-10.683 6.502-17.805C208.904 105.9 200.9 97.9 191.6 97.9 M192.202 134.1 c-6.453 0-12.343-5.489-13.646-13.118c-1.433-8.376 3.218-16.161 10.384-17.381c0.644-0.11 1.286-0.164 1.924-0.164 c6.451 0 12.3 5.5 13.6 13.113c1.429 8.379-3.22 16.161-10.386 17.387C193.478 134.1 192.8 134.1 192.2 134.1" class="tool-bg-red"/><path d="M172.157 210.929c-0.638 0-1.282 0.172-1.864 0.53c-1.663 1.031-2.181 3.22-1.15 4.9 c0.669 1.1 1.8 1.7 3 1.672c0.134 0 0.269-0.008 0.402-0.023l0.087-0.003c0.48-0.067 0.948-0.224 1.386-0.493 c1.664-1.031 2.178-3.216 1.149-4.88C174.504 211.5 173.3 210.9 172.2 210.9" class="tool-bg-cream"/><path d="M824.605 537.852c-3.29 0-6.684 1.03-10.026 3.474c-15.492 11.326-4.654 36.5 5.5 43.7 c10.819 7.7 15.4 4.6 20.5 11.65c6.784 9.3 10.5 19.2 10.5 19.207l35.422 96.189c0 0 0.71-0.178 0.647-1.947 c-0.025-0.894-9.307-43.899-15-70.219c-2.521-11.662-4.339-20.049-4.339-20.049c-2.57-8.288-8.376-3.805-13.061-10.498 c-4.685-6.695-5.954-11.005-7.557-16.035c-1.33-4.174 0.877-10.057 1.736-12.55c2.397-7.533 1.82-15.692-1.344-23.995 C844.375 548.2 835 537.9 824.6 537.9 M834.213 586.272c-5.76 0-12.537-4.68-17.161-12.535 c-6.247-10.598-5.426-23.218 0.088-27.63c2.351-1.886 4.912-2.882 7.57-2.882c5.365 0 11.1 4.1 16.4 13.1 c6.248 10.6 4.9 23.529-1.408 28.193C838.116 585.7 836.2 586.3 834.2 586.3 M862.519 629.1 c-0.763 0-1.527-0.28-2.12-0.851c-1.226-1.167-1.269-3.114-0.096-4.341c0.604-0.631 1.416-0.95 2.227-0.95 c0.764 0 1.5 0.3 2.1 0.853c1.228 1.2 1.3 3.1 0.1 4.345c-0.31 0.321-0.669 0.556-1.057 0.714l-0.069 0 C863.269 629 862.9 629.1 862.5 629.1" class="tool-bg-red"/><path d="M862.53 622.915c-0.812 0-1.622 0.318-2.229 0.949c-1.172 1.228-1.129 3.2 0.1 4.3 c0.592 0.6 1.4 0.8 2.1 0.85c0.373 0 0.75-0.068 1.103-0.204l0.071-0.026c0.387-0.157 0.747-0.393 1.055-0.713 c1.174-1.225 1.129-3.172-0.098-4.347C864.056 623.2 863.3 622.9 862.5 622.9" class="tool-bg-cream"/><path d="M900.426 537.852c-10.413 0-19.771 10.332-23.09 18.974c-3.167 8.303-3.741 16.461-1.343 24 c0.864 2.5 3.1 8.4 1.7 12.549c-1.571 4.933-2.846 9.19-7.309 15.662l-0.28 0.373c-1.814 2.598-3.797 3.506-5.694 4.1 c2.062 0.9 3.8 2.5 5 6.404c0 0 0.4 1.8 1.1 4.856l3.268-8.876v-0.045l0.03 0.045c0 0 3.74-9.907 10.525-19.206 c5.138-7.044 9.714-3.954 20.536-11.651c10.201-7.257 21.039-32.421 5.546-43.746C907.11 538.9 903.7 537.9 900.4 537.9 M890.818 586.272c-2.014 0-3.902-0.572-5.532-1.781c-6.289-4.664-7.656-17.584-1.409-28.193 c5.305-9.012 11.08-13.071 16.443-13.072c2.66 0 5.2 1 7.6 2.882c5.514 4.4 6.3 17 0.1 27.6 C903.352 581.6 896.6 586.3 890.8 586.3" class="tool-bg-red"/><path d="M854.775 630.579c-0.595 2.748-1.28 5.912-2.029 9.373c-5.694 26.319-14.971 69.324-15.003 70.2 c-0.061 1.8 0.7 1.9 0.7 1.947l23.201-63.012L854.775 630.579z" class="tool-bg-red"/><path d="M120.018 861.962c0.349 1.8 0.6 3.6 0.7 5.468c1.057 14.151-4.716 27.157-13.451 37 c-4.607 5.239-7.191 12.237-6.633 19.726c0.752 9.9 6.8 18.2 15.2 22.162c-0.946-1.918-1.499-4.064-1.426-6.354 c0.136-3.727 1.818-7.042 4.388-9.369c4.785-4.326 8.31-10.334 8.648-17.256l-0.025-0.294h0.05l-0.024 0.3 c0.287 6.9 3.7 13 8.5 17.322c2.535 2.4 4.2 5.7 4.3 9.41c0.061 2.293-0.507 4.426-1.471 6.3 c9.774-4.573 16.21-14.819 15.36-26.225c-0.454-6.103-2.937-11.579-6.716-15.826c-6.036-6.799-10.042-16.933-10.773-26.711 c-0.981 6.272-5.394 11.942-4.835 18.108C130.693 883.3 126.5 871.8 120 862" class="tool-bg-red"/><path d="M158.67 952.509H99.444c-1.562 0-2.828 1.27-2.828 2.828c0 1.6 1.3 2.8 2.8 2.828h59.226 c1.56 0 2.828-1.261 2.828-2.828C161.498 953.8 160.2 952.5 158.7 952.5" class="tool-bg-red"/><path d="M199.179 867.247c0.364 1.9 0.6 3.8 0.8 5.691c1.101 14.755-3.64 28.299-12.742 38.6 c-4.801 5.458-8.013 12.75-7.426 20.562c0.735 9.8 8 19.5 16.2 24.016c0.297 0.2 0.6 0.3 0.9 0.5 c0.153 0.1 0.3 0.2 0.5 0.243l-0.021-0.023c2.902 1.4 6.1 2.2 9.6 2.178c3.171 0 6.189-0.678 8.924-1.885 l-0.01 0.021l0.353-0.185c1.178-0.543 2.3-1.176 3.356-1.899c8.516-5.604 13.368-14.898 12.596-25.312 c-0.476-6.367-1.535-11.791-5.181-18.283c-4.657-8.246-9.908-14.13-10.404-27.826c-1.021 6.531-5.618 12.438-5.044 18.9 C210.303 889.5 205.9 877.5 199.2 867.2 M206.881 954.974c-10.104-0.021-18.252-8.18-18.27-18.262 c0.018-10.088 8.166-18.244 18.27-18.254c10.07 0 18.2 8.2 18.2 18.254C225.117 946.8 217 955 206.9 955" class="tool-bg-cream"/><path d="M315.358 869.651c-1.535 0-2.79 1.252-2.79 2.795v7.529l-27.394 15.821l-8.114-4.685 c-0.438-0.254-0.92-0.375-1.395-0.375c-0.963 0-1.901 0.5-2.419 1.396c-0.765 1.33-0.31 3 1 3.81l8.117 4.689v31.626 l-6.435 3.724c-1.336 0.772-1.793 2.479-1.024 3.807c0.521 0.9 1.5 1.4 2.4 1.402c0.477 0 0.951-0.121 1.393-0.378 l6.435-3.72l28.795 16.623c0.428 0.3 0.9 0.4 1.4 0.374c0.482 0 0.961-0.122 1.395-0.374l30.184-17.432 c0.862-0.502 1.397-1.418 1.397-2.416v-34.848c0-0.992-0.535-1.92-1.397-2.416l-28.792-16.629v-7.529 C318.147 870.9 316.9 869.7 315.4 869.7 M315.361 948.079l-27.4-15.824v-31.623l27.4-15.825l27.399 15.825v31.63 L315.361 948.079z M294.988 901.377c-1.545 0-2.79 1.247-2.79 2.784v24.566c0 1.5 1.2 2.8 2.8 2.8 c1.542 0 2.786-1.253 2.786-2.787v-24.566C297.774 902.6 296.5 901.4 295 901.4 M336.618 925 c-0.472 0-0.951 0.121-1.391 0.373l-21.262 12.274c-1.331 0.767-1.789 2.476-1.021 3.814c0.518 0.9 1.5 1.4 2.4 1.4 c0.476 0 0.951-0.126 1.395-0.375l21.262-12.276c1.331-0.772 1.783-2.479 1.018-3.809 C338.519 925.5 337.6 925 336.6 925" class="tool-bg-red"/><path d="M375.737 869.651c-1.546 0-2.79 1.252-2.79 2.793v7.527l-23.575 13.6 c1.598 1.1 2.6 2.9 2.8 4.832l23.575-13.615l27.396 15.824v31.623l-27.393 15.824l-23.576-13.611 c-0.175 1.95-1.188 3.706-2.793 4.824l23.579 13.619v7.541c0 1.5 1.2 2.8 2.8 2.781c1.537 0 2.79-1.248 2.79-2.781v-7.544 l27.389-15.815l6.439 3.721c0.439 0.3 0.9 0.4 1.4 0.377c0.965 0 1.899-0.5 2.419-1.402 c0.771-1.328 0.312-3.034-1.021-3.807l-6.433-3.724v-33.237c0-0.992-0.538-1.92-1.397-2.416l-28.795-16.633v-7.527 C378.52 870.9 377.3 869.7 375.7 869.7 M375.731 890.442c-0.963 0-1.901 0.502-2.417 1.4 c-0.772 1.331-0.314 3 1 3.811l21.269 12.272c0.434 0.3 0.9 0.4 1.4 0.377c0.962 0 1.902-0.503 2.416-1.399 c0.773-1.338 0.318-3.036-1.017-3.812l-21.272-12.27C376.684 890.6 376.2 890.4 375.7 890.4 M396.995 925 c-0.472 0-0.951 0.12-1.389 0.374l-21.269 12.27c-1.335 0.771-1.796 2.473-1.023 3.808c0.518 0.9 1.5 1.4 2.4 1.4 c0.472 0 0.947-0.121 1.387-0.373v-0.004l21.266-12.27c1.336-0.773 1.786-2.479 1.021-3.807 C398.895 925.5 398 925 397 925" class="tool-bg-cream"/><path d="M505.868 921.212c-6.251 0-11.316 5.062-11.316 11.313c0 6.2 5.1 11.3 11.3 11.3 c6.238 0 11.312-5.066 11.312-11.312C517.18 926.3 512.1 921.2 505.9 921.2" class="tool-bg-red"/><path d="M532.837 878.546c-3.82 0-6.924 3.1-6.924 6.928c0 3.8 3.1 6.9 6.9 6.9 c3.824 0 6.934-3.104 6.934-6.926C539.771 881.6 536.7 878.5 532.8 878.5" class="tool-bg-red"/><path d="M463.943 939.001c-3.828 0-6.93 3.105-6.93 6.934c0 3.8 3.1 6.9 6.9 6.9 c3.823 0 6.925-3.108 6.925-6.929C470.868 942.1 467.8 939 463.9 939" class="tool-bg-red"/><path d="M536.857 955.953c-3.824 0-6.929 3.101-6.929 6.929c0 3.8 3.1 6.9 6.9 6.9 s6.929-3.105 6.929-6.929C543.786 959.1 540.7 956 536.9 956" class="tool-bg-red"/><path d="M477.878 878.712c-1.508 0-2.874 0.332-4.071 1.023c-6.696 3.865-6.337 17.963-0.307 35.7 c-18.42 3.652-30.795 10.412-30.795 18.152c0 4.3 3.8 8.2 10.2 11.549c0.213-3.027 1.629-5.69 3.79-7.571 c-1.308-1.604-2.039-3.3-2.039-5.066c0-5.845 7.637-11.014 19.787-14.278c1.8 4.9 4 10.1 6.6 15.4 c-12.7 25.748-16.14 48.751-7.282 53.873c1.196 0.7 2.6 1 4.1 1.022c6.939 0 16.877-7.037 27.035-18.634 c10.162 11.6 20.1 18.6 27 18.634c1.509 0 2.875-0.333 4.071-1.022c3.636-2.101 5.181-7.226 4.884-14.305 c-1.259 0.488-2.615 0.786-4.041 0.786c-1.041 0-2.034-0.191-2.996-0.465c-0.72 1.35-1.649 2.437-2.859 3.1 c-1.124 0.647-2.404 0.963-3.812 0.963c-5.12 0-11.934-4.158-19.104-11.492c2.94-3.618 5.869-7.569 8.732-11.851 c28.657-1.881 50.298-10.407 50.298-20.643c0-7.74-12.375-14.5-30.795-18.152c2.906-8.584 4.496-16.316 4.59-22.441 c-1.922 2.057-4.608 3.364-7.607 3.492c0.84 4.6 0.2 10.802-1.836 18.076c-4.6-0.733-9.515-1.281-14.652-1.614 c-3.297-4.937-6.688-9.449-10.068-13.49c5.68-5.682 11.109-9.352 15.63-10.505c-0.374-1.107-0.623-2.268-0.623-3.503 c0-1.237 0.252-2.419 0.63-3.534c-5.346 3.126-11.376 8.439-17.486 15.399C494.746 885.7 484.8 878.7 477.9 878.7 M478.461 914.571c-3.472-12.52-2.881-22.025 2.279-25.004c1.1-0.634 2.352-0.94 3.729-0.94c4.965 0 11.6 4 18.5 10.9 c-3.367 4.014-6.734 8.506-10.006 13.407C487.903 913.3 483 913.8 478.5 914.6 M495.688 912.8 c3.038-4.303 6.129-8.104 9.165-11.361c3.057 3.3 6.2 7.1 9.2 11.351c-2.981-0.146-6.033-0.224-9.145-0.224 C501.777 912.6 498.7 912.7 495.7 912.8 M505.217 950.417c-3.419 0-6.689-0.148-9.882-0.365 c-1.637-2.464-3.251-5.045-4.832-7.779c-2.184-3.785-4.096-7.507-5.796-11.144c1.214-2.398 2.496-4.82 3.912-7.274 c1.804-3.117 3.657-6.045 5.526-8.814c3.546-0.264 7.236-0.422 11.071-0.422c3.584 0 7.1 0.1 10.4 0.4 c2.007 2.9 4 6.1 5.9 9.387c1.322 2.3 2.5 4.5 3.7 6.775c-1.634 3.45-3.474 7.004-5.555 10.6 c-1.699 2.941-3.447 5.726-5.22 8.373C511.44 950.3 508.4 950.4 505.2 950.4 M526.261 928.8 c-1.005-1.891-2.033-3.789-3.135-5.693c-1.573-2.729-3.199-5.328-4.841-7.869c4.463 0.4 8.6 1 12.5 1.8 C529.586 920.7 528.1 924.7 526.3 928.8 M483.585 928.71c-1.79-4.045-3.237-7.928-4.377-11.598 c3.776-0.791 7.887-1.406 12.27-1.834c-1.62 2.518-3.226 5.114-4.777 7.814C485.613 925 484.6 926.8 483.6 928.7 M534.617 947.108c-1.661-4.354-3.646-8.883-5.916-13.504c2.623-5.328 4.853-10.52 6.649-15.477 c12.249 3.3 19.9 8.5 19.9 14.392C555.222 938.5 547.3 943.9 534.6 947.1 M519.784 949.7 c1.133-1.807 2.248-3.659 3.345-5.557c1.563-2.713 3.01-5.412 4.385-8.094c1.87 4.1 3.4 8 4.6 11.7 C528.359 948.5 524.2 949.2 519.8 949.7 M490.004 949.624c-4.397-0.475-8.475-1.166-12.225-2.016 c1.209-3.664 2.726-7.537 4.558-11.547c1.37 2.7 2.8 5.4 4.4 8.062C487.784 946 488.9 947.8 490 949.6 M482.594 977.504c-1.38 0-2.634-0.309-3.734-0.942c-5.062-2.924-5.727-12.117-2.476-24.275c5.146 0.9 10.7 1.5 16.6 1.9 c2.846 4.3 5.8 8.2 8.7 11.806C494.499 973.3 487.7 977.5 482.6 977.5 M504.843 962.6 c-2.139-2.439-4.293-5.152-6.432-8.102c2.143 0.1 4.3 0.1 6.5 0.135c2.167 0 4.307-0.034 6.418-0.111 C509.181 957.5 507 960.2 504.8 962.6" class="tool-bg-cream"/><path d="M213.879 649.799h-38.873c-1.119 0-2.038 0.917-2.038 2.038v2.486c0 1.1 0.9 2 2 2.037h38.873 c1.126 0 2.041-0.916 2.041-2.037v-2.486C215.92 650.7 215 649.8 213.9 649.8" class="tool-bg-cream"/><path d="M200.686 624.782c-0.73 0-1.528 0.209-2.272 0.638l-11.756 6.785c-1.772 1.024-2.601 2.936-1.85 4.2 c0.44 0.8 1.3 1.2 2.3 1.158c0.729 0 1.524-0.207 2.267-0.634l11.761-6.788c1.774-1.021 2.6-2.934 1.845-4.248 C202.577 625.2 201.7 624.8 200.7 624.8" class="tool-bg-cream"/><path d="M163.418 568.072c-0.376 0-0.756 0.097-1.103 0.296l-7.02 4.051c-1.059 0.615-1.419 1.979-0.811 3 l0.772 1.334c0.408 0.7 1.2 1.1 1.9 1.113c0.376 0 0.758-0.097 1.106-0.298l7.023-4.048 c1.062-0.611 1.426-1.979 0.813-3.038l-0.775-1.342C164.939 568.5 164.2 568.1 163.4 568.1" class="tool-bg-cream"/><path d="M171.108 574.427c-0.631 0-1.269 0.16-1.85 0.496l-11.771 6.785c-1.769 1.021-2.385 3.311-1.36 5.1 l8.649 14.972c-16.466 4.272-28.635 19.182-28.635 36.979c0 17.2 11.4 31.7 27 36.6 c1.129-5.188 5.737-9.078 11.261-9.082c5.499 0 10.1 3.9 11.2 9.013c8.223-2.543 15.284-7.72 20.102-14.624h-26.369 c-2.314 0.7-4.762 1.085-7.299 1.085c-13.927 0-25.266-11.337-25.266-25.265c0-13.315 10.365-24.229 23.44-25.174l9.665 16.7 c0.69 1.2 1.9 1.9 3.2 1.858c0.631 0 1.269-0.159 1.852-0.494l11.756-6.793c1.772-1.024 2.388-3.31 1.36-5.083 l-23.779-41.191C173.654 575.1 172.4 574.4 171.1 574.4 M186.794 615.376c-0.741 0-1.462-0.389-1.853-1.084 l-14.364-25.658c-0.574-1.018-0.207-2.307 0.813-2.881c0.327-0.184 0.684-0.27 1.034-0.27c0.742 0 1.5 0.4 1.9 1.1 l14.359 25.655c0.571 1 0.2 2.315-0.813 2.888C187.5 615.3 187.1 615.4 186.8 615.4 M174.401 669.9 c-4.298 0.009-7.796 3.507-7.803 7.806c0.007 4.3 3.5 7.8 7.8 7.804c4.297-0.015 7.796-3.507 7.802-7.804 C182.197 673.5 178.7 670 174.4 669.9 M164.354 683.311c-7.62 1.796-14.263 5.292-14.263 8 c0 1.6 1.3 2.8 2.9 2.847h41.589c1.185 0 2.863-1.126 2.863-2.847c0-2.342-5.72-5.821-13.081-7.756 c-2.004 3.412-5.675 5.732-9.914 5.736C170.063 689.3 166.3 686.9 164.4 683.3" class="tool-bg-red"/><path d="M286.163 732.051c-9.305 0-18.233 2.552-26.783 7.667c-12.613 7.555-20.688 18.465-24.268 32.7 c-3.58 14.241-1.611 27.7 5.9 40.293c7.551 12.6 18.4 20.7 32.7 24.264c4.601 1.2 9.1 1.7 13.5 1.7 c9.299 0 18.21-2.562 26.757-7.683c12.606-7.55 20.713-18.437 24.271-32.709c3.548-14.284 1.598-27.68-5.949-40.292 c-7.551-12.609-18.469-20.699-32.7-24.271C295.093 732.6 290.6 732.1 286.2 732.1 M287.237 832.8 c-3.927 0-7.928-0.515-12.008-1.537c-12.686-3.185-22.352-10.386-29.074-21.56c-6.67-11.19-8.445-23.117-5.243-35.769 c3.156-12.676 10.322-22.317 21.541-29.032c7.584-4.537 15.5-6.82 23.758-6.82c3.922 0 7.9 0.5 12 1.5 c12.675 3.2 22.3 10.4 29 21.541c6.694 11.2 8.5 23.1 5.3 35.79c-3.171 12.642-10.352 22.328-21.533 29 C303.394 830.5 295.5 832.8 287.2 832.8" class="tool-bg-cream"/><path d="M306.657 747.656l-14.246 24.639c2.716 1.2 4.9 3 6.5 5.69c1.483 2.5 2.1 5.1 2 7.8 l28.414-1.174c-0.066-7.37-2.126-14.403-6.16-21.144C318.958 756.4 313.5 751.2 306.7 747.7 M265.417 748.6 l-0.493 0.293c-10.109 5.992-16.556 14.716-19.404 26.064c-1.019 3.934-1.465 7.744-1.406 11.527l28.456 0.1 c-0.136-1.49 0-3.056 0.416-4.693c0.941-3.752 3.097-6.661 6.474-8.68c0.393-0.233 0.752-0.449 1.171-0.662L265.417 748.565z M286.436 778.483c-1.192 0-2.332 0.326-3.41 0.998c-1.664 0.966-2.692 2.386-3.163 4.238c-0.469 1.842-0.193 3.6 0.7 5.2 c1.027 1.6 2.4 2.7 4.3 3.147c0.589 0.1 1.2 0.2 1.7 0.217c1.215 0 2.375-0.336 3.504-1.007 c1.615-0.979 2.671-2.371 3.133-4.217c0.468-1.855 0.195-3.572-0.793-5.223c-0.973-1.619-2.357-2.682-4.209-3.132 C287.613 778.6 287 778.5 286.4 778.5 M295.345 796.526c-0.447 0.309-0.885 0.623-1.35 0.9 c-2.28 1.367-4.658 2.051-7.124 2.051c-1.183 0-2.386-0.156-3.607-0.472c-1.528-0.387-2.905-0.957-4.14-1.747l-13.12 25.2 c3.15 1.8 6.6 3 10.4 4.011c3.651 0.9 7.2 1.4 10.8 1.378c7.426 0 14.56-2.043 21.396-6.133 c0.298-0.178 0.627-0.383 0.938-0.608L295.345 796.526z" class="tool-bg-red"/><path d="M48.756 536.854c-1.695 0-3.336 0.247-4.897 0.67l1.325 1.786c1.048 1.4 1.5 3.2 1.2 4.9 c-0.262 1.755-1.182 3.296-2.608 4.345l-0.748 0.56c-1.149 0.851-2.503 1.294-3.933 1.294c-2.101 0-4.083-1-5.32-2.671 l-1.182-1.601c-1.608 2.765-2.549 5.963-2.549 9.389c0 10.3 8.4 18.7 18.7 18.689c6.278 0 11.818-3.107 15.206-7.863 l-0.514-0.073c-1.741-0.254-3.282-1.171-4.346-2.591c-1.066-1.415-1.502-3.159-1.251-4.907l0.136-0.935 c0.47-3.258 3.293-5.664 6.535-5.664c0.165 0 0.3 0 0.5 0.02c0.15 0 0.3 0 0.5 0.045l1.688 0.2 C65.718 543.6 58 536.9 48.8 536.9" class="tool-bg-red"/><path d="M32.102 526.101c-1.968 2.233-4.415 4.035-7.191 5.213l11.008 14.871c0.772 1 2 1.6 3.2 1.6 c0.821 0 1.649-0.252 2.355-0.775l0.762-0.563c1.755-1.3 2.126-3.798 0.832-5.556L32.102 526.101z M64.529 554.8 c-1.934 0-3.64 1.427-3.927 3.396l-0.136 0.939c-0.308 2.2 1.2 4.2 3.4 4.494l18.758 2.7 c0.011-0.371-0.003-0.733 0.028-1.111c0.198-2.699 0.881-5.237 1.916-7.583l-19.434-2.81 C64.905 554.9 64.7 554.8 64.5 554.8 M33.371 570.284l-6.79 9.282c-1.296 1.761-0.905 4.3 0.9 5.54l0.763 0.6 c0.705 0.5 1.5 0.8 2.3 0.765c1.225 0 2.433-0.562 3.208-1.621l6.971-9.519C37.922 574.1 35.4 572.4 33.4 570.3" class="tool-bg-cream"/><path d="M24.086 576.933c-8.474 0-15.329 6.863-15.329 15.322c0 8.5 6.9 15.3 15.3 15.3 c8.459 0 15.322-6.854 15.322-15.321c0-2.838-0.787-5.492-2.136-7.773l-1.384 1.89c-1.248 1.696-3.241 2.703-5.349 2.7 c-1.413 0-2.755-0.437-3.898-1.269l-0.769-0.553c-2.94-2.172-3.583-6.307-1.429-9.25l0.74-1.018 C24.816 577 24.5 576.9 24.1 576.9" class="tool-bg-red"/><path d="M17.213 495.792C7.701 495.8 0 503.5 0 513.003c0 9.5 7.7 17.2 17.2 17.2 c9.505 0 17.21-7.711 17.21-17.219C34.423 503.5 26.7 495.8 17.2 495.8" class="tool-bg-red"/><path d="M105.652 546.518c-10.62 0-19.598 8.197-20.404 18.956c-0.842 11.3 7.6 21.1 18.9 22 c0.521 0 1 0.1 1.6 0.059c10.614 0 19.597-8.195 20.401-18.951c0.842-11.28-7.621-21.114-18.902-21.957 C106.684 546.5 106.2 546.5 105.7 546.5" class="tool-bg-red"/><path d="M195.884 726.569c-1.35 0-2.7 0.525-3.732 1.578c-2.062 2.101-2.062 5.5 0 7.6 c4.381 4.4 9.7 11.3 9.5 17.951c-0.042 3.973-1.466 8.502-6.975 14.187c-3.178 3.321-6.442 5.839-9.838 8.1 c3.108 2.3 6.1 4.5 8.9 6.729c2.717-2.045 5.503-4.373 8.38-7.248c6.985-7.066 10.082-14.713 10.051-21.785 c-0.14-12.031-7.861-20.586-12.638-25.561C198.58 727.1 197.2 726.6 195.9 726.6 M152.87 740.9 c-2.416 0-4.598 1.703-5.139 4.207c-0.523 2.384-0.794 4.713-0.794 6.978c-0.035 6.7 2.4 12.5 6.1 17.4 c3.702 4.9 8.6 8.9 14.1 13.068c10.439 7.8 20.5 15 25.7 20.006c3.226 3 9.3 10.5 9.1 17.7 c0 1.252-0.154 2.533-0.507 3.887c-0.766 2.9 0.9 5.8 3.7 6.59c0.464 0.1 0.9 0.2 1.4 0.2 c2.325 0 4.451-1.576 5.083-3.978c0.595-2.259 0.874-4.502 0.871-6.685c-0.175-12.673-8.46-21.594-12.421-25.533 c-6.275-6.016-16.344-13.1-26.69-20.853c-5.184-3.881-9.33-7.474-11.956-10.979c-2.639-3.534-3.876-6.709-3.904-10.799 c0-1.397 0.16-2.93 0.534-4.636c0.637-2.903-1.159-5.774-3.998-6.419C153.638 741 153.3 740.9 152.9 740.9 M166.113 788.28c-2.892 2.203-5.885 4.752-9.021 7.896c-6.788 6.847-9.717 14.478-9.668 21.4 c0.125 11.8 7.3 20.5 11.7 25.022c1.036 1 2.4 1.6 3.7 1.577c1.352 0 2.702-0.535 3.729-1.577 c2.063-2.101 2.063-5.507 0-7.604c-3.606-3.578-8.718-10.588-8.592-17.418c0.042-4.049 1.398-8.48 6.582-13.838 c3.549-3.676 7.031-6.438 10.521-8.847c-1.654-1.233-3.347-2.493-5.07-3.765L166.113 788.28z" class="tool-bg-red"/><path d="M186.753 738.884c-0.238 0-0.479 0.031-0.718 0.098l-20.678 5.574c-1.453 0.398-2.324 1.891-1.93 3.4 c0.332 1.2 1.4 2 2.6 2.029c0.234 0 0.476-0.033 0.717-0.096l20.674-5.58c1.455-0.39 2.325-1.893 1.93-3.355 C189.062 739.7 188 738.9 186.8 738.9 M193.336 749.921c-0.172 0-0.347 0.016-0.523 0.05l-25.935 5 c-1.478 0.278-2.454 1.717-2.175 3.209c0.256 1.3 1.4 2.2 2.7 2.211c0.172 0 0.347-0.018 0.521-0.049l25.935-4.956 c1.486-0.288 2.461-1.724 2.179-3.206C195.769 750.8 194.6 749.9 193.3 749.9 M188.94 762.1 c-0.103 0-0.204 0.008-0.309 0.019l-13.263 1.485c-1.506 0.172-2.583 1.525-2.419 3.025c0.153 1.4 1.4 2.4 2.7 2.4 l0.301-0.018l13.267-1.492c1.504-0.17 2.584-1.532 2.416-3.024C191.5 763.1 190.3 762.1 188.9 762.1 M184.335 802.7 c-0.14 0-0.282 0.011-0.425 0.033l-13.52 2.102c-1.491 0.234-2.517 1.629-2.278 3.129c0.206 1.4 1.4 2.3 2.7 2.3 l0.419-0.032l13.525-2.101c1.493-0.231 2.515-1.635 2.279-3.133C186.833 803.6 185.7 802.7 184.3 802.7 M192.343 811.6 c-0.19 0-0.384 0.021-0.579 0.061l-26.26 5.566c-1.478 0.312-2.426 1.766-2.111 3.248c0.276 1.3 1.4 2.2 2.7 2.2 c0.188 0 0.381-0.019 0.572-0.061l26.265-5.569c1.478-0.313 2.426-1.765 2.107-3.243 C194.745 812.5 193.6 811.6 192.3 811.6 M193.797 822.394c-0.211 0-0.426 0.024-0.641 0.076l-21.048 5.1 c-1.466 0.356-2.374 1.828-2.015 3.308c0.301 1.2 1.4 2.1 2.7 2.09c0.213 0 0.426-0.024 0.643-0.077l21.046-5.079 c1.468-0.355 2.377-1.842 2.02-3.305C196.155 823.2 195 822.4 193.8 822.4" class="tool-bg-cream"/><path d="M579.424 715.024h-0.019c-2.737 0.002-4.951 2.223-4.951 4.957l0.021 9.7 c0.008 2.1 1.4 3.9 3.2 4.643c0.538 0.2 1.1 0.3 1.7 0.305c2.729-0.012 4.948-2.23 4.941-4.969l-0.02-9.651 C584.358 717.2 582.1 715 579.4 715" class="tool-bg-cream"/><path d="M579.593 798.282h-0.069c-2.71 0.004-4.914 2.224-4.908 4.926l0.023 10.9 c0.005 2.7 2.2 4.9 4.9 4.911h0.007l0.07 0.004c2.708-0.008 4.911-2.229 4.907-4.93l-0.021-10.924 C584.519 800.5 582.3 798.3 579.6 798.3" class="tool-bg-cream"/><path d="M579.587 738.315h-0.141c-10.608 0.014-19.642 6.717-23.109 16.115c-0.993 2.684-1.528 5.594-1.525 8.6 c0.004 6.6 2.7 12.6 7 17.01l-21.444 59.247c-0.846 2.324-0.053 4.8 1.8 6.303l-1.45 4.5 c-0.259 0.8 0.2 1.7 1 2l0.074 0.027c0.163 0.1 0.3 0.1 0.5 0.075c0.686 0 1.318-0.435 1.536-1.121l1.362-4.271 c0.183 0 0.4 0 0.5 0.025c2.312 0 4.479-1.412 5.311-3.711l26.268-72.558c1.067-2.938-0.458-6.175-3.387-7.233 c-0.64-0.232-1.292-0.344-1.932-0.344c-2.312 0-4.473 1.434-5.302 3.734l-2.835 7.83c-2.397-3.237-3.849-7.207-3.845-11.535 c-0.004-2.42 0.416-4.727 1.201-6.85c2.763-7.459 9.922-12.783 18.35-12.793c2.415 0 4.7 0.4 6.8 1.2 c7.459 2.8 12.8 9.9 12.8 18.356l-0.006-0.003c0.003 2.404-0.417 4.697-1.207 6.83c-0.63 1.701-1.546 3.248-2.598 4.7 l-2.855-7.787c-0.841-2.291-3.005-3.712-5.311-3.712c-0.643 0-1.298 0.111-1.937 0.345c-2.934 1.072-4.433 4.317-3.356 7.2 l26.522 72.467c0.595 1.6 1.9 2.8 3.3 3.367c0.555 0.2 1.1 0.3 1.7 0.282c0.251 0 0.505-0.014 0.759-0.038 l1.396 4.317c0.156 0.5 0.5 0.9 1 1.022c0.176 0.1 0.4 0.1 0.6 0.098c0.164 0 0.331-0.024 0.496-0.077 c0.847-0.276 1.308-1.188 1.042-2.035l-1.464-4.517c1.818-1.475 2.604-3.975 1.755-6.301l-21.656-59.15 c2.32-2.406 4.17-5.254 5.352-8.453c0.993-2.678 1.534-5.579 1.528-8.604l-0.003-0.002c-0.029-10.61-6.728-19.646-16.127-23.111 C585.402 738.9 582.5 738.3 579.6 738.3" class="tool-bg-red"/><path d="M792.58 828.573h-17.506v23.561l-0.318 0.127l-3.171 1.244c-8.225 3.23-14.804 9.037-18.971 16.3 c0 0 0 0 0 0.055l26.156 43.429c1.547 2.6 2 4.9 1.5 6.87h25.714l0.125-0.08 c10.62-7.04 16.973-18.801 16.973-31.467c0-16.67-10.707-31.168-26.635-36.068l-3.512-1.072l-0.362-0.113V828.573z M780.36 916.7 c-0.306-1.842-0.989-3.754-2.122-5.636l-19.496-32.374h57.851c0.987 3.2 1.5 6.5 1.5 9.9 c0 10.957-5.358 21.25-14.347 27.545l-0.259 0.181l-0.287 0.185l-0.241 0.162H780.36z" class="tool-bg-cream"/><path d="M816.593 878.661h-57.851l19.496 32.373c1.133 1.9 1.8 3.8 2.1 5.638h22.603l0.241-0.163 l0.287-0.184l0.259-0.183c8.989-6.293 14.347-16.587 14.347-27.543C818.097 885.2 817.6 881.9 816.6 878.7 M803.435 900.465c-0.466 0-0.938-0.069-1.407-0.214c-2.515-0.787-3.92-3.45-3.137-5.965c0.627-2.043 2.501-3.356 4.533-3.356 c0.473 0 1 0.1 1.4 0.222c2.509 0.8 3.9 3.5 3.1 5.953C807.358 899.2 805.5 900.5 803.4 900.5 M794.834 900.237c-0.194 0-0.39-0.029-0.585-0.091c-1.049-0.325-1.636-1.435-1.307-2.481c0.257-0.854 1.041-1.399 1.885-1.399 c0.196 0 0.4 0 0.6 0.093c1.049 0.3 1.6 1.4 1.3 2.48C796.463 899.7 795.7 900.2 794.8 900.2 M798.668 909.299c-0.347 0-0.699-0.052-1.046-0.157c-1.877-0.588-2.929-2.572-2.346-4.447c0.469-1.529 1.867-2.507 3.382-2.507 c0.354 0 0.7 0.1 1.1 0.164c1.874 0.6 2.9 2.6 2.3 4.44C801.593 908.3 800.2 909.3 798.7 909.3" class="tool-bg-grey"/><path d="M751.904 833.726h-24.932c-2.049 0-3.699 1.164-3.699 3.213c0 2 1.6 3.2 3.7 3.203h1.152v26.547 l-28.049 46.588c-3.836 6.358-0.895 11.6 6.5 11.557h65.658c4.427 0 7.26-1.848 8.013-4.688 c0.511-1.924 0.067-4.301-1.479-6.869l-26.155-43.43l-1.898-3.152v-26.553h1.161c2.038 0 3.699-1.156 3.699-3.203 C755.604 834.9 753.9 833.7 751.9 833.7 M706.613 920.642c-2.311 0-3.493-0.65-3.842-1.263 c-0.348-0.61-0.294-1.967 0.897-3.94l28.05-46.582l0.603-1.002v-27.713h14.234v27.721l0.601 1l28.051 46.6 c1.192 2 1.2 3.3 0.9 3.94c-0.354 0.612-1.538 1.263-3.835 1.263H706.613z" class="tool-bg-cream"/><path d="M736.921 877.372c-2.704 0-5.209 1.742-6.047 4.464c-0.105 0.339-0.182 0.679-0.229 1.021H743.2 c-0.323-2.363-1.976-4.443-4.401-5.199C738.174 877.5 737.5 877.4 736.9 877.4 M750.688 882.856H743.2 c0.122 0.9 0.1 1.817-0.228 2.729c-0.846 2.716-3.35 4.461-6.057 4.461c-0.62 0-1.249-0.093-1.873-0.283 c-3.005-0.93-4.817-3.892-4.398-6.907h-2.459l-20.219 33.586h62.955L750.688 882.856z M745.896 897 c-0.35 0-0.702-0.052-1.052-0.161c-1.875-0.583-2.924-2.567-2.34-4.446c0.465-1.525 1.863-2.504 3.379-2.504 c0.354 0 0.7 0.1 1.1 0.166c1.878 0.6 2.9 2.6 2.3 4.439C748.818 896 747.4 897 745.9 897" class="tool-bg-red"/><path d="M798.658 902.188c-1.515 0-2.914 0.978-3.383 2.506c-0.583 1.9 0.5 3.9 2.3 4.4 c0.348 0.1 0.7 0.2 1 0.157c1.517 0 2.926-0.978 3.4-2.508c0.577-1.866-0.467-3.862-2.342-4.438 C799.371 902.2 799 902.2 798.7 902.2" class="tool-bg-cream"/><path d="M803.424 890.931c-2.032 0-3.906 1.312-4.533 3.356c-0.783 2.5 0.6 5.2 3.1 6 c0.469 0.1 0.9 0.2 1.4 0.213c2.037 0 3.924-1.312 4.562-3.359c0.772-2.502-0.633-5.18-3.142-5.953 C804.378 891 803.9 890.9 803.4 890.9" class="tool-bg-cream"/><path d="M794.827 896.266c-0.845 0-1.629 0.546-1.886 1.399c-0.329 1 0.3 2.2 1.3 2.5 c0.194 0.1 0.4 0.1 0.6 0.09c0.846 0 1.629-0.549 1.898-1.398c0.321-1.045-0.262-2.157-1.312-2.48 C795.223 896.3 795 896.3 794.8 896.3" class="tool-bg-cream"/><path d="M847.007 717.347c-4.804 0-9.606 3.13-13.25 9.391l-41.316 71 c-7.287 12.527-1.395 22.8 13.1 22.775h82.941c14.492 0 20.391-10.248 13.095-22.775l-41.314-71.008 C856.612 720.5 851.8 717.3 847 717.3 M805.536 815.317c-4.995 0-8.711-1.486-10.204-4.078 c-1.488-2.592-0.91-6.559 1.602-10.873l41.327-71.004c2.517-4.326 5.704-6.819 8.741-6.819c3.046 0 6.2 2.5 8.8 6.8 l41.317 71.01c2.517 4.3 3.1 8.3 1.6 10.873c-1.489 2.592-5.209 4.078-10.204 4.078H805.536z" class="tool-bg-cream"/><path d="M847.091 728.67c-0.312 0.05-1.811 0.847-3.518 3.765l-41.33 71.019c-1.649 2.841-1.637 4.517-1.626 4.7 c0.199 0.2 1.6 1.1 4.9 1.087h82.936c3.298 0 4.741-0.856 4.863-0.944c0.091-0.289 0.104-1.965-1.556-4.813l-41.306-71.011 C848.8 729.5 847.3 728.7 847.1 728.7 M831.82 778.927l8.551-25.152h16.707l-7.596 18.228h10.432l-25.241 32.1 l6.454-25.156H831.82z" class="tool-bg-red"/></g><polygon points="109.1,185.8 60.4,185.8 67.6,204.1 101.8,204.1" class="tool-bg-red"/><rect x="60.4" y="137.9" width="48.7" height="45.9" class="tool-bg-cream"/><g><path d="M91.037 206.045H78.403c0.073 3.6 1 6.9 2.5 9.127h7.778 C90.106 213 91 209.7 91 206" class="tool-bg-cream"/></g><polygon points="87.2,253.9 82.5,258.8 82.5,262.3 87.2,257.4" class="tool-bg-red"/><polygon points="87.2,237.5 82.5,242.4 82.5,245.9 87.2,241" class="tool-bg-red"/><polygon points="87.2,248.5 82.5,253.4 82.5,256.8 87.2,251.9" class="tool-bg-red"/><polygon points="87.2,259.4 82.5,264.3 82.5,267.7 87.2,262.8" class="tool-bg-red"/><polygon points="87.2,264.9 82.5,269.8 82.5,272.7 83.1,272.7 87.2,268.3" class="tool-bg-red"/><polygon points="87.2,270.3 85,272.7 82.6,275.2 84.9,277.8 87.2,275.1 87.2,272.7" class="tool-bg-red"/><polygon points="87.2,243 82.5,247.9 82.5,251.3 87.2,246.4" class="tool-bg-red"/><polygon points="87.2,217.2 82.5,217.2 82.5,229.4 84.4,227.5 86.3,227.5 82.5,231.5 82.5,234.9 87.2,230" class="tool-bg-red"/><polygon points="87.2,232.1 82.5,237 82.5,240.4 87.2,235.5" class="tool-bg-red"/><polygon points="82.5,272.7 82.5,273.2 83.1,272.7" class="tool-bg-red"/><polygon points="137.7,273.2 90.1,273.2 90.1,275.5 84.8,281.6 79.7,275.7 79.7,273.2 32,273.2 32,285.3 137.7,285.3" class="tool-bg-red"/><g><path d="M597.808 899.513h12.069c0 0 1.813-0.996 1.813-2.346v-9.732c0-6.125 11.195-19.613 32.1 1.3 c-20.764-30.901-46.622-24.277-49.04-20.872c-3.328 4.806-11.902 3.253-14.083-1.509h-8.299c-2.098 3.486-2.016 12.1 0 16.1 c4.542 0 6.272-0.01 8.236-0.01c4.31-6.194 15.017-2.883 15 4.52c0 5.469-0.008 8.43-0.008 10.2 C595.65 899 597.8 899.5 597.8 899.5" class="tool-bg-cream"/><path d="M597.808 900.448l-3.021 107.084c0 0-0.258 5.5 3 5.532h12.471c2.939 0 2.618-5.281 2.618-5.281 l-3.02-107.335H597.808z" class="tool-bg-red"/><path d="M662.281 980.814c0.088-0.059 0.254-0.172 0.475-0.352C662.597 980.6 662.4 980.7 662.3 980.8" class="tool-bg-red"/><path d="M686.113 980.461c0.22 0.2 0.4 0.3 0.5 0.354C686.435 980.7 686.3 980.6 686.1 980.5" class="tool-bg-red"/><path d="M687.023 995.998l-6.296 10.901h-12.587l-6.296-10.901l6.295-10.903l12.588 0.002L687.023 995.998z M695.158 897.64c4.47-10.5-2.027-21.817-8.713-25.422c0 15.922-0.013 18.102-12.01 18.102s-12.013-2.18-12.013-18.102 c-6.683 3.604-13.181 14.922-8.712 25.422c4.468 10.5 12.3 6.1 12.3 16.194c0 5.9 0.1 43.3 0 59 c-0.029 4.413-2.247 6.758-3.3 7.628c-0.22 0.181-0.386 0.293-0.475 0.353l-0.08 0.053l0.015-0.001 c-4.414 3.565-7.238 9.017-7.239 15.13c0.001 10.7 8.7 19.5 19.5 19.458c10.746 0 19.458-8.711 19.456-19.458 c0-6.116-2.827-11.564-7.237-15.13l0.014 0.001l-0.078-0.053c-0.09-0.057-0.257-0.17-0.478-0.354 c-1.06-0.872-3.27-3.219-3.301-7.625c-0.097-15.69 0.002-53.067 0-58.999C682.813 903.8 690.7 908.1 695.2 897.6" class="tool-bg-red"/><path d="M868.242 850.907c0-3.795-0.044-9.445-0.044-11.326c-2.543 1.021-15.003 7.059-17.155 23.6 c-3.192 30 33 19.6 34.2 95.176c0 4.1 10.5 3.8 10.5 0c1.507-63.045-12.969-55.662-12.969-76.66 c0-5.455-3.363-8.912-13.004-8.912c0.021-1.465 0.066-1.861 0.066-4.525C862.234 868.5 859.2 854.1 868.2 850.9" class="tool-bg-red"/><path d="M848.494 958.376c0 3.8 10.5 4.1 10.5 0c0.433-26.603 5.198-42.539 11.048-53.342 c-3.413-5.06-6.939-9.16-10.264-12.834C856.031 902.8 847.3 908.7 848.5 958.4" class="tool-bg-red"/><path d="M885.809 881.458c0 1.1 0 2.1 0.1 3.126c4.993-5.759 8.366-11.287 7.294-21.384 c-2.154-16.561-14.61-22.598-17.157-23.62c0 1.883-0.042 7.532-0.042 11.327c9.035 3.2 6 17.64-1.595 17.4 c0 0.8 0 1.3 0 1.796C882.731 871.3 885.8 875.5 885.8 881.5" class="tool-bg-red"/><path d="M877 884.353c0 2.509-2.036 4.542-4.544 4.542c-2.509 0-4.542-2.033-4.542-4.542 c0-2.51 2.033-4.544 4.542-4.544C874.964 879.8 877 881.8 877 884.4" class="tool-bg-cream"/><path d="M924.309 307.489H794.695c-14.575 20.8 12.2 46.363-1.433 55.445v13.143h132.472v-13.143 C912.185 353.9 938.8 328.3 924.3 307.5" class="tool-bg-cream"/></g><rect x="796.6" y="378" width="125.7" height="9.8" class="tool-bg-red"/><g><path d="M735.518 401.603c0-11.772-9.547-21.319-21.319-21.319s-21.32 9.547-21.321 21.3 c0.001 11.8 9.5 21.3 21.3 21.32S735.518 413.4 735.5 401.6 M771.16 408.6l-16.989 7.2 c-0.472 1.326-0.962 2.61-1.552 3.889l6.993 16.959l-10.049 10.049l-17.045-6.83c-1.275 0.612-2.608 1.141-3.959 1.6 l-7.031 16.906h-14.217l-7.188-16.821c-1.414-0.479-2.793-1.002-4.136-1.638l-16.786 6.911l-10.048-10.048l6.765-16.849 c-0.668-1.369-1.222-2.779-1.741-4.222l-16.722-6.968v-14.213l16.711-7.143c0.512-1.442 1.057-2.849 1.723-4.218l-6.886-16.739 l10.049-10.049l16.889 6.781c1.351-0.64 2.711-1.166 4.126-1.667l7.024-16.822l14.214 0.001l7.198 16.9 c1.361 0.5 2.7 1 4 1.639l16.92-6.969l10.048 10.049l-6.854 17.074c0.611 1.3 1.1 2.6 1.6 3.887l16.988 7.1 V408.6z" class="tool-bg-cream"/><path d="M682.929 333.511c1.224-5.758-2.454-11.419-8.211-12.643c-5.758-1.224-11.42 2.453-12.644 8.2 c-1.223 5.8 2.5 11.4 8.2 12.643C676.043 342.9 681.7 339.3 682.9 333.5 M699.633 340.638l-9.062 1.8 c-0.368 0.599-0.741 1.176-1.163 1.741l1.657 9.021l-5.96 3.87l-7.626-5.113c-0.688 0.167-1.395 0.287-2.106 0.391l-5.197 7.5 l-6.953-1.478l-1.767-8.975c-0.641-0.381-1.261-0.78-1.852-1.23l-8.929 1.634l-3.87-5.958l5.062-7.538 c-0.186-0.739-0.309-1.486-0.413-2.245L644 328.925l1.478-6.951l8.915-1.756c0.4-0.652 0.813-1.284 1.281-1.884l-1.628-8.902 l5.96-3.87l7.556 5.072c0.727-0.173 1.446-0.289 2.19-0.387l5.185-7.497l6.95 1.478l1.767 9 c0.614 0.4 1.2 0.8 1.8 1.215l9-1.65l3.87 5.959l-5.127 7.638c0.167 0.7 0.3 1.4 0.4 2.066l7.573 5.2 L699.633 340.638z" class="tool-bg-cream"/></g></svg>