<svg xmlns="http://www.w3.org/2000/svg" xmlns:xlink="http://www.w3.org/1999/xlink" version="1.1" x="0px" y="0px" viewBox="0 0 570.3 369.1" enable-background="new 0 0 570.3 369.1" xml:space="preserve"><style>.artlandia-logo-style-0{fill:	#F5F2E5;}.artlandia-logo-style1{fill:	#FFC200;}</style><g><polygon points="559.5,320.4 566.9,311.2 509.5,311.2 509.5,329.7 566.9,329.7" class="artlandia-logo-style-0"/><polygon points="12.9,320.4 5.5,329.7 62.9,329.7 62.9,311.2 5.5,311.2" class="artlandia-logo-style-0"/><g><path d="M562.2 365.9c3.7 0 6-1.4 8.1-3.6l-1.5-1.5c-1.9 1.9-3.8 2.9-6.6 2.9c-4.5 0-7.9-3.7-7.9-8.4v-0.1 c0-4.7 3.4-8.3 7.9-8.3c2.8 0 4.7 1.2 6.4 2.8l1.6-1.7c-2-1.9-4.2-3.2-7.9-3.2c-6 0-10.3 4.8-10.3 10.5v0.1 C552 361.3 556.3 365.9 562.2 365.9 M546 359.8L546 359.8c0 2.3-1.9 3.7-5 3.7h-6.8v-7.2h6.4C544.1 356.3 546 357.6 546 359.8 M544.8 350.6c0 2.4-1.9 3.6-4.7 3.6h-6v-7h6.2C543.2 347.3 544.8 348.6 544.8 350.6L544.8 350.6z M531.9 365.6h9 c4.5 0 7.4-2.1 7.4-5.6v-0.1c0-2.8-1.9-4.2-4.4-4.9c1.6-0.7 3.2-2.1 3.2-4.7v-0.1c0-1.3-0.5-2.4-1.3-3.3c-1.2-1.1-3-1.8-5.3-1.8 h-8.7V365.6z M514.8 369.1c2.2-0.5 3.2-1.6 3.2-4v-2.6h-2.7v3.1h1c0.1 1.3-0.5 2-1.9 2.5L514.8 369.1z M497 358.1l4.7-10.4 l4.6 10.4H497z M491.3 365.6h2.4l2.4-5.4h11.1l2.4 5.4h2.5l-9.3-20.5h-2.2L491.3 365.6z M484.8 365.6h2.3v-20.4h-2.3V365.6z M465.9 355.6v-8.3h6.3c3.3 0 5.2 1.5 5.2 4v0.1c0 2.6-2.2 4.2-5.2 4.2H465.9z M463.6 365.6h2.3v-7.9h5.8l5.9 7.9h2.8l-6.3-8.3 c3.2-0.6 5.5-2.6 5.5-5.9v-0.1c0-1.6-0.6-3-1.6-4c-1.3-1.3-3.3-2-5.8-2h-8.8V365.6z M448.3 363.8c-4.7 0-8-3.8-8-8.4v-0.1 c0-4.6 3.3-8.3 8-8.3c4.7 0 8 3.8 8 8.4v0.1C456.3 360.1 453 363.8 448.3 363.8 M448.3 365.9c6.2 0 10.4-4.9 10.4-10.5v-0.1 c0-5.6-4.2-10.5-10.4-10.5c-6.2 0-10.4 4.9-10.4 10.5v0.1C437.9 361 442.1 365.9 448.3 365.9 M426.8 365.6h2.3v-18.2h6.8v-2.1h-16 v2.1h6.8V365.6z M409.2 365.9c3.7 0 6-1.4 8.1-3.6l-1.5-1.5c-1.9 1.9-3.8 2.9-6.6 2.9c-4.5 0-7.9-3.7-7.9-8.4v-0.1 c0-4.7 3.4-8.3 7.9-8.3c2.8 0 4.7 1.2 6.4 2.8l1.6-1.7c-2-1.9-4.2-3.2-7.9-3.2c-6 0-10.3 4.8-10.3 10.5v0.1 C399 361.3 403.3 365.9 409.2 365.9 M391.7 365.6h2.3v-20.4h-2.3V365.6z M376.6 365.7h2l8.8-20.5H385l-7.3 17.5l-7.2-17.5h-2.6 L376.6 365.7z M351.1 359.1c2.1 0 3.8-1.7 3.8-3.8v-0.1c0-2.1-1.8-3.8-3.8-3.8c-2 0-3.8 1.7-3.8 3.8v0.1 C347.3 357.4 349 359.1 351.1 359.1 M319.9 358.8l8.6-10.5v10.5H319.9z M328.5 365.6h2.2v-4.8h3.1v-1.9h-3.1V345h-2l-11.5 14 l0.6 1.7h10.7V365.6z M310.7 365.6h2.3V345h-1.7l-5 1.7l0.6 1.9l3.8-1.2V365.6z M295.3 363.8c-3.8 0-6.3-4-6.3-8.4v-0.1 c0-4.5 2.4-8.4 6.2-8.4c3.8 0 6.2 4 6.2 8.4v0.1C301.4 359.9 299.1 363.8 295.3 363.8 M295.2 365.9c5.2 0 8.6-4.8 8.6-10.5v-0.1 c0-5.7-3.3-10.5-8.6-10.5c-5.2 0-8.6 4.8-8.6 10.5v0.1C286.6 361.1 289.9 365.9 295.2 365.9 M268.8 365.6H283v-2.1h-10.8l5.4-4.8 c3.6-3.1 5.1-4.9 5.1-7.9v-0.1c0-3.3-2.6-5.8-6.3-5.8c-3.6 0-5.5 1.6-7.3 4.3l1.7 1.2c1.6-2.3 3.1-3.5 5.5-3.5 c2.2 0 4.1 1.5 4.1 3.9c0 2-1.1 3.6-4.2 6.4l-7.4 6.5V365.6z M253.2 369.1c2.2-0.5 3.2-1.6 3.2-4v-2.6h-2.7v3.1h1 c0.1 1.3-0.5 2-1.9 2.5L253.2 369.1z M236.1 358.8l8.6-10.5v10.5H236.1z M244.6 365.6h2.2v-4.8h3.1v-1.9h-3.1V345h-2l-11.5 14 l0.6 1.7h10.7V365.6z M226.8 365.6h2.3V345h-1.7l-5 1.7l0.6 1.9l3.8-1.2V365.6z M212.5 358h8.1v-2.4h-8.1V358z M205.4 365.6h2.3 V345H206l-5 1.7l0.6 1.9l3.8-1.2V365.6z M195 365.6h2.3V345h-1.7l-5 1.7l0.6 1.9l3.8-1.2V365.6z M165.2 355.6v-8.3h6.3 c3.3 0 5.2 1.5 5.2 4v0.1c0 2.6-2.2 4.2-5.2 4.2H165.2z M162.9 365.6h2.3v-7.9h5.8l5.9 7.9h2.8l-6.3-8.3c3.2-0.6 5.5-2.6 5.5-5.9 v-0.1c0-1.6-0.6-3-1.6-4c-1.3-1.3-3.3-2-5.8-2h-8.8V365.6z M143.4 365.6h14.9v-2.1h-12.6v-7.1h11.1v-2.1h-11.1v-7h12.4v-2.1h-14.7 V365.6z M136.6 359.8L136.6 359.8c0 2.3-1.9 3.7-5 3.7h-6.8v-7.2h6.4C134.7 356.3 136.6 357.6 136.6 359.8 M135.4 350.6 c0 2.4-1.9 3.6-4.7 3.6h-6v-7h6.2C133.8 347.3 135.4 348.6 135.4 350.6L135.4 350.6z M122.4 365.6h9c4.4 0 7.4-2.1 7.4-5.6v-0.1 c0-2.8-1.9-4.2-4.4-4.9c1.6-0.7 3.2-2.1 3.2-4.7v-0.1c0-1.3-0.5-2.4-1.3-3.3c-1.2-1.1-3-1.8-5.3-1.8h-8.7V365.6z M97.2 365.6h2.2 v-16.5l7.4 10.9h0.1l7.4-10.9v16.5h2.3v-20.4h-2.3l-7.4 11.1l-7.4-11.1h-2.3V365.6z M77.7 365.6h14.9v-2.1H80v-7.1h11.1v-2.1H80 v-7h12.4v-2.1H77.7V365.6z M64.2 365.6h2.3v-18.2h6.8v-2.1h-16v2.1h6.8V365.6z M41.7 356.3v-9h5.1c3.3 0 5.5 1.5 5.5 4.4v0.1 c0 2.7-2.2 4.5-5.6 4.5H41.7z M39.4 365.6h2.3v-7.2h4.9c4.3 0 8-2.3 8-6.7v-0.1c0-4-3-6.5-7.6-6.5h-7.6V365.6z M20 365.6h14.9 v-2.1H22.3v-7.1h11.1v-2.1H22.3v-7h12.4v-2.1H20V365.6z M8.3 365.8c4 0 7-2.3 7-5.8V360c0-3.1-2.1-4.8-6.6-5.8c-4.5-1-5.5-2-5.5-4 v-0.1c0-1.8 1.7-3.3 4.3-3.3c2.1 0 4 0.7 5.9 2.2l1.3-1.8c-2.1-1.7-4.2-2.5-7.2-2.5c-3.9 0-6.7 2.4-6.7 5.6v0.1 c0 3.3 2.2 4.9 6.8 5.9c4.3 0.9 5.3 2 5.3 3.9v0.1c0 2-1.8 3.5-4.5 3.5c-2.8 0-4.9-1-7-2.9L0 362.6C2.4 364.8 5.1 365.8 8.3 365.8 " class="artlandia-logo-style1"/><path d="M480.6 332.2h15.5v-4h-11.1v-4.3h9.6v-4h-9.6v-4.1H496v-4h-15.4V332.2z M464.5 332.2h4.5V316h6.2v-4.1 h-16.9v4.1h6.2V332.2z M443.6 323.7l2.7-6.6l2.7 6.6H443.6z M435.6 332.2h4.6l1.9-4.6h8.6l1.9 4.6h4.7l-8.7-20.5h-4.1L435.6 332.2 z M418.8 321.7v-5.8h4.5c2.2 0 3.5 1 3.5 2.9v0.1c0 1.7-1.3 2.9-3.4 2.9H418.8z M414.3 332.2h4.5v-6.5h3.5l4.4 6.5h5.2l-5-7.3 c2.6-1 4.4-3 4.4-6.3v-0.1c0-1.9-0.6-3.5-1.7-4.7c-1.3-1.3-3.3-2.1-5.9-2.1h-9.3V332.2z M397.5 328.4c-3.6 0-6.2-2.9-6.2-6.4V322 c0-3.5 2.5-6.3 6.1-6.3c3.6 0 6.2 2.9 6.2 6.4v0.1C403.6 325.6 401.1 328.4 397.5 328.4 M397.4 332.6c6.3 0 10.8-4.7 10.8-10.5 V322c0-5.8-4.5-10.5-10.8-10.5c-6.3 0-10.8 4.7-10.8 10.5v0.1C386.6 327.9 391.1 332.6 397.4 332.6 M377.4 326L377.4 326 c0 1.6-1.2 2.3-3.2 2.3h-5.3v-4.5h5.2C376.3 323.8 377.4 324.6 377.4 326 M376.2 317.9c0 1.5-1.3 2.2-3.2 2.2h-4.1v-4.3h4.4 C375.2 315.8 376.2 316.5 376.2 317.9L376.2 317.9z M364.5 332.2h9.7c4.6 0 7.6-1.9 7.6-5.6v-0.1c0-2.7-1.5-4.1-3.8-5 c1.5-0.8 2.7-2.1 2.7-4.4v-0.1c0-1.4-0.5-2.5-1.4-3.5c-1.2-1.2-3-1.8-5.3-1.8h-9.5V332.2z M345.8 323.7l2.7-6.6l2.7 6.6H345.8z M337.7 332.2h4.6l1.9-4.6h8.6l1.9 4.6h4.7l-8.7-20.5h-4.1L337.7 332.2z M319.5 332.2h14.6v-4.1h-10.2v-16.3h-4.5V332.2z M299.4 332.2H314v-4.1h-10.2v-16.3h-4.5V332.2z M282.6 328.4c-3.6 0-6.2-2.9-6.2-6.4V322c0-3.5 2.5-6.3 6.1-6.3 c3.6 0 6.2 2.9 6.2 6.4v0.1C288.7 325.6 286.2 328.4 282.6 328.4 M282.5 332.6c6.3 0 10.8-4.7 10.8-10.5V322 c0-5.8-4.5-10.5-10.8-10.5c-6.3 0-10.8 4.7-10.8 10.5v0.1C271.8 327.9 276.3 332.6 282.5 332.6 M259.3 332.6 c3.9 0 6.3-1.4 8.3-3.6l-2.9-2.9c-1.6 1.5-3 2.4-5.4 2.4c-3.5 0-5.9-2.9-5.9-6.4V322c0-3.5 2.5-6.3 5.9-6.3c2 0 3.6 0.9 5.2 2.3 l2.9-3.3c-1.9-1.9-4.2-3.1-8-3.1c-6.3 0-10.6 4.7-10.6 10.5v0.1C248.8 327.9 253.3 332.6 259.3 332.6 M223.1 329.2h4.1V324h5.3v-4 h-5.3v-5.2h-4.1v5.2h-5.3v4h5.3V329.2z M186 332.2h15.5v-4h-11.1v-4.3h9.6v-4h-9.6v-4.1h10.9v-4H186V332.2z M169.9 332.2h4.5V316 h6.2v-4.1h-16.9v4.1h6.2V332.2z M149 323.7l2.7-6.6l2.7 6.6H149z M141 332.2h4.6l1.9-4.6h8.6l1.9 4.6h4.7l-8.7-20.5h-4.1 L141 332.2z M121.2 332.2h15.5v-4h-11.1v-4.3h9.6v-4h-9.6v-4.1h10.9v-4h-15.4V332.2z M102.7 321.7v-5.8h4.5c2.2 0 3.5 1 3.5 2.9 v0.1c0 1.7-1.3 2.9-3.4 2.9H102.7z M98.2 332.2h4.5v-6.5h3.5l4.4 6.5h5.2l-5-7.3c2.6-1 4.4-3 4.4-6.3v-0.1c0-1.9-0.6-3.5-1.7-4.7 c-1.3-1.3-3.3-2.1-5.9-2.1h-9.3V332.2z M84.2 332.6c3.9 0 6.3-1.4 8.3-3.6l-2.9-2.9c-1.6 1.5-3 2.4-5.4 2.4 c-3.5 0-5.9-2.9-5.9-6.4V322c0-3.5 2.5-6.3 5.9-6.3c2 0 3.6 0.9 5.2 2.3l2.8-3.3c-1.9-1.9-4.2-3.1-8-3.1 c-6.3 0-10.6 4.7-10.6 10.5v0.1C73.8 327.9 78.2 332.6 84.2 332.6" class="artlandia-logo-style-0"/><path d="M542.9 259.5h-20.4c3.7-24 7.2-47.9 10.5-72.2C536.1 211.6 539.6 235.6 542.9 259.5 M563 295.1 l-20.8-140.9h-17.3l-22 140.9h14.4l3.5-23.6h23.9l3.5 23.6H563z M489 154.2h-14.8v140.9H489V154.2z M431.5 295.1 c16.7 0 25.3-8.2 25.3-24v-92.8c0-15.1-8.6-24.1-25.3-24.1h-24.9v140.9H431.5z M442 271.2c0 7.4-3.5 11.1-10.5 11.1h-10.1V167.4 h10.1c7 0 10.5 4.1 10.5 11.1V271.2z M388.7 295.1V154.2h-13v46.2c0 18.8 0 37.8 0.2 57l-24.5-103.2h-17.7v140.9h12.8v-40.4 c0-20.9 0-41.6-0.2-62.5l27.6 102.9H388.7z M300.1 259.5h-20.4c3.7-24 7.2-47.9 10.5-72.2C293.3 211.6 296.8 235.6 300.1 259.5 M320.2 295.1l-20.8-140.9H282l-22 140.9h14.4l3.5-23.6h23.9l3.5 23.6H320.2z M251.9 295.1v-12.8h-28.6V154.2h-14.8v140.9H251.9z M178.7 295.1v-125h16.7v-15.9h-51.4v15.9h16.7v125H178.7z M135 295.1c-3.5-21.7-7.2-44.3-11.9-66.6c7.2-3.6 10.5-9.8 10.5-20.4 v-28.6c0-18.5-9.5-25.3-28.2-25.3H80.5v140.9h18.1v-63.3h7.4c3.9 21.1 6.6 42.1 9.3 63.3H135z M115.3 208.3c0 6.2-2.9 9.1-9.7 9.1 h-7v-47.3h6.8c8.6 0 9.9 4.1 9.9 12.7V208.3z M28.5 258.8c3.1-21.1 5.8-42.5 8.2-64c2.3 21.6 5.1 43 7.8 64H28.5z M67.5 295.1 L47.8 154.2H27L6.2 295.1h17.5c1-7.2 1.9-14.4 3.1-21.7h19.6l2.9 21.7H67.5z" class="artlandia-logo-style-0"/><path d="M210.8 16.9l176.6 0l-0.1-16.8L203.9 0L94.6 65.4l0 0l110.2 65.5l183.5 0.1l-0.1-16.9H211.4l-3.7 9.5 l-57.9-34.9l-0.3-46.5l57.3-34.9l4 9.9L210.8 16.9z M211.1 60.4h176.7l-0.2-33.3H210.8l0-0.2l-6.5 16.8L211.1 60.4z M388.1 103.9 l-0.3-33.3H211l-6.5 16.5l6.9 16.9H388.1z M462.9 111.3L462.2 20c0 0-0.2-19.8-18.4-19.8l-45.6 0l1 130.9l45.6 0 C444.8 131.1 463 131.1 462.9 111.3" class="artlandia-logo-style-0"/></g></g></svg>