<svg xmlns="http://www.w3.org/2000/svg" xmlns:xlink="http://www.w3.org/1999/xlink" version="1.1" x="0px" y="0px" viewBox="0 0 537.7 424" enable-background="new 0 0 537.7 424" xml:space="preserve"><style>.riff-logo-style0{fill:	#F5F2E5;}.riff-logo-style1{fill:	#FE9900;}.riff-logo-style2{stroke:	#F5F2E5;stroke-width:	5.24;fill:	none;}</style><g><polygon points="527.5,378.5 534.5,369.8 480.3,369.8 480.3,387.2 534.5,387.2" class="riff-logo-style0"/><polygon points="12.2,378.5 5.2,387.2 59.3,387.2 59.3,369.8 5.2,369.8" class="riff-logo-style0"/><g><path d="M530 421c3.5 0 5.7-1.3 7.7-3.4l-1.4-1.4c-1.8 1.8-3.6 2.8-6.2 2.8c-4.2 0-7.4-3.5-7.4-7.9V411 c0-4.4 3.2-7.9 7.4-7.9c2.6 0 4.4 1.1 6 2.6l1.5-1.6c-1.9-1.8-4-3-7.5-3c-5.6 0-9.7 4.5-9.7 9.9v0.1 C520.4 416.6 524.5 421 530 421 M514.7 415.2L514.7 415.2c0 2.2-1.8 3.5-4.7 3.5h-6.4v-6.8h6.1C513 411.9 514.7 413.1 514.7 415.2 M513.6 406.6c0 2.2-1.8 3.4-4.4 3.4h-5.7v-6.6h5.8C512.1 403.4 513.6 404.6 513.6 406.6L513.6 406.6z M501.4 420.6h8.5 c4.2 0 7-1.9 7-5.2v-0.1c0-2.6-1.8-3.9-4.1-4.6c1.5-0.7 3-1.9 3-4.4v-0.1c0-1.2-0.4-2.2-1.2-3.1c-1.1-1.1-2.8-1.7-5-1.7h-8.2 V420.6z M485.4 424c2.1-0.5 3-1.5 3-3.8v-2.5h-2.5v2.9h1c0.1 1.2-0.5 1.9-1.8 2.4L485.4 424z M468.5 413.6l4.4-9.8l4.4 9.8H468.5z M463.2 420.6h2.2l2.3-5.1h10.4l2.2 5.1h2.3l-8.7-19.3h-2L463.2 420.6z M457 420.6h2.2v-19.2H457V420.6z M439.2 411.2v-7.8h5.9 c3.1 0 4.9 1.4 4.9 3.8v0.1c0 2.5-2.1 3.9-4.9 3.9H439.2z M437 420.6h2.2v-7.5h5.5l5.6 7.5h2.7l-5.9-7.8c3-0.5 5.2-2.4 5.2-5.6 v-0.1c0-1.5-0.5-2.9-1.5-3.8c-1.2-1.2-3.1-1.9-5.5-1.9H437V420.6z M422.7 419c-4.4 0-7.6-3.6-7.6-7.9V411c0-4.4 3.1-7.9 7.5-7.9 c4.4 0 7.6 3.6 7.6 7.9v0.1C430.2 415.5 427.1 419 422.7 419 M422.6 421c5.8 0 9.8-4.6 9.8-9.9V411c0-5.3-3.9-9.9-9.8-9.9 c-5.8 0-9.8 4.6-9.8 9.9v0.1C412.9 416.4 416.8 421 422.6 421 M402.3 420.6h2.2v-17.2h6.4v-2h-15.1v2h6.4V420.6z M385.8 421 c3.5 0 5.7-1.3 7.7-3.4l-1.4-1.4c-1.8 1.8-3.6 2.8-6.2 2.8c-4.2 0-7.4-3.5-7.4-7.9V411c0-4.4 3.2-7.9 7.4-7.9c2.6 0 4.4 1.1 6 2.6 l1.5-1.6c-1.9-1.8-4-3-7.5-3c-5.6 0-9.7 4.5-9.7 9.9v0.1C376.2 416.6 380.3 421 385.8 421 M369.2 420.6h2.2v-19.2h-2.2V420.6z M355.1 420.8h1.9l8.3-19.3h-2.3l-6.9 16.5l-6.8-16.5h-2.4L355.1 420.8z M331 414.6c2 0 3.6-1.6 3.6-3.6V411c0-2-1.7-3.6-3.6-3.6 c-1.9 0-3.6 1.6-3.6 3.6v0.1C327.4 413 329 414.6 331 414.6 M301.6 414.3l8.1-9.9v9.9H301.6z M309.6 420.6h2.1v-4.6h3v-1.8h-3v-13 h-1.9L299 414.5l0.5 1.6h10.1V420.6z M292.9 420.6h2.1v-19.3h-1.6l-4.7 1.6l0.5 1.8l3.6-1.1V420.6z M278.4 419 c-3.6 0-5.9-3.8-5.9-8V411c0-4.2 2.2-7.9 5.8-7.9c3.6 0 5.9 3.8 5.9 8v0.1C284.2 415.3 282 419 278.4 419 M278.3 421 c4.9 0 8.1-4.6 8.1-9.9V411c0-5.4-3.1-9.9-8.1-9.9c-4.9 0-8.1 4.6-8.1 9.9v0.1C270.2 416.5 273.3 421 278.3 421 M253.4 420.6h13.4 v-2h-10.2l5.1-4.6c3.4-2.9 4.9-4.7 4.9-7.5v-0.1c0-3.1-2.5-5.4-5.9-5.4c-3.4 0-5.2 1.5-6.9 4.1l1.6 1.2c1.5-2.1 3-3.3 5.2-3.3 c2.1 0 3.9 1.4 3.9 3.7c0 1.9-1.1 3.4-4 6l-7 6.1V420.6z M238.7 424c2.1-0.5 3-1.5 3-3.8v-2.5h-2.5v2.9h1c0.1 1.2-0.5 1.9-1.8 2.4 L238.7 424z M222.5 414.3l8.1-9.9v9.9H222.5z M230.6 420.6h2.1v-4.6h3v-1.8h-3v-13h-1.9l-10.9 13.2l0.5 1.6h10.1V420.6z M213.8 420.6h2.1v-19.3h-1.6l-4.7 1.6l0.5 1.8l3.6-1.1V420.6z M200.4 413.5h7.6v-2.2h-7.6V413.5z M193.7 420.6h2.1v-19.3h-1.6 l-4.7 1.6l0.5 1.8l3.6-1.1V420.6z M183.8 420.6h2.1v-19.3h-1.6l-4.7 1.6l0.5 1.8l3.6-1.1V420.6z M155.8 411.2v-7.8h5.9 c3.1 0 4.9 1.4 4.9 3.8v0.1c0 2.5-2.1 3.9-4.9 3.9H155.8z M153.6 420.6h2.2v-7.5h5.5l5.6 7.5h2.7l-5.9-7.8c3-0.5 5.2-2.4 5.2-5.6 v-0.1c0-1.5-0.5-2.9-1.5-3.8c-1.2-1.2-3.1-1.9-5.5-1.9h-8.3V420.6z M135.2 420.6h14v-2h-11.8V412h10.5v-2h-10.5v-6.6h11.7v-2 h-13.9V420.6z M128.7 415.2L128.7 415.2c0 2.2-1.8 3.5-4.7 3.5h-6.4v-6.8h6.1C127 411.9 128.7 413.1 128.7 415.2 M127.7 406.6 c0 2.2-1.8 3.4-4.4 3.4h-5.7v-6.6h5.8C126.2 403.4 127.7 404.6 127.7 406.6L127.7 406.6z M115.4 420.6h8.5c4.2 0 7-1.9 7-5.2v-0.1 c0-2.6-1.8-3.9-4.1-4.6c1.5-0.7 3-1.9 3-4.4v-0.1c0-1.2-0.4-2.2-1.2-3.1c-1.1-1.1-2.8-1.7-5-1.7h-8.2V420.6z M91.6 420.6h2.1 v-15.5l7 10.3h0.1l7-10.3v15.5h2.2v-19.2h-2.2l-7 10.5l-7-10.5h-2.2V420.6z M73.3 420.6h14v-2H75.4V412h10.5v-2H75.4v-6.6h11.7v-2 H73.3V420.6z M60.6 420.6h2.2v-17.2h6.4v-2H54.1v2h6.4V420.6z M39.3 411.9v-8.4h4.9c3.1 0 5.2 1.4 5.2 4.2v0.1 c0 2.5-2.1 4.2-5.3 4.2H39.3z M37.2 420.6h2.2v-6.8H44c4.1 0 7.5-2.1 7.5-6.3v-0.1c0-3.8-2.9-6.1-7.2-6.1h-7.2V420.6z M18.8 420.6 h14v-2H21V412h10.5v-2H21v-6.6h11.7v-2H18.8V420.6z M7.8 420.9c3.8 0 6.6-2.1 6.6-5.4v-0.1c0-2.9-2-4.5-6.3-5.4 c-4.2-0.9-5.2-1.9-5.2-3.7v-0.1c0-1.7 1.6-3.1 4.1-3.1c2 0 3.8 0.6 5.5 2.1l1.3-1.7c-1.9-1.6-3.9-2.4-6.7-2.4 c-3.6 0-6.3 2.2-6.3 5.2v0.1c0 3.2 2 4.6 6.4 5.5c4 0.9 5 1.9 5 3.6v0.1c0 1.9-1.7 3.3-4.3 3.3c-2.7 0-4.6-0.9-6.6-2.7L0 417.8 C2.3 419.9 4.8 420.9 7.8 420.9" class="riff-logo-style1"/><path d="M454.5 389.2h14.6v-3.8h-10.4v-4h9v-3.8h-9v-3.9H469V370h-14.5V389.2z M439.6 389.2h4.2v-15.3h5.8V370 h-15.9v3.9h5.8V389.2z M420.2 381.2l2.6-6.2l2.5 6.2H420.2z M412.6 389.2h4.3l1.8-4.3h8.1l1.8 4.3h4.4l-8.2-19.3h-3.9L412.6 389.2 z M397 379.3v-5.5h4.2c2.1 0 3.3 0.9 3.3 2.7v0.1c0 1.6-1.2 2.7-3.2 2.7H397z M392.8 389.2h4.2v-6.1h3.3l4.1 6.1h4.9l-4.7-6.9 c2.4-0.9 4.1-2.9 4.1-6v-0.1c0-1.8-0.6-3.3-1.6-4.4c-1.3-1.3-3.2-1.9-5.6-1.9h-8.8V389.2z M372.8 389.2h14.6v-3.8H377v-4h9v-3.8 h-9v-3.9h10.3V370h-14.5V389.2z M354.2 389.2H368v-3.8h-9.6V370h-4.2V389.2z M334.1 389.2h14.6v-3.8h-10.4v-4h9v-3.8h-9v-3.9h10.3 V370h-14.5V389.2z M321.3 389.5c3.7 0 5.9-1.3 7.9-3.4l-2.7-2.7c-1.5 1.4-2.9 2.2-5 2.2c-3.3 0-5.6-2.7-5.6-6v-0.1 c0-3.3 2.3-6 5.6-6c1.9 0 3.4 0.8 4.9 2.2l2.7-3.1c-1.8-1.8-3.9-3-7.6-3c-5.9 0-10 4.5-10 9.9v0.1 C311.4 385.2 315.6 389.5 321.3 389.5 M299.9 389.5c3.7 0 5.9-1.3 7.9-3.4l-2.7-2.7c-1.5 1.4-2.9 2.2-5 2.2c-3.3 0-5.6-2.7-5.6-6 v-0.1c0-3.3 2.3-6 5.6-6c1.9 0 3.4 0.8 4.9 2.2l2.7-3.1c-1.8-1.8-3.9-3-7.6-3c-5.9 0-10 4.5-10 9.9v0.1 C290.1 385.2 294.3 389.5 299.9 389.5 M274.8 381.2l2.6-6.2l2.5 6.2H274.8z M267.2 389.2h4.3l1.8-4.3h8.1l1.8 4.3h4.4l-8.2-19.3 h-3.9L267.2 389.2z M239.5 385H253v-3.8h-13.5V385z M239.5 377.9H253v-3.8h-13.5V377.9z M209.9 389.2h14.6v-3.8h-10.4v-4h9v-3.8 h-9v-3.9h10.3V370h-14.5V389.2z M195 389.2h4.2v-15.3h5.8V370h-15.9v3.9h5.8V389.2z M175.6 381.2l2.6-6.2l2.6 6.2H175.6z M168 389.2h4.3l1.8-4.3h8.1l1.8 4.3h4.4l-8.2-19.3h-3.9L168 389.2z M156.3 389.3h3.7l7.8-19.3h-4.6l-5 13.5l-5-13.5h-4.7 L156.3 389.3z M135.8 385.6c-3.4 0-5.8-2.7-5.8-6v-0.1c0-3.3 2.4-6 5.8-6s5.8 2.7 5.8 6v0.1C141.6 382.9 139.2 385.6 135.8 385.6 M135.8 389.5c5.9 0 10.2-4.5 10.2-9.9v-0.1c0-5.5-4.2-9.9-10.2-9.9c-5.9 0-10.2 4.5-10.2 9.9v0.1 C125.6 385.1 129.9 389.5 135.8 389.5 M103.2 389.2h4.2V377l9.3 12.2h3.6V370h-4.2v11.8l-9-11.8h-3.9V389.2z M79.9 389.2H84V377 l9.3 12.2h3.6V370h-4.2v11.8l-9-11.8h-3.9V389.2z M69.2 389.2h4.2V370h-4.2V389.2z" class="riff-logo-style0"/><path d="M517 322.6h-18.2c3.3-21.3 6.4-42.6 9.3-64.2C511 280 514.1 301.3 517 322.6 M534.9 354.3L516.4 229H501 l-19.5 125.2h12.8l3.1-21h21.3l3.1 21H534.9z M474.3 229h-13.1v125.2h13.1V229z M428.3 354.3c14.9 0 22.5-7.3 22.5-21.3v-82.5 c0-13.4-7.6-21.5-22.5-21.5h-22.1v125.2H428.3z M437.7 333c0 6.5-3.1 9.9-9.3 9.9h-9V240.7h9c6.2 0 9.3 3.7 9.3 9.9V333z M395.5 354.3V229h-11.6v41.1c0 16.7 0 33.6 0.2 50.7L362.3 229h-15.7v125.2H358v-35.9c0-18.6 0-37-0.2-55.5l24.6 91.5H395.5z M322 322.6h-18.2c3.3-21.3 6.4-42.6 9.3-64.2C315.9 280 319 301.3 322 322.6 M339.8 354.3L321.3 229h-15.4l-19.5 125.2h12.8 l3.1-21h21.3l3.1 21H339.8z M284.3 354.3v-11.4h-25.4V229h-13.1v125.2H284.3z M237.9 354.3v-14h-23.3v-42.8h15v-14.2h-15v-40.2 h22.5V229h-38.4v125.2H237.9z M193.7 354.3l-24.6-68.8L192 229h-17.1c-6.7 17.7-13.1 35.3-19.5 53.3c0.3-7.6 0.3-15.1 0.3-27.4 V229h-16.1v125.2h16.1v-26.3c0-13.5 0-24.2-0.3-34.2c6.6 19.9 13 40 20.1 60.6H193.7z M98.6 322c2.8-18.7 5.2-37.7 7.3-56.9 c2.1 19.2 4.5 38.2 6.9 56.9H98.6z M133.2 354.3L115.7 229H97.2L78.7 354.3h15.6c0.9-6.4 1.7-12.8 2.8-19.3h17.5l2.6 19.3H133.2z M72.8 354.3V229H51c-6.7 56.5-9.7 74.7-12.1 92.5c-2.4-17.8-5.2-35.9-11.9-92.5H5.7v125.2h14.7v-36.5c0-16.3-0.3-32.7-0.7-49 l12.5 85.5H46c6.4-44.3 9.7-65 12.8-85.5c-0.5 16.3-0.7 32.6-0.7 49v36.5H72.8z" class="riff-logo-style0"/><path d="M225.5 110.9c0 53.8 20.5 108.2 45.9 108.2s45.9-54.4 45.9-108.2 S296.7 2.6 271.4 2.6S225.5 57.1 225.5 110.9z" class="riff-logo-style2"/><path d="M248.4 71.1C201.8 98 165 143 177.6 165s70.1 12.5 116.7-14.4 s83.5-71.9 70.8-93.9C352.4 34.8 295 44.2 248.4 71.1z" class="riff-logo-style2"/><path d="M294.3 71.1c-46.6-26.9-104-36.3-116.7-14.4 c-12.7 22 24.2 67 70.8 93.9s104 36.3 116.7 14.4C377.8 143 340.9 98 294.3 71.1z" class="riff-logo-style2"/><path d="M301.1 159c0 5.5 4.4 9.9 9.9 9.9c5.5 0 9.9-4.4 9.9-9.9c0-5.5-4.4-9.9-9.9-9.9 C305.6 149 301.1 153.5 301.1 159" class="riff-logo-style0"/><path d="M200.1 98.8c0 5.5 4.4 9.9 9.9 9.9c5.5 0 9.9-4.4 9.9-9.9c0-5.5-4.4-9.9-9.9-9.9 C204.6 88.9 200.1 93.4 200.1 98.8" class="riff-logo-style0"/><path d="M285.2 71.5c0 5.5 4.4 9.9 9.9 9.9c5.5 0 9.9-4.4 9.9-9.9c0-5.5-4.4-9.9-9.9-9.9 C289.7 61.5 285.2 66 285.2 71.5" class="riff-logo-style0"/><path d="M243.5 110.9c0 15.4 12.5 27.9 27.9 27.9s27.9-12.5 27.9-27.9c0-15.4-12.5-27.9-27.9-27.9 S243.5 95.5 243.5 110.9" class="riff-logo-style0"/></g></g></svg>