<svg xmlns="http://www.w3.org/2000/svg" xmlns:xlink="http://www.w3.org/1999/xlink" version="1.1" x="0px" y="0px" viewBox="0 0 503.8 512.4" enable-background="new 0 0 503.8 512.4" xml:space="preserve"><style>.thinklandia-yellow{fill:	#FFC200;}.thinklandia-white{fill:	#F5F2E5;}</style><g><path d="M486.7 509.7c3.1 0 5.1-1.2 6.9-3l-1.3-1.3c-1.7 1.6-3.2 2.5-5.6 2.5c-3.8 0-6.7-3.1-6.7-7.1v-0.1 c0-4 2.9-7.1 6.7-7.1c2.3 0 4 1 5.4 2.4l1.3-1.4c-1.7-1.6-3.6-2.7-6.7-2.7c-5.1 0-8.7 4.1-8.7 8.9v0 C478.1 505.7 481.7 509.7 486.7 509.7 M473 504.5L473 504.5c0 2-1.6 3.1-4.2 3.1h-5.8v-6.1h5.5C471.4 501.5 473 502.6 473 504.5 M472 496.7c0 2-1.6 3.1-4 3.1h-5.1v-6h5.3C470.7 493.8 472 494.9 472 496.7L472 496.7z M461 509.4h7.7c3.8 0 6.3-1.8 6.3-4.7v0 c0-2.4-1.7-3.6-3.7-4.2c1.4-0.6 2.7-1.8 2.7-4v-0.1c0-1.1-0.4-2-1.1-2.8c-1-1-2.5-1.5-4.5-1.5H461V509.4z M446.5 512.4 c1.9-0.4 2.7-1.4 2.7-3.4v-2.2H447v2.6h0.9c0.1 1.1-0.4 1.7-1.7 2.1L446.5 512.4z M431.4 503l4-8.8l3.9 8.8H431.4z M426.5 509.4h2 l2.1-4.6h9.4l2 4.6h2.1l-7.9-17.4h-1.8L426.5 509.4z M421 509.4h2v-17.3h-2V509.4z M404.9 500.9v-7h5.3c2.8 0 4.4 1.3 4.4 3.4v0.1 c0 2.2-1.9 3.6-4.4 3.6H404.9z M403 509.4h2v-6.7h4.9l5 6.7h2.4l-5.3-7.1c2.7-0.5 4.7-2.2 4.7-5v0c0-1.4-0.5-2.6-1.3-3.4 c-1.1-1.1-2.8-1.7-4.9-1.7H403V509.4z M390.1 507.9c-4 0-6.8-3.2-6.8-7.1v-0.1c0-3.9 2.8-7.1 6.8-7.1c4 0 6.8 3.2 6.8 7.1v0 C396.8 504.7 394 507.9 390.1 507.9 M390 509.7c5.3 0 8.8-4.2 8.8-8.9v-0.1c0-4.8-3.5-8.9-8.8-8.9c-5.3 0-8.8 4.2-8.8 8.9v0 C381.2 505.5 384.7 509.7 390 509.7 M371.7 509.4h2v-15.5h5.8v-1.8h-13.6v1.8h5.8V509.4z M356.8 509.7c3.1 0 5.1-1.2 6.9-3 l-1.3-1.3c-1.7 1.6-3.2 2.5-5.6 2.5c-3.8 0-6.7-3.1-6.7-7.1v-0.1c0-4 2.9-7.1 6.7-7.1c2.3 0 4 1 5.4 2.4l1.3-1.4 c-1.7-1.6-3.6-2.7-6.7-2.7c-5.1 0-8.7 4.1-8.7 8.9v0C348.2 505.7 351.8 509.7 356.8 509.7 M341.9 509.4h2v-17.3h-2V509.4z M329.2 509.5h1.7l7.4-17.4h-2.1l-6.2 14.9l-6.1-14.9h-2.2L329.2 509.5z M307.5 503.9c1.8 0 3.2-1.4 3.2-3.2v0 c0-1.8-1.5-3.2-3.2-3.2c-1.7 0-3.2 1.4-3.2 3.2v0C304.2 502.5 305.7 503.9 307.5 503.9 M281 503.6l7.3-8.9v8.9H281z M288.2 509.4 h1.9v-4.1h2.7v-1.6h-2.7V492h-1.7l-9.8 11.9l0.5 1.4h9.1V509.4z M273.1 509.4h1.9V492h-1.4l-4.2 1.5l0.5 1.6l3.3-1V509.4z M260.1 507.9c-3.2 0-5.3-3.4-5.3-7.2v-0.1c0-3.8 2-7.1 5.3-7.1c3.2 0 5.3 3.4 5.3 7.2v0C265.3 504.5 263.3 507.9 260.1 507.9 M260 509.7c4.4 0 7.3-4.1 7.3-8.9v-0.1c0-4.8-2.8-8.9-7.3-8.9c-4.4 0-7.3 4.1-7.3 8.9v0C252.7 505.6 255.5 509.7 260 509.7 M237.6 509.4h12.1v-1.8h-9.2l4.6-4.1c3-2.6 4.4-4.2 4.4-6.7v0c0-2.8-2.2-4.9-5.4-4.9c-3 0-4.7 1.4-6.2 3.7l1.4 1 c1.4-1.9 2.7-3 4.6-3c1.9 0 3.5 1.3 3.5 3.3c0 1.7-1 3.1-3.6 5.4l-6.3 5.5V509.4z M224.4 512.4c1.9-0.4 2.7-1.4 2.7-3.4v-2.2h-2.3 v2.6h0.9c0.1 1.1-0.4 1.7-1.7 2.1L224.4 512.4z M209.8 503.6l7.3-8.9v8.9H209.8z M217 509.4h1.9v-4.1h2.7v-1.6h-2.7V492h-1.7 l-9.8 11.9l0.5 1.4h9.1V509.4z M201.9 509.4h1.9V492h-1.4l-4.2 1.5l0.5 1.6l3.3-1V509.4z M189.8 502.9h6.9v-2h-6.9V502.9z M183.8 509.4h1.9V492h-1.4l-4.2 1.5l0.5 1.6l3.3-1V509.4z M174.9 509.4h1.9V492h-1.4l-4.2 1.5l0.5 1.6l3.3-1V509.4z M149.6 500.9 v-7h5.3c2.8 0 4.4 1.3 4.4 3.4v0.1c0 2.2-1.9 3.6-4.4 3.6H149.6z M147.7 509.4h2v-6.7h4.9l5 6.7h2.4l-5.3-7.1 c2.7-0.5 4.7-2.2 4.7-5v0c0-1.4-0.5-2.6-1.3-3.4c-1.1-1.1-2.8-1.7-4.9-1.7h-7.4V509.4z M131.1 509.4h12.6v-1.8h-10.7v-6.1h9.4v-1.8 h-9.4v-5.9h10.5v-1.8h-12.5V509.4z M125.3 504.5L125.3 504.5c0 2-1.6 3.1-4.2 3.1h-5.8v-6.1h5.5 C123.7 501.5 125.3 502.6 125.3 504.5 M124.3 496.7c0 2-1.6 3.1-4 3.1h-5.1v-6h5.3C122.9 493.8 124.3 494.9 124.3 496.7 L124.3 496.7z M113.3 509.4h7.7c3.8 0 6.3-1.8 6.3-4.7v0c0-2.4-1.7-3.6-3.7-4.2c1.4-0.6 2.7-1.8 2.7-4v-0.1c0-1.1-0.4-2-1.1-2.8 c-1-1-2.5-1.5-4.5-1.5h-7.4V509.4z M91.8 509.4h1.9v-14l6.3 9.2h0.1l6.3-9.3v14h2v-17.3h-2l-6.3 9.4l-6.3-9.4h-2V509.4z M75.3 509.4h12.6v-1.8H77.2v-6.1h9.4v-1.8h-9.4v-5.9h10.5v-1.8H75.3V509.4z M63.9 509.4h2v-15.5h5.8v-1.8H58.1v1.8h5.8V509.4z M44.7 501.5v-7.6h4.4c2.8 0 4.6 1.3 4.6 3.8v0c0 2.3-1.9 3.8-4.7 3.8H44.7z M42.8 509.4h2v-6.1h4.2c3.7 0 6.8-1.9 6.8-5.7v0 c0-3.4-2.6-5.5-6.5-5.5h-6.5V509.4z M26.2 509.4h12.6v-1.8H28.2v-6.1h9.4v-1.8h-9.4v-5.9h10.5v-1.8H26.2V509.4z M16.4 509.6 c3.4 0 5.9-1.9 5.9-4.9v0c0-2.6-1.8-4.1-5.6-4.9c-3.8-0.8-4.7-1.7-4.7-3.4v-0.1c0-1.6 1.4-2.8 3.7-2.8c1.8 0 3.4 0.6 5 1.9l1.1-1.5 c-1.8-1.4-3.6-2.1-6.1-2.1c-3.3 0-5.7 2-5.7 4.7v0.1c0 2.8 1.8 4.1 5.8 5c3.6 0.8 4.5 1.7 4.5 3.3v0c0 1.7-1.5 2.9-3.9 2.9 c-2.4 0-4.1-0.8-5.9-2.4l-1.2 1.4C11.4 508.7 13.6 509.6 16.4 509.6" class="thinklandia-yellow"/><path d="M419.4 481h13.2v-3.4h-9.4V474h8.2v-3.4h-8.2v-3.5h9.3v-3.4h-13V481z M406.1 481h3.8v-13.8h5.3v-3.5h-14.3 v3.5h5.3V481z M388.9 473.8l2.3-5.6l2.3 5.6H388.9z M382.1 481h3.9l1.6-3.9h7.3l1.6 3.9h4l-7.4-17.4h-3.5L382.1 481z M367.1 481 h12.4v-3.5h-8.6v-13.8h-3.8V481z M353.1 472.5v-5.3h2.9c1.9 0 3.1 0.9 3.1 2.6v0c0 1.5-1.1 2.6-3 2.6H353.1z M349.3 481h3.8v-5.2 h2.9c3.9 0 7-2.1 7-6.1v0c0-3.5-2.5-6-6.6-6h-7.1V481z M326.7 481h3.7v-11.2l4.8 7.3h0.1l4.9-7.4V481h3.8v-17.3h-4.1l-4.5 7.3 l-4.5-7.3h-4.1V481z M308.9 481H322v-3.4h-9.4V474h8.2v-3.4h-8.2v-3.5h9.3v-3.4h-13V481z M295.7 481h3.8v-13.8h5.3v-3.5h-14.3v3.5 h5.3V481z M270.9 481h3.8v-11l8.4 11h3.2v-17.3h-3.8v10.6l-8.1-10.6h-3.5V481z M257.1 477.8c-3.1 0-5.2-2.5-5.2-5.4v-0.1 c0-3 2.1-5.4 5.2-5.4c3.1 0 5.2 2.5 5.2 5.4v0C262.3 475.4 260.2 477.8 257.1 477.8 M257 481.3c5.3 0 9.2-4 9.2-8.9v-0.1 c0-4.9-3.8-8.9-9.2-8.9c-5.3 0-9.2 4-9.2 8.9v0C247.9 477.4 251.7 481.3 257 481.3 M237.8 481.3c3.3 0 5.3-1.2 7.1-3.1l-2.4-2.4 c-1.4 1.2-2.6 2-4.5 2c-3 0-5-2.5-5-5.4v-0.1c0-3 2.1-5.4 5-5.4c1.7 0 3.1 0.7 4.4 2l2.4-2.8c-1.6-1.6-3.6-2.7-6.8-2.7 c-5.3 0-9 4-9 8.9v0C228.9 477.4 232.7 481.3 237.8 481.3 M216.7 478.5h3.5v-4.4h4.5v-3.4h-4.5v-4.4h-3.5v4.4h-4.5v3.4h4.5V478.5z M194.8 481H208v-3.4h-9.4V474h8.2v-3.4h-8.2v-3.5h9.3v-3.4h-13V481z M181.6 481h3.8v-13.8h5.3v-3.5h-14.3v3.5h5.3V481z M164.4 473.8l2.3-5.6l2.3 5.6H164.4z M157.6 481h3.9l1.6-3.9h7.3l1.6 3.9h4l-7.4-17.4H165L157.6 481z M147.3 481.2h3.4l7-17.4 h-4.1l-4.5 12.2l-4.5-12.2h-4.2L147.3 481.2z M132.4 481h3.8v-17.3h-3.8V481z M119 481h3.8v-13.8h5.3v-3.5h-14.3v3.5h5.3V481z M102 477.8c-3.1 0-5.2-2.5-5.2-5.4v-0.1c0-3 2.1-5.4 5.2-5.4s5.2 2.5 5.2 5.4v0C107.2 475.4 105 477.8 102 477.8 M101.9 481.3 c5.3 0 9.2-4 9.2-8.9v-0.1c0-4.9-3.8-8.9-9.2-8.9c-5.3 0-9.2 4-9.2 8.9v0C92.8 477.4 96.6 481.3 101.9 481.3 M70.8 481h3.7v-11.2 l4.8 7.3h0.1l4.9-7.4V481h3.8v-17.3H84l-4.5 7.3l-4.5-7.3h-4.1V481z" class="thinklandia-white"/><path d="M473.1 422.8h-15.4c2.8-18 5.4-36.1 7.9-54.3C468 386.7 470.6 404.8 473.1 422.8 M488.2 449.6l-15.7-106 h-13l-16.5 106h10.8l2.6-17.8h18l2.6 17.8H488.2z M435.5 343.6h-11.1v106h11.1V343.6z M395.1 449.6c12.6 0 19-6.2 19-18v-69.8 c0-11.3-6.4-18.2-19-18.2h-18.7v106H395.1z M403 431.5c0 5.5-2.6 8.4-7.9 8.4h-7.6v-86.4h7.6c5.3 0 7.9 3.1 7.9 8.4V431.5z M365.8 449.6v-106H356v34.8c0 14.2 0 28.5 0.1 42.9l-18.4-77.7h-13.3v106h9.7v-30.4c0-15.7 0-31.3-0.1-47l20.8 77.4H365.8z M302.2 422.8h-15.4c2.8-18 5.4-36.1 7.9-54.3C297 386.7 299.7 404.8 302.2 422.8 M317.2 449.6l-15.7-106h-13l-16.5 106h10.8 l2.6-17.8h18l2.6 17.8H317.2z M268.8 449.6v-9.7h-21.5v-96.3h-11.1v106H268.8z M230.3 449.6l-20.8-58.2l19.3-47.8h-14.5 c-5.7 14.9-11.1 29.9-16.5 45.1c0.3-6.4 0.3-12.7 0.3-23.2v-21.9h-13.6v106h13.6v-22.3c0-11.5 0-20.5-0.3-29 c5.6 16.9 11 33.9 17 51.3H230.3z M174.4 449.6v-106h-11.6v36.1c0 11.8 0 23.8 0.3 35.9c-3.7-16.5-7.2-32.7-15.1-72h-15.8v106h11.6 v-27.4c0-14.6 0-29.1-0.3-43.7c4.1 17.3 8.6 34.5 17.7 71.1H174.4z M121.9 343.6h-13.5v106h13.5V343.6z M97.6 449.6v-106H84.1v46.1 H72.7v-46.1H59.2v106h13.5v-48h11.4v48H97.6z M39.9 449.6v-94h12.6v-12H13.9v12h12.6v94H39.9z" class="thinklandia-white"/></g><g><rect x="176.3" y="41.5" transform="matrix(0.1512 0.9885 -0.9885 0.1512 220.8585 -167.4228)" width="63.2" height="6.8" class="thinklandia-white"/></g><g><rect x="51.6" y="271.6" transform="matrix(0.154 0.9881 -0.9881 0.154 349.9839 205.4941)" width="6.8" height="71" class="thinklandia-white"/></g><g><g><rect x="0" y="225.7" transform="matrix(0.9999 1.070062e-02 -1.070062e-02 0.9999 2.4536 -0.4099)" width="79" height="6.8" class="thinklandia-white"/></g></g><g><rect x="39.5" y="138.2" transform="matrix(0.8865 0.4628 -0.4628 0.8865 74.2704 -19.5814)" width="75" height="6.8" class="thinklandia-white"/></g><g><rect x="87.9" y="61.6" transform="matrix(0.543 0.8397 -0.8397 0.543 110.0862 -72.3189)" width="67.3" height="6.8" class="thinklandia-white"/></g><g><g><rect x="311.7" y="-0.2" transform="matrix(0.9721 0.2347 -0.2347 0.9721 17.4037 -72.955)" width="6.8" height="73.7" class="thinklandia-white"/></g></g><g><rect x="408.2" y="50.6" transform="matrix(0.6914 0.7225 -0.7225 0.6914 189.6626 -270.6009)" width="6.8" height="72.3" class="thinklandia-white"/></g><g><g><rect x="454.7" y="140.9" transform="matrix(0.1999 0.9798 -0.9798 0.1999 549.5478 -299.4165)" width="6.8" height="91.9" class="thinklandia-white"/></g><g><rect x="413.3" y="288.1" transform="matrix(0.9882 0.1531 -0.1531 0.9882 49.9851 -65.9326)" width="79.4" height="6.8" class="thinklandia-white"/></g><path d="M31.4 316l43.8-31.3l5.3 16l83.1-55.9c0 0-10 3.3-17.1-2.3c-7.1-5.6-7.9-12.7-7.9-12.7l-47.2 43.6l-6.6-20 L31.4 316z" class="thinklandia-yellow"/><path d="M334.8 303.3c0.6 0 1.2 0 1.8 0c23.3 0 42.1-18.9 42.1-42.1c0-1.5-0.1-3.1-0.2-4.5 c-4.6 4.4-9.9 8.4-16 11.5c-9.2 4.7-19.6 7.1-30.1 7.1h-0.1h-0.1l-0.2 0v0c-0.7 0-1.4 0-2.1-0.1c-4.2 10.5-10.9 19.6-19.4 26.7 c-5.5 4.5-11.7 8.2-18.5 10.8c0.6 0.3 1.3 0.5 2 0.8c4.1 1.5 8.4 2.4 13 2.4c4.6 0 9-0.9 13.1-2.4 C325.8 311.4 330.9 307.8 334.8 303.3" class="thinklandia-white"/><path d="M261.8 153.7c0.5-0.8 1.1-1.5 1.7-2.2c-1.6-1.1-3.4-2.1-5.4-2.9c-5.1-2.2-11.1-3.4-17.1-3.4 c-6.5 0-13 1.4-18.6 4.3c-5.6 2.9-10.2 7.1-13.4 13.1l-2.1 3.9l-4.4-0.5c-1.5-0.2-2.9-0.3-4.2-0.3c-4 0-7.4 0.7-10.4 1.9 c-3 1.2-5.5 2.9-7.8 5c-4.5 4.2-7.7 10.2-9.5 16.2c-1.2 4-1.7 8-1.7 11.4c0 0.3 0 0.5 0 0.8c6.7 0.7 13.1 2.7 18.9 5.9 c6.7 3.7 12.5 9.1 16.3 15.8c1.2-2.1 2.6-4.1 4.1-5.9c5.8-6.7 13.2-10.7 20.4-12.8c4.8-1.4 9.4-2 13.6-2c1 0 1.9 0 2.8 0.1 c0.8-1.9 1.7-3.6 2.8-5.3c2.1-3.2 4.7-6.1 7.8-8.5c-0.4-3.3-0.7-6.4-0.7-9.4C254.8 168.7 257.3 160.2 261.8 153.7" class="thinklandia-white"/><path d="M156.9 285.8c5.9 0 11.5-1 16.8-2.7c0.1-4.6 0.6-10.3 2.5-16.3c2-6.3 5.5-12.9 11.4-18.6 c2.8-2.7 6.2-5.2 10.1-7.3c-0.1-4.3-1-8.1-2.8-11.6c-1.8-3.5-4.4-6.7-7.5-9.3c-6.3-5.2-15.1-8.3-23.9-8.3c-6.3 0-12.5 1.5-17.9 4.8 c-5.4 3.3-10.1 8.2-13.4 15.5l-10.1-4.6c4.2-9.2 10.5-16 17.8-20.4c5-3 10.3-4.8 15.8-5.7c0-0.4 0-0.8 0-1.1c0-5.3 0.9-11.2 2.9-17 c2-5.8 5-11.7 9.4-16.8c2.9-3.4 6.4-6.4 10.6-8.7c5.5-3.1 12.2-5 19.6-5c0.5 0 1 0 1.5 0c4.4-6.6 10.2-11.5 16.7-14.9 c7.7-3.9 16.2-5.7 24.6-5.7c7.8 0 15.4 1.5 22.3 4.5c3.8 1.6 7.3 3.7 10.4 6.2c1.8-1 3.7-1.9 5.7-2.6c4.5-1.6 9.3-2.3 14-2.3 c7 0 13.9 1.6 20.1 4.7c6.2 3.1 11.7 7.6 15.5 13.6c1.6 2.6 2.9 5.4 3.7 8.4c4 0.6 7.7 1.7 11 3.3c4.7 2.2 8.6 5.4 11.7 9 c6.2 7.3 8.9 16.6 8.9 25.6c0 6.6-1.5 13.2-4.5 19c-3 5.8-7.6 10.9-13.7 14c-4.1 2.1-8.8 3.2-13.9 3.2c-4.4 0-9.1-0.9-14-2.6 c-6.3-1.5-12.1-2.2-17.5-2.2c-7.4 0-13.6 1.4-18.7 4.1c-5.1 2.7-9.1 6.6-12.2 12.3c-2.1 3.8-3.7 8.5-4.6 14.1h0h0l-12.8-2.3 c1.8-10.1 5.4-18.6 10.8-25.2c5.4-6.6 12.5-11.1 20.5-13.5c5.3-1.6 11.1-2.4 17.1-2.4c6.6 0 13.5 0.9 20.6 2.6l0.4 0.1l0.4 0.1 c3.9 1.4 7.2 2 10.1 2c2.4 0 4.4-0.4 6.3-1.1c1.8-0.7 3.5-1.6 4.9-2.9c2.9-2.4 5.2-6 6.6-10.3c0.9-2.8 1.4-5.9 1.4-9 c0-4.8-1.1-9.5-3.3-13.5c-2.2-4-5.4-7.3-9.9-9.4c-3-1.4-6.7-2.4-11.1-2.6l-5.6-0.2l-0.6-5.6c-0.3-3.1-1.3-5.7-2.8-8.2 c-1.5-2.4-3.6-4.6-6.1-6.4c-5-3.6-11.9-5.8-18.5-5.8c-5.1 0-9.9 1.2-13.9 3.6c-4 2.4-7.2 5.9-9.4 11.2c-1.4 3.5-2.3 7.8-2.3 13.2 c0 0.9 0 1.8 0.1 2.8c3.7-1.2 7.7-1.9 11.8-1.9c4.8 0 9.8 0.9 14.6 2.9c4.8 2 9.4 5.1 13.6 9.2l-9.2 9.2c-3-3-6.2-5.1-9.4-6.4 c-3.2-1.3-6.4-1.9-9.6-1.9c-4.3 0-8.5 1.1-12.2 3.1c-3.7 2-6.7 4.8-8.8 8c-1.4 2.1-2.3 4.4-2.7 6.8l-1.3 7.4l-7.1-2.4 c-1-0.3-2.9-0.7-5.3-0.7c-3.3 0-7.3 0.6-11.2 1.9c-4 1.3-7.8 3.4-10.9 6.3c-2.1 1.9-3.9 4.3-5.3 7c-1.9 3.7-3.1 8.4-3.1 14.4v4.3 l-4 1.7c-4.6 1.9-8.1 4.3-10.9 6.9c-2.7 2.6-4.7 5.5-6.2 8.6c-2.5 5.1-3.4 10.7-3.7 15.3c2 18.1 17.3 32.2 36 32.2h0.1 c10.8 0 20.5-4.8 27.2-12.4c5.6 2 11.7 3.1 18 3.1c26 0 47.8-18.6 52.6-43.2c3.8 0.7 7.7 1.2 11.6 1.2h0l0.2 0 c8.5 0 16.9-2 24.2-5.7c5.5-2.8 10.3-6.5 14.3-10.6c6-6.2 10.1-13.3 12.7-20.6c1.5-4.1 2.5-8.2 3.2-12.4v-20 c-0.6-3.6-1.4-7.2-2.6-10.7c-1.7-5.2-4.2-10.2-7.5-15c-4.9-7.2-11.8-13.7-20.2-18.3c-2.3-1.2-4.7-2.3-7.2-3.3c-1.8-3-3.8-5.8-6-8.4 c-6.7-7.7-14.7-13-23.2-16.6c-8.5-3.6-17.5-5.4-26.8-5.4c-5.7 0-11.5 0.7-17.3 2.3c-3.7-1.8-7.4-3.3-11.2-4.5 c-7.7-2.4-15.7-3.6-23.9-3.6c-5.9 0-11.8 0.6-17.7 2c-8.8 2-17.7 5.7-25.8 11.4c-3.3 2.3-6.4 5-9.3 7.9c-2.1 0.3-4.3 0.8-6.3 1.3 c-4.6 1.2-8.9 2.9-12.9 5c-7 3.7-12.9 8.5-17.6 13.8c-3.5 3.9-6.4 8.1-8.7 12.3c-3.5 6.3-5.9 12.7-7.5 18.9 c-0.1 0.4-0.2 0.8-0.3 1.2c-18.6 8.4-31.6 27.1-31.6 48.9C103.2 261.8 127.2 285.8 156.9 285.8" class="thinklandia-white"/><path d="M433.6 67.6L375 116.7l-12.3-23.2l-70.9 57.3c0 0 10.9 0 19.1 5.5c8.2 5.5 9.6 13 9.6 13l34-35.3l13.9 24 L433.6 67.6z" class="thinklandia-yellow"/></g></svg>