<?xml version="1.0" encoding="utf-8"?>
<!-- Generator: Adobe Illustrator 15.1.0, SVG Export Plug-In . SVG Version: 6.00 Build 0)  -->
<!DOCTYPE svg PUBLIC "-//W3C//DTD SVG 1.1//EN" "http://www.w3.org/Graphics/SVG/1.1/DTD/svg11.dtd">
<svg version="1.1" id="Layer_1" xmlns="http://www.w3.org/2000/svg" xmlns:xlink="http://www.w3.org/1999/xlink" x="0px" y="0px"
	 width="473.74px" height="592.843px" viewBox="172.122 0 473.74 592.843" enable-background="new 172.122 0 473.74 592.843"
	 xml:space="preserve">
<g>
	<g>
		<path fill="#C4FFFA" d="M505.785,481.112c0,5.438,4.415,9.852,9.859,9.852c5.443,0,9.857-4.413,9.857-9.852
			s-4.414-9.844-9.857-9.844C510.2,471.269,505.785,475.673,505.785,481.112 M470.121,455.805c0,8.368,6.789,15.154,15.166,15.154
			c8.382,0,15.167-6.786,15.167-15.154c0-2.318-0.534-4.508-1.467-6.476c3.11,2.151,6.877,3.41,10.945,3.41
			c10.663,0,19.304-8.639,19.304-19.28c0-10.653-8.641-19.283-19.304-19.283c-10.662,0-19.313,8.63-19.313,19.283
			c0,3.394,0.891,6.579,2.438,9.349c-2.278-1.359-4.929-2.149-7.771-2.149C476.91,440.657,470.121,447.436,470.121,455.805
			 M184.806,218.115c0,5.405,4.385,9.783,9.791,9.783c5.409,0,9.795-4.378,9.795-9.783c0-5.399-4.386-9.777-9.795-9.777
			C189.191,208.337,184.806,212.715,184.806,218.115 M206.3,186.162c0-9.43-7.65-17.075-17.09-17.075
			c-9.437,0-17.088,7.646-17.088,17.075c0,9.421,7.651,17.066,17.088,17.066C198.648,203.229,206.3,195.583,206.3,186.162
			 M522.83,18.591c0-5.669-4.599-10.264-10.273-10.264c-5.681,0-10.28,4.595-10.28,10.264c0,5.668,4.601,10.271,10.28,10.271
			C518.231,28.862,522.83,24.259,522.83,18.591 M559.357,48.222c0-9.45-7.672-17.112-17.143-17.112
			c-9.46,0-17.127,7.662-17.127,17.112c0,9.449,7.667,17.115,17.127,17.115C551.686,65.337,559.357,57.671,559.357,48.222
			 M288.807,266.494c-5.464,3.679-10.296,8.212-14.345,13.383c3.604-5.672,23.307,18.323,23.307,11.106
			c0-2.654,38.14,4.586,37.605,2.087c1.562,0.239-1.587-39.841,0-39.691C336.73,257.941,286.998,262.145,288.807,266.494
			 M612.121,215.978c0-26.211-18.206-48.161-42.68-53.956c8.792-7.181,14.355-18.089,14.413-30.321
			c0.152-32.938-44.768-59.055-78.199-29.802c-3.729-3.624-12.583,6.314-16.713,3.133c11.487,18.806,26.301-0.23,28.21-13.576
			c7.307-51.191-29.045-67.998-56.471-67.998c-10.859,0-20.897,3.493-29.072,9.403c-9.243-7.975-21.271-12.813-34.438-12.813
			c-17.052,0-32.194,8.09-41.837,20.614c-6.567-3.165-13.926-4.945-21.706-4.945c-27.625,0-50.019,22.364-50.019,49.961
			c0,1.204,0.047,2.396,0.131,3.581c-41.763,4.017-74.416,39.151-74.416,81.91c0,21.096,7.956,40.332,21.021,54.895
			c-13.791,5.278-23.592,18.587-23.592,34.215c0,20.257,16.437,36.668,36.714,36.668c11.345,0,17.271-1.019,24.005-9.1
			c-6.604,9.899-6.263,17.654-6.263,30.44c0,31.563,23.447,57.641,53.888,61.836c-0.168,1.297-0.282,2.604-0.282,3.945
			c0,16.779,13.615,30.38,30.417,30.38c6.615,0,12.718-2.13,17.707-5.709c9.675,21.997,31.668,37.367,57.266,37.367
			c31.707,0,57.891-23.581,61.966-54.137c5.392,5.754,13.043,9.371,21.551,9.371c16.315,0,29.544-13.215,29.544-29.514
			c0-16.297,2.294-64.129-14.022-64.129c-11.484,0-70.33,9.243-75.22,18.806c-3.084-6.977,25.979,18.665,20.7,13.313
			c12.586-5.121,24.216-12.101,34.574-20.563c4.356,2.248,9.084,3.888,14.074,4.795c0.936,21.548,18.713,38.731,40.516,38.731
			c22.396,0,38.46-18.236,40.556-40.511c3.15-33.381-15.831-46.616-29.24-53.226c0.88-3.735-8.356,10.272-8.356,6.269
			c0-1.788,16.231-4.563,16.054-6.305C595.605,262.051,612.121,240.944,612.121,215.978 M627.589,285.028
			c0-6.75-5.481-12.22-12.241-12.22c-6.756,0-12.234,5.47-12.234,12.22c0,6.753,5.479,12.226,12.234,12.226
			C622.106,297.253,627.589,291.781,627.589,285.028"/>
		<path fill="#00BFDB" d="M606.355,215.978c0-24.797-13.615-46.406-33.755-57.803c2.269-5.5,3.522-11.525,3.522-17.847
			c0-25.875-20.978-46.859-46.854-46.859c-3.254,0-6.415,0.366-9.477,1c-2.115-1.896-4.277-3.734-6.498-5.522
			c0.012-0.423,0.054-0.833,0.054-1.261c0-32.784-26.573-59.354-59.356-59.354c-8.632,0-16.828,1.85-24.229,5.167
			c-9.539-5.805-20.736-9.146-32.718-9.146c-22.673,0-42.547,11.979-53.652,29.944c-1.089-0.083,10.806-12.682,9.737-12.99
			c-36.562-10.448-65.812,28.207-57.888,57.71c0.277,1.048,0.062,2.149,0.141,3.214c-37.45,3.593-66.741,35.141-66.741,73.527
			c0,17.558,6.137,33.675,16.371,46.355c-13.117,5.545-22.329,18.489-22.329,33.632c0,19.808,15.762,35.897,35.427,36.512
			c-1.07,5.015-1.633,10.219-1.633,15.554c0,36.438,26.083,66.765,60.593,73.374c0.543,13.223,16.215,36.204,43.376,32.022
			c0.687-0.103-8.586-10.058-7.9-10.095c12.819,22.748,37.184,38.117,65.148,38.117c32.728,0,60.521-21.04,70.651-50.32
			c1.389,0.164,2.795,0.274,4.224,0.274c18.495,0,33.641-14.213,35.165-32.312c3.168,0.649,6.45,0.995,9.812,0.995
			c26.775,0,48.479-21.712,48.479-48.481c0-14.362-6.247-27.264-16.172-36.138C591.5,264.311,606.355,241.889,606.355,215.978"/>
		<path fill="#FFFFFF" d="M524.189,186.338c0,17.97-3.93,32.418-9.693,45.037c-5.694,12.458-13.396,23.375-22.377,32.355
			c-2.335,2.334-4.759,4.498-7.104,6.626c-16.786,15.25-22.707,40.395-21.899,73.844c-6.97,3.526-14.105,6.666-21.217,9.988
			c-21.167,9.876-42.695,19.626-63.953,29.573c-2.554-1.064-4.98-2.251-7.491-3.357c30.279-14.186,60.843-28.078,91.125-42.251
			c-1.958,0-4.077,0-6.24,0c-2.056,0-4.34-0.341-6.239,0c-1.422,0.256-3.419,1.57-4.995,2.307
			c-24.979,11.615-49.706,22.898-74.705,34.47v-6.818c21.551-10.01,43.2-19.923,64.722-29.957c-1.983,0-4.097,0-6.249,0
			c-2.056,0-4.31-0.313-6.233,0c-0.905,0.145-2.258,0.93-3.362,1.438c-16.355,7.524-32.372,15.176-48.876,22.568v-6.818
			c12.429-5.688,24.836-11.395,37.162-17.188c-2.182,0-4.2,0-6.245,0c-2.012,0-4.254-0.341-6.238,0
			c-0.919,0.16-2.039,0.962-3.073,1.438c-7.255,3.342-14.474,6.695-21.604,9.795v-6.725c3.213-1.518,6.508-2.969,9.7-4.51h-9.7
			v-20.646c-11.031,4.274-27.23,4.994-42.73,4.513c0.146-23.314,0.292-46.632,0.479-69.904c-7.503-0.008-25.214-0.008-29.382,0
			c2.4-22.224,4.28-44.375,7.777-65.202c3.502-20.88,7.645-40.692,16.611-56.271c4.537-7.88,9.547-15.044,15.17-21.312
			c5.718-6.372,12.737-11.642,20.264-16.232c13.171-8.041,28.513-14.156,48.012-15.841c20.893-1.805,39.635,2.794,54.159,9.313
			c18.88,8.477,33.723,21.181,44.841,37.261C515.524,139.633,524.189,159.953,524.189,186.338 M384.285,386.742
			c26.149-12.262,52.526-24.298,78.742-36.488c0.188,2.044-0.124,4.428,0,6.722c-23.232,11.152-47.031,21.728-70.386,32.744h6.238
			c2.063,0,4.335,0.327,6.244,0c1.015-0.173,2.536-1.073,3.74-1.639c18.041-8.299,36.105-16.9,54.063-24.966v6.63
			c-14.018,6.891-28.606,13.188-42.732,19.975h6.242c1.987,0,4.208,0.366,6.241,0c1.089-0.194,2.62-1.159,3.846-1.731
			c8.773-4.09,17.599-8.236,26.309-12.098c0.047,1.394-0.054,2.636-0.094,3.935c-10.888,5.322-22.921,10.557-34.189,16.134
			c-3.609,1.783-8.007,3.934-13.057,3.649c-6.453-0.356-11.197-3.634-16.132-5.957C394.248,391.247,389.41,388.959,384.285,386.742"
			/>
		<path fill="#B7E5C3" d="M467.177,218.091c0.362,0.017,0.721,0.031,1.081,0.031c14.396,0,26.063-11.669,26.063-26.063
			c0-0.95-0.058-1.891-0.157-2.812c-2.818,2.729-6.11,5.184-9.888,7.095c-5.702,2.897-12.11,4.406-18.604,4.416h-0.046h-0.046h-0.1
			c-0.441,0-0.878-0.026-1.319-0.043c-2.576,6.487-6.736,12.163-12.014,16.541c-3.38,2.808-7.234,5.084-11.418,6.705
			c0.393,0.18,0.805,0.34,1.216,0.498c2.509,0.953,5.219,1.496,8.062,1.496c2.855,0,5.581-0.536,8.093-1.496
			C461.638,223.106,464.745,220.898,467.177,218.091"/>
		<path fill="#B7E5C3" d="M421.991,125.464c0.324-0.486,0.679-0.95,1.032-1.396c-1.011-0.673-2.121-1.277-3.315-1.791
			c-3.171-1.382-6.886-2.143-10.613-2.138c-4.037-0.005-8.072,0.878-11.521,2.664c-3.452,1.788-6.329,4.419-8.317,8.122l-1.285,2.42
			l-2.721-0.325c-0.917-0.105-1.788-0.156-2.613-0.156c-2.493,0-4.594,0.44-6.438,1.192c-1.837,0.744-3.428,1.805-4.829,3.116
			c-2.792,2.604-4.786,6.289-5.891,10.024c-0.741,2.482-1.086,4.975-1.077,7.055c0,0.164,0.009,0.319,0.009,0.479
			c4.126,0.429,8.132,1.666,11.705,3.644c4.148,2.302,7.715,5.614,10.103,9.799c0.757-1.323,1.611-2.542,2.556-3.633
			c3.583-4.156,8.197-6.614,12.615-7.931c2.948-0.876,5.835-1.257,8.425-1.257c0.599,0,1.175,0.024,1.743,0.069
			c0.473-1.155,1.043-2.257,1.712-3.292c1.296-2.016,2.935-3.774,4.806-5.271c-0.276-2.029-0.415-3.966-0.415-5.807
			C417.65,134.786,419.22,129.517,421.991,125.464"/>
		<path fill="#B7E5C3" d="M357.067,207.267c3.652,0,7.146-0.604,10.426-1.692c0.033-2.854,0.381-6.371,1.549-10.078
			c1.229-3.895,3.397-8.017,7.053-11.526c1.748-1.682,3.846-3.21,6.271-4.509c-0.037-2.668-0.646-5.039-1.715-7.169
			c-1.104-2.187-2.702-4.118-4.665-5.733c-3.925-3.235-9.358-5.142-14.765-5.129c-3.879,0-7.713,0.953-11.056,2.971
			c-3.34,2.027-6.243,5.099-8.297,9.605l-6.264-2.843c2.585-5.698,6.489-9.928,11.013-12.648c3.067-1.849,6.39-3,9.778-3.555
			c-0.009-0.239-0.02-0.469-0.02-0.707c0-3.297,0.575-6.922,1.792-10.543c1.223-3.622,3.093-7.239,5.794-10.375
			c1.794-2.087,3.967-3.962,6.529-5.414c3.422-1.936,7.528-3.086,12.145-3.078c0.3,0,0.614,0.017,0.92,0.029
			c2.708-4.065,6.33-7.137,10.341-9.199c4.744-2.441,10.016-3.547,15.197-3.551c4.795,0.003,9.538,0.948,13.802,2.792
			c2.318,1.01,4.493,2.301,6.442,3.862c1.131-0.634,2.302-1.172,3.499-1.596c2.797-0.989,5.739-1.451,8.665-1.454
			c4.326,0.003,8.629,0.999,12.473,2.891c3.839,1.881,7.252,4.688,9.584,8.408c0.995,1.583,1.781,3.334,2.302,5.204
			c2.477,0.378,4.766,1.061,6.817,2.039c2.91,1.384,5.34,3.325,7.243,5.589c3.812,4.546,5.522,10.271,5.529,15.85
			c-0.007,4.099-0.921,8.165-2.784,11.753c-1.848,3.583-4.69,6.719-8.494,8.647c-2.532,1.286-5.457,2.001-8.607,2.001
			c-2.744,0-5.654-0.551-8.68-1.645c-3.889-0.908-7.521-1.36-10.812-1.36c-4.564,0-8.439,0.867-11.588,2.506
			c-3.144,1.657-5.639,4.063-7.563,7.593c-1.269,2.358-2.264,5.235-2.882,8.707h0.011h-0.011l-7.89-1.395
			c1.102-6.269,3.344-11.509,6.688-15.575c3.331-4.068,7.729-6.868,12.678-8.381c3.298-1.01,6.844-1.479,10.556-1.479
			c4.058,0.005,8.329,0.559,12.759,1.6l0.248,0.057l0.236,0.095c2.401,0.896,4.475,1.254,6.247,1.254
			c1.473,0,2.747-0.239,3.882-0.658c1.138-0.415,2.146-1.006,3.053-1.771c1.813-1.509,3.236-3.739,4.075-6.367
			c0.558-1.75,0.854-3.662,0.854-5.582c0.005-2.946-0.699-5.901-2.063-8.371c-1.371-2.479-3.353-4.49-6.14-5.826
			c-1.86-0.888-4.12-1.47-6.886-1.585l-3.471-0.14l-0.359-3.449c-0.203-1.891-0.812-3.546-1.748-5.051
			c-0.937-1.502-2.229-2.837-3.797-3.962c-3.117-2.262-7.351-3.58-11.462-3.571c-3.129,0-6.145,0.743-8.621,2.227
			c-2.485,1.493-4.481,3.655-5.791,6.906c-0.869,2.17-1.407,4.859-1.407,8.172c0,0.551,0.019,1.123,0.048,1.709
			c2.309-0.74,4.757-1.154,7.28-1.159c2.977,0,6.038,0.567,9.007,1.806c2.971,1.232,5.833,3.127,8.416,5.716l-5.667,5.668
			c-1.888-1.882-3.854-3.157-5.826-3.979c-1.976-0.818-3.967-1.191-5.93-1.191c-2.679,0-5.292,0.698-7.562,1.919
			s-4.17,2.956-5.443,4.929c-0.847,1.323-1.422,2.741-1.693,4.229l-0.825,4.55l-4.391-1.467c-0.598-0.206-1.821-0.416-3.283-0.407
			c-2.016-0.004-4.514,0.353-6.954,1.183c-2.452,0.831-4.823,2.125-6.766,3.925c-1.302,1.205-2.419,2.632-3.3,4.361
			c-1.157,2.31-1.915,5.18-1.915,8.907v2.684l-2.489,1.024c-2.874,1.188-5.04,2.659-6.734,4.287
			c-1.691,1.635-2.923,3.427-3.833,5.306c-1.543,3.17-2.127,6.593-2.269,9.453c1.23,11.21,10.721,19.937,22.262,19.949h0.06
			c6.717-0.013,12.724-2.989,16.824-7.674c3.477,1.239,7.224,1.943,11.129,1.943c16.119,0,29.554-11.484,32.588-26.718
			c2.356,0.461,4.74,0.725,7.146,0.725h0.003h0.108c5.229,0,10.473-1.247,14.97-3.544c3.404-1.726,6.378-3.999,8.83-6.547
			c3.681-3.834,6.223-8.231,7.875-12.741c0.913-2.524,1.555-5.097,1.947-7.698v-12.411c-0.337-2.22-0.861-4.442-1.604-6.646
			c-1.068-3.189-2.59-6.343-4.61-9.313c-3.025-4.452-7.285-8.48-12.489-11.295c-1.415-0.773-2.901-1.456-4.43-2.042
			c-1.102-1.875-2.368-3.605-3.732-5.181c-4.134-4.733-9.125-8.057-14.362-10.271c-5.261-2.2-10.835-3.33-16.564-3.339
			c-3.513,0.004-7.101,0.439-10.677,1.41c-2.266-1.125-4.586-2.051-6.956-2.791c-4.783-1.482-9.745-2.221-14.775-2.225
			c-3.621,0-7.289,0.393-10.943,1.221c-5.47,1.247-10.953,3.508-15.968,7.055c-2.021,1.422-3.957,3.065-5.754,4.917
			c-1.331,0.201-2.639,0.464-3.921,0.802c-2.835,0.739-5.537,1.791-8.012,3.09c-4.347,2.277-7.979,5.278-10.867,8.518
			c-2.172,2.425-3.948,4.998-5.416,7.592c-2.191,3.895-3.681,7.847-4.675,11.727c-0.062,0.254-0.106,0.514-0.165,0.765
			c-11.513,5.224-19.531,16.792-19.531,30.256C323.84,192.388,338.717,207.267,357.067,207.267"/>
		<g opacity="0.56">
			<g>
				<path fill="#70EBD9" d="M268.306,449.388c-20.101,0-30.209,16.289-30.209,36.39h14.111c0-8.208,3.563-14.856,11.769-14.856
					c8.209,0,11.769,6.648,11.769,14.856h21.529C297.275,465.677,288.403,449.388,268.306,449.388 M275.746,485.777L275.746,485.777
					"/>
			</g>
		</g>
		<g opacity="0.55">
			<g>
				<rect x="275.711" y="485.775" fill="#EC1164" width="21.563" height="36.388"/>
			</g>
		</g>
		<g opacity="0.75">
			<g>
				<rect x="230.633" y="430.975" fill="#EC1164" width="21.563" height="91.188"/>
			</g>
		</g>
		<g opacity="0.75">
			<g>
				<rect x="528.462" y="430.975" fill="#70EBD9" width="21.565" height="91.188"/>
			</g>
		</g>
		<g opacity="0.5">
			<g>
				<path fill="#EC1164" d="M566.129,449.388c-20.096,0-30.206,16.289-30.206,36.39h14.109c0-8.208,3.564-14.856,11.772-14.856
					c8.206,0,11.77,6.648,11.77,14.856H595.1C595.101,465.677,586.23,449.388,566.129,449.388 M573.574,485.777l0.066,0.445
					L573.574,485.777"/>
			</g>
		</g>
		<g opacity="0.4">
			<g>
				<rect x="573.541" y="485.775" fill="#EC1164" width="21.563" height="36.388"/>
			</g>
		</g>
		<g opacity="0.57">
			<g>
				<path fill="#70EBD9" d="M338.605,449.388c-20.098,0-36.39,16.289-36.39,36.388c0,20.095,16.292,36.388,36.39,36.388
					c20.09,0,36.386-16.293,36.386-36.388C374.991,465.677,358.695,449.388,338.605,449.388 M338.605,500.634
					c-8.213,0-14.863-6.65-14.863-14.858c0-8.206,6.649-14.854,14.863-14.854c8.204,0,14.855,6.648,14.855,14.854
					C353.461,493.983,346.809,500.634,338.605,500.634"/>
			</g>
		</g>
		<g opacity="0.75">
			<g>
				<rect x="175.54" y="449.388" fill="#70EBD9" width="47.167" height="21.564"/>
			</g>
		</g>
		<g opacity="0.5">
			<g>
				<rect x="188.117" y="430.975" fill="#EC1164" width="21.563" height="61.094"/>
			</g>
		</g>
		<g opacity="0.28">
			<g>
				<rect x="218.213" y="500.6" fill="#EC1164" width="4.941" height="21.563"/>
			</g>
		</g>
		<g opacity="0.75">
			<g>
				<path fill="#EC1164" d="M218.213,522.162v-21.642c-4.668-0.013-8.441-3.791-8.459-8.453h-21.635
					C188.131,508.681,201.597,522.147,218.213,522.162"/>
			</g>
		</g>
		<g opacity="0.75">
			<g>
				<rect x="610.827" y="430.975" fill="#70EBD9" width="21.563" height="61.542"/>
			</g>
		</g>
		<g opacity="0.5">
			<g>
				<rect x="598.247" y="449.388" fill="#EC1164" width="47.167" height="21.564"/>
			</g>
		</g>
		<g opacity="0.45">
			<g>
				<rect x="640.923" y="500.6" fill="#EC1164" width="4.939" height="21.563"/>
			</g>
		</g>
		<g opacity="0.55">
			<g>
				<path fill="#EC1164" d="M640.923,522.162v-21.642c-4.669-0.013-8.442-3.791-8.46-8.453h-21.636
					C610.84,508.681,624.303,522.147,640.923,522.162"/>
			</g>
		</g>
		<g opacity="0.75">
			<g>
				<path fill="#70EBD9" d="M480.553,449.388c-20.092,0-36.385,16.289-36.385,36.388c0,20.095,16.293,36.388,36.385,36.388
					c20.093,0,36.385-16.293,36.385-36.388C516.938,465.677,500.646,449.388,480.553,449.388 M480.553,500.634
					c-8.205,0-14.855-6.65-14.855-14.858c0-8.206,6.65-14.854,14.855-14.854c8.208,0,14.857,6.648,14.857,14.854
					C495.411,493.983,488.761,500.634,480.553,500.634"/>
			</g>
		</g>
		<g opacity="0.55">
			<g>
				<rect x="495.374" y="449.388" fill="#EC1164" width="21.563" height="72.774"/>
			</g>
		</g>
		<g opacity="0.56">
			<g>
				<rect x="481.898" y="530.694" fill="#EC1164" width="4.941" height="21.565"/>
			</g>
		</g>
		<g opacity="0.44">
			<g>
				<path fill="#EC1164" d="M486.841,552.26v-21.643c4.671-0.012,8.442-3.79,8.459-8.455h21.639
					C516.923,538.775,503.459,552.247,486.841,552.26"/>
			</g>
		</g>
		<g opacity="0.5">
			<g>
				<rect x="380.004" y="449.388" fill="#EC1164" width="21.563" height="43.043"/>
			</g>
		</g>
		<g opacity="0.75">
			<g>
				<path fill="#70EBD9" d="M410.025,522.162c-16.579,0-30.017-13.438-30.017-30.021h21.558c0,4.675,3.791,8.463,8.459,8.463
					c4.672,0,8.46-3.788,8.46-8.463h21.561C440.046,508.724,426.608,522.162,410.025,522.162"/>
			</g>
		</g>
		<g opacity="0.6">
			<g>
				<rect x="418.482" y="449.388" fill="#EC1164" width="21.561" height="43.043"/>
			</g>
		</g>
		<g opacity="0.7">
			<g>
				<g>
					<path fill="#FF9800" d="M342.114,548.281c-1.254-8.192-8.026-13.293-16.888-13.293c-9.447,0-16.387,4.432-16.387,12.122
						c0,7.608,9.28,9.949,17.39,12.123c7.858,2.09,19.98,5.1,19.98,17.138c0,9.447-8.192,16.472-20.649,16.472
						c-12.708,0-20.232-7.692-21.068-17.057l3.094-0.836c0.501,8.026,6.855,14.882,17.976,14.882
						c10.617,0,17.389-5.686,17.389-13.461c0-10.532-11.788-12.539-19.98-14.797c-6.605-1.84-17.391-4.432-17.391-14.464
						c0-9.112,8.36-15.132,19.647-15.132c10.367,0,18.393,5.936,19.98,15.467L342.114,548.281z"/>
					<path fill="#FF9800" d="M401.809,533.149v58.522h-3.262v-29.262h-37.035v29.262h-3.178v-58.522h3.178v26.168h37.035v-26.168
						H401.809L401.809,533.149z"/>
					<path fill="#FF9800" d="M444.196,531.979c16.806,0,30.433,12.791,30.433,30.432s-13.627,30.433-30.433,30.433
						c-16.804,0-30.348-12.792-30.348-30.433C413.849,544.771,427.393,531.979,444.196,531.979z M444.196,589.748
						c15.049,0,27.171-11.202,27.171-27.338c0-16.387-12.122-27.339-27.171-27.339c-15.132,0-27.087,10.952-27.087,27.339
						C417.109,578.546,429.064,589.748,444.196,589.748z"/>
					<path fill="#FF9800" d="M501.969,533.149c13.209,0,21.15,6.772,21.15,17.975c0,11.203-7.941,17.976-21.15,17.976h-12.54v22.573
						h-3.177V533.15L501.969,533.149L501.969,533.149z M501.969,566.09c11.621,0,17.892-5.771,17.892-14.967
						c0-9.696-6.938-14.881-17.892-14.881h-12.54v29.848H501.969z"/>
				</g>
				<g opacity="0.56">
					<g>
						<path fill="#70EBD9" d="M268.306,449.388c-20.101,0-30.209,16.289-30.209,36.39h14.111c0-8.208,3.563-14.856,11.769-14.856
							c8.209,0,11.769,6.648,11.769,14.856h21.529C297.275,465.677,288.403,449.388,268.306,449.388 M275.746,485.777
							L275.746,485.777"/>
					</g>
				</g>
				<g opacity="0.75">
					<g>
						<rect x="528.462" y="430.975" fill="#70EBD9" width="21.565" height="91.188"/>
					</g>
				</g>
				<g opacity="0.57">
					<g>
						<path fill="#70EBD9" d="M338.605,449.388c-20.098,0-36.39,16.289-36.39,36.388c0,20.095,16.292,36.388,36.39,36.388
							c20.09,0,36.386-16.293,36.386-36.388C374.991,465.677,358.695,449.388,338.605,449.388 M338.605,500.634
							c-8.213,0-14.863-6.65-14.863-14.858c0-8.206,6.649-14.854,14.863-14.854c8.204,0,14.855,6.648,14.855,14.854
							C353.461,493.983,346.809,500.634,338.605,500.634"/>
					</g>
				</g>
				<g opacity="0.75">
					<g>
						<rect x="175.54" y="449.388" fill="#70EBD9" width="47.167" height="21.564"/>
					</g>
				</g>
				<g opacity="0.75">
					<g>
						<rect x="610.827" y="430.975" fill="#70EBD9" width="21.563" height="61.542"/>
					</g>
				</g>
				<g opacity="0.75">
					<g>
						<path fill="#70EBD9" d="M480.553,449.388c-20.092,0-36.385,16.289-36.385,36.388c0,20.095,16.293,36.388,36.385,36.388
							c20.093,0,36.385-16.293,36.385-36.388C516.938,465.677,500.646,449.388,480.553,449.388 M480.553,500.634
							c-8.205,0-14.855-6.65-14.855-14.858c0-8.206,6.65-14.854,14.855-14.854c8.208,0,14.857,6.648,14.857,14.854
							C495.411,493.983,488.761,500.634,480.553,500.634"/>
					</g>
				</g>
				<g opacity="0.75">
					<g>
						<path fill="#70EBD9" d="M410.025,522.162c-16.579,0-30.017-13.438-30.017-30.021h21.558c0,4.675,3.791,8.463,8.459,8.463
							c4.672,0,8.46-3.788,8.46-8.463h21.561C440.046,508.724,426.608,522.162,410.025,522.162"/>
					</g>
				</g>
			</g>
		</g>
		<g opacity="0.55">
			<g>
				<rect x="275.711" y="485.775" fill="#00BFDB" width="21.563" height="36.388"/>
			</g>
		</g>
		<g opacity="0.75">
			<g>
				<rect x="230.633" y="430.975" fill="#00BFDB" width="21.563" height="91.188"/>
			</g>
		</g>
		<g opacity="0.5">
			<g>
				<path fill="#00BFDB" d="M566.129,449.388c-20.096,0-30.206,16.289-30.206,36.39h14.109c0-8.208,3.564-14.856,11.772-14.856
					c8.206,0,11.77,6.648,11.77,14.856H595.1C595.101,465.677,586.23,449.388,566.129,449.388 M573.574,485.777l0.066,0.445
					L573.574,485.777"/>
			</g>
		</g>
		<g opacity="0.4">
			<g>
				<rect x="573.541" y="485.775" fill="#00BFDB" width="21.563" height="36.388"/>
			</g>
		</g>
		<g opacity="0.5">
			<g>
				<rect x="188.117" y="430.975" fill="#00BFDB" width="21.563" height="61.094"/>
			</g>
		</g>
		<g opacity="0.28">
			<g>
				<rect x="218.213" y="500.6" fill="#00BFDB" width="4.941" height="21.563"/>
			</g>
		</g>
		<g opacity="0.75">
			<g>
				<path fill="#00BFDB" d="M218.213,522.162v-21.642c-4.668-0.013-8.441-3.791-8.459-8.453h-21.635
					C188.131,508.681,201.597,522.147,218.213,522.162"/>
			</g>
		</g>
		<g opacity="0.5">
			<g>
				<rect x="598.247" y="449.388" fill="#00BFDB" width="47.167" height="21.564"/>
			</g>
		</g>
		<g opacity="0.45">
			<g>
				<rect x="640.923" y="500.6" fill="#00BFDB" width="4.939" height="21.563"/>
			</g>
		</g>
		<g opacity="0.55">
			<g>
				<path fill="#00BFDB" d="M640.923,522.162v-21.642c-4.669-0.013-8.442-3.791-8.46-8.453h-21.636
					C610.84,508.681,624.303,522.147,640.923,522.162"/>
			</g>
		</g>
		<g opacity="0.55">
			<g>
				<rect x="495.374" y="449.388" fill="#00BFDB" width="21.563" height="72.774"/>
			</g>
		</g>
		<g opacity="0.56">
			<g>
				<rect x="481.898" y="530.694" fill="#00BFDB" width="4.941" height="21.565"/>
			</g>
		</g>
		<g opacity="0.44">
			<g>
				<path fill="#00BFDB" d="M486.841,552.26v-21.643c4.671-0.012,8.442-3.79,8.459-8.455h21.639
					C516.923,538.775,503.459,552.247,486.841,552.26"/>
			</g>
		</g>
		<g opacity="0.5">
			<g>
				<rect x="380.004" y="449.388" fill="#00BFDB" width="21.563" height="43.043"/>
			</g>
		</g>
		<g opacity="0.6">
			<g>
				<rect x="418.482" y="449.388" fill="#00BFDB" width="21.561" height="43.043"/>
			</g>
		</g>
		<g>
			<g>
				<path fill="#00BFDB" d="M218.214,522.162h4.942V500.6h-4.942v-0.075c-4.667-0.016-8.446-3.794-8.459-8.462h-0.075v-21.109
					h13.025v-21.564H209.68v-18.416h-21.563v18.416H175.54v21.564h12.577v21.109c0.007,7.27,2.588,13.938,6.881,19.142
					c5.519,6.684,13.869,10.949,23.216,10.956V522.162L218.214,522.162z M275.714,522.162h21.561v-36.388
					c0-20.099-8.873-36.388-28.966-36.388c-6.38,0-11.748,1.657-16.112,4.538v-22.954h-21.56v91.19h21.56v-36.386h0.017
					c0-8.208,3.562-14.856,11.768-14.856c8.204,0,11.763,6.648,11.768,14.854h-0.033L275.714,522.162L275.714,522.162z
					 M353.461,485.777c0,8.206-6.652,14.856-14.861,14.856c-8.198,0-14.857-6.65-14.857-14.856c0-8.208,6.659-14.856,14.857-14.856
					C346.809,470.92,353.461,477.569,353.461,485.777 M374.991,485.777c0-20.101-16.295-36.39-36.391-36.39
					c-20.093,0-36.387,16.289-36.387,36.39c0,20.093,16.294,36.386,36.387,36.386C358.695,522.162,374.991,505.869,374.991,485.777
					 M440.033,492.438h0.015v-0.294v-42.756h-21.563v42.773c-0.016,4.664-3.794,8.438-8.46,8.438s-8.447-3.773-8.453-8.438v-42.773
					H380.01v42.756v0.294h0.012c0.16,16.44,13.521,29.726,30.003,29.726C426.509,522.162,439.875,508.878,440.033,492.438
					 M495.379,486.454c-0.36,7.889-6.849,14.18-14.825,14.18c-8.205,0-14.858-6.65-14.858-14.856
					c0-8.208,6.653-14.856,14.858-14.856c7.978,0,14.465,6.286,14.825,14.175V486.454z M516.938,522.162L516.938,522.162v-72.774
					h-21.56v3.18c-4.532-2.023-9.539-3.18-14.825-3.18c-20.096,0-36.386,16.289-36.386,36.39c0,20.093,16.29,36.386,36.386,36.386
					c5.286,0,10.293-1.155,14.825-3.177v3.177H495.3c-0.017,4.665-3.793,8.443-8.459,8.459v0.072h-4.941v21.565h4.941
					C503.456,552.247,516.926,538.775,516.938,522.162 M573.538,522.162h21.563v-36.388c0-20.099-8.874-36.388-28.973-36.388
					c-6.379,0-11.744,1.657-16.102,4.538v-22.954h-21.565v91.19h21.565v-36.386h0.005c0-8.208,3.564-14.856,11.772-14.856
					c8.206,0,11.77,6.648,11.77,14.854h-0.036V522.162L573.538,522.162z M632.39,492.063v-21.109h13.021v-21.564H632.39v-18.416
					h-21.563v18.416h-12.58v21.564h12.58v21.563h0.024c0.254,16.407,13.604,29.631,30.07,29.644v0.003h4.939V500.6h-4.939v-0.075
					c-4.669-0.016-8.447-3.794-8.46-8.462H632.39z"/>
			</g>
		</g>
	</g>
</g>
</svg>
