<?xml version="1.0" encoding="utf-8"?>
<!-- Generator: Adobe Illustrator 18.0.0, SVG Export Plug-In . SVG Version: 6.00 Build 0)  -->
<!DOCTYPE svg PUBLIC "-//W3C//DTD SVG 1.1//EN" "http://www.w3.org/Graphics/SVG/1.1/DTD/svg11.dtd">
<svg version="1.1" id="Layer_1" xmlns="http://www.w3.org/2000/svg" xmlns:xlink="http://www.w3.org/1999/xlink" x="0px" y="0px"
	 viewBox="0 0 587.5 542.3" enable-background="new 0 0 587.5 542.3" xml:space="preserve">
<g>
	<g>
		<path fill="none" stroke="#9AEFE8" stroke-width="1.351" d="M483.7,300.5c-3.5,25,2.5,51.6,14.2,53.2
			c11.8,1.6,24.8-22.3,28.4-47.2c3.5-25-2.5-51.6-14.2-53.2C500.2,251.6,487.2,275.5,483.7,300.5z"/>
		<path fill="none" stroke="#9AEFE8" stroke-width="1.351" d="M496.9,283.5c-23.4,9.4-43.4,27.9-39,38.9c4.5,11,31.7,10.4,55.1,0.9
			c23.4-9.4,43.4-27.9,39-38.9C547.5,273.5,520.3,274.1,496.9,283.5z"/>
		<path fill="none" stroke="#9AEFE8" stroke-width="1.351" d="M518.2,286.5c-19.9-15.5-45.9-23.6-53.2-14.3
			c-7.3,9.4,6.9,32.7,26.7,48.2c19.9,15.5,45.9,23.6,53.2,14.3C552.2,325.4,538.1,302.1,518.2,286.5z"/>
		<path fill="#414141" d="M515.6,327.7c-0.4,2.5,1.4,4.9,4,5.3c2.5,0.4,4.9-1.4,5.3-4c0.4-2.5-1.4-4.9-4-5.2
			C518.3,323.4,516,325.2,515.6,327.7"/>
		<path fill="#414141" d="M472.7,293.3c-0.4,2.5,1.4,4.9,4,5.3c2.5,0.4,4.9-1.4,5.3-4c0.4-2.5-1.4-4.9-4-5.2
			C475.4,288.9,473,290.7,472.7,293.3"/>
		<path fill="#414141" d="M513.9,286.1c-0.4,2.5,1.4,4.9,4,5.3c2.5,0.4,4.9-1.4,5.3-4c0.4-2.5-1.4-4.9-4-5.3
			C516.6,281.8,514.3,283.6,513.9,286.1"/>
		<path fill="#414141" d="M492,301.7c-1,7.1,4,13.7,11.1,14.7c7.1,1,13.7-4,14.8-11.1c1-7.1-4-13.7-11.1-14.7
			C499.6,289.5,493,294.5,492,301.7"/>
		<path fill="#C4FFFA" d="M482.8,533.4c-0.2-0.1-1.4,1-2.2,0c-0.2-0.2-0.8-0.6-1.2-0.7c-0.5-0.2-2.6-0.8-1.8-2
			c-0.7-0.6,0.7-2.4,2.4-1.7c1.5,0.7,1.7-0.7,2.8-0.3c0.4,0.1,0.5,0.5,0.7,0.8c0.4,0.4,1.6,0.6,1.3,1.8c-0.2,0.9-0.8,1.4-1.3,1.5
			c-0.1,0-0.4,0-0.6,0.3"/>
	</g>
	<g>
		<path fill="#414141" d="M432.6,196.6c0-5,4.2-9,9.4-9h74.7c5.2,0,9.4,4,9.4,9v41c0,5-4.2,9-9.4,9H442c-5.2,0-9.4-4-9.4-9V196.6z"
			/>
		<path fill="#414141" d="M457.1,241.8c0-0.9,0.8-1.7,1.7-1.7h43.9c1,0,1.7,0.7,1.7,1.7v8.8c0,0.9-0.8,1.7-1.7,1.7h-43.9
			c-1,0-1.7-0.7-1.7-1.7V241.8z"/>
	</g>
	<g>
		<path fill="#414141" d="M528.7,204.7c0-3.2,1.9-5.8,4.3-5.8h37.5c2.4,0,4.3,2.6,4.3,5.8v30.7c0,3.2-1.9,5.8-4.3,5.8H533
			c-2.4,0-4.3-2.6-4.3-5.8V204.7z"/>
		<path fill="#414141" d="M507.4,208.2c0-2.5,1.9-4.5,4.3-4.5h34.4c2.4,0,7.5,2,7.5,4.5v23.6c0,2.5-5.1,4.5-7.5,4.5h-34.4
			c-2.4,0-4.3-2-4.3-4.5V208.2z"/>
		<path fill="none" stroke="#9AEFE8" stroke-width="0.561" stroke-miterlimit="10" d="M475.1,209.4c0-2.2,1.7-4,3.9-4h30.9
			c2.1,0,3.9,1.8,3.9,4v21.2c0,2.2-1.7,4-3.9,4H479c-2.1,0-3.9-1.8-3.9-4V209.4z"/>
		<path fill="#9AEFE8" d="M441.3,218.7c0-0.3,0.5-0.5,1.2-0.5h9.8c0.7,0,1.2,0.2,1.2,0.5v2.6c0,0.3-0.6,0.5-1.2,0.5h-9.8
			c-0.7,0-1.2-0.2-1.2-0.5V218.7z"/>
		<path fill="#9AEFE8" d="M454.5,218.7c0-0.3,0.2-0.5,0.4-0.5h2.8c0.2,0,0.4,0.2,0.4,0.5v2.6c0,0.3-0.2,0.5-0.4,0.5h-2.8
			c-0.2,0-0.4-0.2-0.4-0.5V218.7z"/>
		<path fill="#9AEFE8" d="M459.1,218.7c0-0.3,0.2-0.5,0.4-0.5h2.8c0.2,0,0.4,0.2,0.4,0.5v2.6c0,0.3-0.2,0.5-0.4,0.5h-2.8
			c-0.2,0-0.4-0.2-0.4-0.5V218.7z"/>
		<path fill="#414141" d="M533.3,224.2c0-3.8,6.9-15.7,9.5-15.7l25.6-13.7c2.7,0,8-0.6,8,3.2v44c0,3.8-5.3,3.2-8,3.2l-25.6-12.1
			c-2.7,0-9.5-11-9.5-14.8V224.2z"/>
		<path fill="#9AEFE8" d="M503.5,189.5c-10.6,0-19.2-8.6-19.2-19.2c0-10.6,8.6-19.2,19.2-19.2c10.6,0,19.2,8.6,19.2,19.2
			C522.7,180.9,514.1,189.5,503.5,189.5"/>
		<path fill="#414141" d="M503.6,197.1c5.6,0,10.2-4.6,10.2-10.2s-4.5-10.2-10.2-10.2c-5.6,0-10.2,4.6-10.2,10.2
			S498,197.1,503.6,197.1 M520.5,180.2c5.6,0,10.2-4.6,10.2-10.2c0-5.6-4.6-10.2-10.2-10.2s-10.2,4.6-10.2,10.2
			C510.4,175.6,514.9,180.2,520.5,180.2 M486.6,180.2c5.6,0,10.2-4.6,10.2-10.2c0-5.6-4.6-10.2-10.2-10.2c-5.6,0-10.2,4.6-10.2,10.2
			C476.5,175.6,481,180.2,486.6,180.2 M503.6,163.2c5.6,0,10.2-4.6,10.2-10.2c0-5.6-4.5-10.2-10.2-10.2c-5.6,0-10.2,4.6-10.2,10.2
			C493.4,158.6,498,163.2,503.6,163.2 M503.6,135.9c19,0,34.4,15.4,34.4,34.4c0,19-15.4,34.4-34.4,34.4c-19,0-34.4-15.4-34.4-34.4
			C469.2,151.2,484.6,135.9,503.6,135.9"/>
		<path fill="#F7F6F0" d="M503.5,173c-1.5,0-2.7-1.2-2.7-2.7c0-1.5,1.2-2.7,2.7-2.7c1.5,0,2.7,1.2,2.7,2.7
			C506.3,171.8,505,173,503.5,173"/>
		<path fill="#9AEFE8" d="M440.9,190.9c-8.8,0-16-7.1-16-16c0-8.8,7.1-16,16-16c8.8,0,16,7.1,16,16
			C456.8,183.8,449.7,190.9,440.9,190.9"/>
		<path fill="#414141" d="M440.9,196.4c4.5,0,8.1-3.6,8.1-8.1c0-4.5-3.6-8.1-8.1-8.1c-4.5,0-8.1,3.6-8.1,8.1
			C432.8,192.8,436.4,196.4,440.9,196.4 M454.3,182.9c4.5,0,8.1-3.6,8.1-8.1c0-4.5-3.6-8.1-8.1-8.1c-4.5,0-8.1,3.6-8.1,8.1
			C446.3,179.3,449.9,182.9,454.3,182.9 M427.4,182.9c4.5,0,8.1-3.6,8.1-8.1c0-4.5-3.6-8.1-8.1-8.1c-4.5,0-8.1,3.6-8.1,8.1
			C419.3,179.3,422.9,182.9,427.4,182.9 M440.9,169.4c4.5,0,8.1-3.6,8.1-8.1c0-4.5-3.6-8.1-8.1-8.1c-4.5,0-8.1,3.6-8.1,8.1
			C432.8,165.8,436.4,169.4,440.9,169.4 M440.9,147.6c15.1,0,27.3,12.2,27.3,27.4c0,15.1-12.2,27.4-27.3,27.4
			c-15.1,0-27.3-12.2-27.3-27.4C413.5,159.9,425.8,147.6,440.9,147.6"/>
		<path fill="#F7F6F0" d="M440.9,177.1c-1.1,0-2.1-0.9-2.1-2.1c0-1.1,0.9-2.1,2.1-2.1c1.1,0,2.1,0.9,2.1,2.1
			C442.9,176.1,442,177.1,440.9,177.1"/>
	</g>
	<rect x="558" y="198.9" fill="#9AEFE8" width="1.5" height="42.2"/>
	<rect x="554.3" y="198.9" fill="#9AEFE8" width="1.5" height="42.2"/>
	<rect x="568.6" y="194.8" fill="#9AEFE8" width="4.7" height="50.5"/>
	<rect x="532.8" y="238.4" fill="#9AEFE8" width="4" height="1.2"/>
	<rect x="532.8" y="236.3" fill="#9AEFE8" width="4" height="1.2"/>
	<rect x="532.8" y="234.2" fill="#9AEFE8" width="4" height="1.2"/>
	<rect x="532.8" y="232" fill="#9AEFE8" width="4" height="1.2"/>
	<rect x="532.8" y="229.9" fill="#9AEFE8" width="4" height="1.2"/>
	<rect x="532.8" y="227.8" fill="#9AEFE8" width="4" height="1.2"/>
	<rect x="532.8" y="225.7" fill="#9AEFE8" width="4" height="1.2"/>
	<rect x="532.8" y="223.5" fill="#9AEFE8" width="4" height="1.2"/>
	<rect x="532.8" y="221.4" fill="#9AEFE8" width="4" height="1.2"/>
	<rect x="532.8" y="219.3" fill="#9AEFE8" width="4" height="1.2"/>
	<rect x="532.8" y="217.2" fill="#9AEFE8" width="4" height="1.2"/>
	<rect x="532.8" y="215" fill="#9AEFE8" width="4" height="1.2"/>
	<rect x="532.8" y="212.9" fill="#9AEFE8" width="4" height="1.2"/>
	<rect x="532.8" y="210.8" fill="#9AEFE8" width="4" height="1.2"/>
	<rect x="532.8" y="208.7" fill="#9AEFE8" width="4" height="1.2"/>
	<rect x="532.8" y="206.5" fill="#9AEFE8" width="4" height="1.2"/>
	<rect x="532.8" y="204.4" fill="#9AEFE8" width="4" height="1.2"/>
	<rect x="532.8" y="202.3" fill="#9AEFE8" width="4" height="1.2"/>
	<rect x="532.8" y="200.2" fill="#9AEFE8" width="4" height="1.2"/>
	<g>
		<path fill="#414141" d="M438.4,2.8c-1.6,0-3.1,0.2-4.7,0.6c-11,2.9-17.4,15.2-14.4,27.5c0.7,2.8,1.8,5.3,3.3,7.6h0
			c5.6,8.9,13.3,8.2,19.5,20.9c6.2,12.7,10.7,39.9,10.7,39.9l9.6,120.4c0,0,0.9,0,1.4-2.1c0.3-1.1,3.5-55.4,5.4-88.7
			c0.9-14.7,1.5-25.3,1.5-25.3c-0.3-10.7-8.7-7.1-12.1-16.6c-3.4-9.5-7.3-24.7-7.6-31.3c-0.2-5.4,3.6-13.4,5-16
			c3.5-5.3,4.9-12.3,3.1-19.3C456.4,9.9,447.7,2.8,438.4,2.8 M439.1,42.3c-6.9,0-13.1-5.9-14.4-14.1c-1.4-9,3.7-17.3,11.4-18.6
			c0.7-0.1,1.4-0.2,2.1-0.2c6.9,0,13.1,5.9,14.4,14.1c1.4,9-3.7,17.3-11.5,18.6C440.5,42.2,439.8,42.3,439.1,42.3 M461.9,123.5
			c-1.3,0-2.5-0.6-3.2-1.8c-1.1-1.8-0.5-4.1,1.3-5.2c0.6-0.4,1.3-0.6,2-0.6c1.3,0,2.5,0.6,3.2,1.8c1.1,1.8,0.5,4.1-1.3,5.2
			c-0.5,0.3-1,0.5-1.5,0.5l-0.1,0C462.2,123.5,462,123.5,461.9,123.5"/>
		<path fill="#414141" d="M484.8,3.7c-0.6,0-1.1,0-1.7,0.1c-10.6,1-18.5,11.6-17.5,23.6c0.2,2.5,0.8,4.9,1.6,7.1
			c0.8,2.1,2.1,5.2,4.1,9c3.8,7,1.2,14.2-1.4,25.1c-1.9,7.8-3.9,15.2-5.4,20.3c2.1,2.1,7.3,5.6,7.3,5.6s4.5-24.9,6.6-33.7
			c3.5-14.7,2.6-6.4,15.6-16.1c0.9-0.6,1.8-1.2,2.6-1.9l0.1-0.1l0,0c5-4.4,7.9-11.5,7.3-19.1C503.2,12.2,494.7,3.7,484.8,3.7
			 M484.8,42.5c-6.9,0-13.1-5.9-14.4-14.1c-1.4-9,3.7-17.3,11.5-18.6c0.7-0.1,1.4-0.2,2.1-0.2c6.9,0,13.1,5.9,14.4,14.1
			c1.4,9-3.8,17.3-11.5,18.6C486.1,42.4,485.5,42.5,484.8,42.5"/>
		<path fill="#9AEFE8" d="M462,116c-0.7,0-1.4,0.2-2,0.6c-1.8,1.1-2.4,3.4-1.3,5.2c0.7,1.2,1.9,1.8,3.2,1.8c0.1,0,0.3,0,0.4,0l0.1,0
			c0.5-0.1,1-0.2,1.5-0.5c1.8-1.1,2.4-3.4,1.3-5.2C464.5,116.6,463.3,116,462,116"/>
		<path fill="#9AEFE8" d="M80.2,397.9l11.2-1.7v-8.3l-17.9-1.1l-1.7,2c3,1.7,5.1,4.9,5.3,8.7h0.4L80.2,397.9z M-5.2,397.5h61.4
			c0.1-3.5,2-6.6,4.8-8.3l-1.3-2.9l-64.8,11.1V397.5z"/>
		<path fill="#9AEFE8" d="M59.6,409.7l1.3-2.9c-2.9-1.9-4.8-5.1-4.8-8.8c0-0.1,0-0.3,0-0.4H-5.2v1.1L59.6,409.7z M73.5,409l17.9-1.1
			v-8.3l-11.2-1.7l-2.7-0.4H77c0,0.1,0,0.3,0,0.4c0,3.9-2.1,7.3-5.3,9.1L73.5,409z"/>
		<path fill="#414141" d="M66.6,408.4c1.9,0,3.6-0.5,5.2-1.4c3.2-1.8,5.3-5.2,5.3-9.1c0-0.1,0-0.3,0-0.4c-0.1-3.7-2.2-6.9-5.3-8.6
			c-1.5-0.9-3.3-1.4-5.2-1.4c-2.1,0-4,0.6-5.7,1.7c-2.8,1.8-4.6,4.8-4.8,8.3c0,0.1,0,0.3,0,0.4c0,3.7,1.9,6.9,4.8,8.8
			C62.6,407.8,64.5,408.4,66.6,408.4 M66.6,395.7c1.3,0,2.3,1,2.3,2.3c0,1.3-1,2.3-2.3,2.3c-1.3,0-2.3-1-2.3-2.3
			C64.3,396.7,65.3,395.7,66.6,395.7"/>
		<path fill="#9AEFE8" d="M66.6,400.2c1.3,0,2.3-1,2.3-2.3c0-1.3-1-2.3-2.3-2.3c-1.3,0-2.3,1-2.3,2.3
			C64.3,399.2,65.3,400.2,66.6,400.2"/>
		<path fill="#414141" d="M153.2,427.7L153.2,427.7c11.6,0,25.2-2.7,41.8-9.7c2-0.9,3.3-2.8,3.3-4.9c0-0.7-0.1-1.4-0.4-2.1
			c-0.9-2-2.8-3.3-4.9-3.3c-0.7,0-1.4,0.1-2.1,0.4c-15.6,6.6-27.7,8.9-37.6,8.9c-13.1,0-22.7-3.9-32.1-8.3
			c-4.7-2.2-9.3-4.4-14.3-6.2c-4.8-1.7-9.9-2.9-15.4-3v0.2v8.3v2.2c4,0.1,7.8,1,11.8,2.4c6.3,2.2,13,5.9,21,9.2
			C132.3,425,141.7,427.7,153.2,427.7"/>
		<path fill="#414141" d="M91.4,396.4c5.6-0.1,10.7-1.3,15.4-3c5-1.8,9.6-4,14.3-6.2c9.4-4.3,19-8.3,32.1-8.3c9.9,0,22,2.3,37.6,8.9
			c0.7,0.3,1.4,0.4,2.1,0.4c2.1,0,4.1-1.2,4.9-3.3c0.3-0.7,0.4-1.4,0.4-2.1c0-2.1-1.2-4.1-3.3-4.9c-16.6-7-30.2-9.7-41.8-9.7h0h-0.1
			c-11.5,0-20.9,2.7-28.9,5.9c-8,3.2-14.7,6.9-21,9.2c-4,1.4-7.8,2.3-11.8,2.4v2.2v8.3V396.4z"/>
		<path fill="#9AEFE8" d="M237.6,127.9l23.8,0c0,0,3.6-2,3.6-4.6c0-2.7,0-12.3,0-19.2c0-12.1,22.1-38.7,63.5,2.5
			c-41-61-92-47.9-96.8-41.2c-6.6,9.5-23.5,6.4-27.8-3c-2.9,0-7.1,0-16.4,0c-4.1,6.9-4,24,0,31.8c9,0,12.4,0,16.3,0
			c8.5-12.2,29.6-5.7,29.6,8.9c0,10.8,0,16.6,0,20.2C233.4,126.9,237.6,127.9,237.6,127.9"/>
		<path fill="#414141" d="M267.4,341.7l-1.7-60.6h0.2l-4.4-151.4l-23.8,0l-4.4,151.4h0.2l-1.7,60c0,0-0.5,10.9,6,10.9
			c6.7,0,18.6,0,24.6,0C268.1,352.1,267.4,341.7,267.4,341.7"/>
	</g>
	<polygon fill="#414141" points="47.5,192.5 47.3,220.6 48.2,220.6 48.3,194.8 49.9,194.8 50.1,194.5 50.8,194.8 51.6,194.8 
		51.6,195.3 68.9,205.1 68.5,205.8 51.6,196.2 51.6,196.7 68,206 68,220.4 69.1,221 69.6,221 69.7,205 	"/>
	<polygon fill="#414141" points="51.5,211.1 51.5,212 67.3,221 69.1,221 68,220.4 	"/>
	<polygon fill="#414141" points="50.7,227.4 66.8,236.5 66.8,235.5 52.4,227.4 	"/>
	<polygon fill="#414141" points="50.2,242 50.2,242.9 66.8,252.3 66.8,251.3 	"/>
	<polygon fill="#414141" points="50.2,257.8 50.2,258.8 66.7,268.1 66.7,267.1 	"/>
	<polygon fill="#414141" points="50.2,273.6 50.2,274.6 66.7,283.9 66.7,283 	"/>
	<polygon fill="#414141" points="50.2,289.5 50.2,290.4 66.7,299.7 66.7,298.8 	"/>
	<g>
		<path fill="#414141" d="M59.1,326.1c-0.3,0-0.7,0-1,0c-0.2,0-0.4,0-0.7,0l9.2,5.2l0-1L59.1,326.1z"/>
	</g>
	<polygon fill="#414141" points="50.2,336.9 50.2,337.9 66.6,347.2 66.6,346.2 	"/>
	<path fill="#414141" d="M48.3,194.8l-0.1,25.8l3.3,0.1l0-8.6l0-1l0.1-14.4v-0.5l-1.9-1.1l0.2-0.4L48.3,194.8z M50.8,194.8l0.8,0.5
		l0-0.5L50.8,194.8z"/>
	<g>
		<path fill="#9AEFE8" d="M46,220.6l-0.6,0.3L45.4,238l-13,1.2c0,0,0.5,8.4,0.4,13.2c0,2.2,6.8,7.7,6.7,18.3
			c-0.1,16.2-0.2,29.4-0.3,38.8c-0.1,16.5-4.2,24.4-7.3,27.9l-0.1,0.1c-1.3,1.4-2.5,3-3.5,4.7c-6.8,12-2.5,27.3,9.5,34.1
			c2.6,1.5,5.4,2.4,8.2,2.9l0.1,0l0.2,0c1.3,0.2,2.6,0.3,3.9,0.3c8.1,0,16-3.9,20.8-11.1c4.1-5.7,5.4-12.8,5.5-18.8l0.7-115.8
			l-5.6-2.6l0.1-10.3l-1.9,0l0,0l-0.5,0l-1.8,0l-15.9-0.3l-3.3-0.1l-0.8,0L46,220.6z M50.2,242l0-14.6l0.4,0l1.7,0l14.4,0.2l0,8v1
			l0,14.9v1l0,14.9l0,1l0,14.9l0,1l0,14.9v1v0.3c0.2,0.1,0.3,0.2,0.5,0.4c0.6,0.4,1.1,0.9,1.6,1.5c0.3,0.3,0.6,0.7,0.9,1.1
			c0.1,0.2,0.3,0.3,0.4,0.5c0.8,1.1,1.4,2.3,1.8,3.7c0.5,1.5,0.7,3,0.7,4.5c0,3.1-1,6-2.7,8.4c-0.1,0.2-0.3,0.4-0.4,0.5
			c-0.3,0.4-0.6,0.7-0.9,1l-0.3,0.3c-0.3,0.3-0.5,0.5-0.8,0.8l-0.1,0.1c-0.2,0.2-0.5,0.4-0.7,0.6l0,7l0,1l0,4.4l0,10.5v1l0,3
			l-16.5-0.1l0-12.2v-1l0-7.3l0-5.8c-0.1-0.1-0.3-0.2-0.4-0.3l0,0c-0.2-0.2-0.5-0.3-0.7-0.5l-0.3-0.3c-0.7-0.6-1.4-1.3-2-2.1
			c-0.5-0.6-0.9-1.2-1.2-1.9c-0.2-0.4-0.4-0.7-0.6-1.1c-0.2-0.4-0.3-0.8-0.5-1.2c-0.5-1.5-0.7-3.1-0.7-4.6c0-2.1,0.5-4.1,1.3-5.9
			c0.2-0.4,0.4-0.8,0.6-1.1c0.4-0.7,0.8-1.3,1.3-1.9c0.7-0.8,1.4-1.6,2.3-2.3l0.1-0.1c0.2-0.2,0.5-0.4,0.7-0.5l0,0l0.2-0.1
			c0,0,0,0,0.1,0l0-9.2v-1l0-14.9v-1l0-14.9l0-1l0-14.9V242z"/>
		<path fill="#414141" d="M58.1,297.2c-1.5,0-3,0.2-4.5,0.7c-0.8,0.3-1.6,0.6-2.4,1c-0.2,0.1-0.4,0.2-0.6,0.3
			c-0.1,0.1-0.3,0.2-0.4,0.3c0,0,0,0-0.1,0l-0.2,0.1l0,0c-0.3,0.2-0.5,0.4-0.7,0.5l-0.1,0.1c-0.9,0.7-1.6,1.5-2.3,2.3
			c-0.5,0.6-0.9,1.2-1.3,1.9c-0.2,0.4-0.4,0.7-0.6,1.1c-0.8,1.8-1.3,3.9-1.3,5.9c0,1.5,0.2,3.1,0.7,4.6c0.1,0.4,0.3,0.8,0.5,1.2
			c0.2,0.4,0.4,0.8,0.6,1.1c0.4,0.7,0.8,1.3,1.3,1.9c0.6,0.8,1.3,1.5,2,2.1l0.3,0.3c0.2,0.2,0.5,0.4,0.7,0.5l0,0
			c0.1,0.1,0.3,0.2,0.4,0.3c0.1,0.1,0.2,0.1,0.2,0.2c2.1,1.3,4.5,2.1,7,2.2c0.2,0,0.4,0,0.7,0c0.3,0,0.7,0,1,0
			c1.2-0.1,2.4-0.3,3.6-0.7c1.2-0.4,2.3-1,3.4-1.6l0,0c0.2-0.1,0.4-0.3,0.6-0.4c0.2-0.2,0.5-0.4,0.7-0.6l0.1-0.1
			c0.3-0.2,0.6-0.5,0.8-0.8l0.3-0.3c0.3-0.3,0.6-0.7,0.9-1c0.1-0.2,0.3-0.4,0.4-0.5c1.7-2.4,2.7-5.4,2.7-8.4c0-1.5-0.2-3-0.7-4.5
			c-0.4-1.3-1.1-2.6-1.8-3.7c-0.1-0.2-0.2-0.3-0.4-0.5c-0.3-0.4-0.6-0.7-0.9-1.1c-0.5-0.5-1-1-1.6-1.5c-0.2-0.1-0.3-0.3-0.5-0.4
			c-0.2-0.1-0.3-0.2-0.5-0.3l0,0C63.8,298.1,61,297.2,58.1,297.2"/>
	</g>
	<polygon fill="#414141" points="50.1,194.5 49.9,194.8 49.7,195.2 51.6,196.2 68.5,205.8 68.9,205.1 51.6,195.3 50.8,194.8 	"/>
	<g>
		<path fill="#414141" d="M532.9,479.9H499c-0.2,2.5-0.7,9.5-1.6,12.4c-1.4,4.5-5.7,5-9.6,6v3.4h56.2v-3.4c-3.9-1-8.2-1.5-9.6-6
			C533.6,489.4,533.1,482.4,532.9,479.9"/>
		<path fill="#414141" d="M581.4,383.4H450.5c-3.3,0-5.9,2.7-5.9,5.9V474c0,3.3,2.7,5.9,5.9,5.9H499h33.9h48.5
			c3.3,0,5.9-2.7,5.9-5.9v-84.6C587.3,386.1,584.6,383.4,581.4,383.4 M451.2,471.6v-81.2h127.9v0.4h0.6v19.4h-0.6v61.5H451.2z"/>
		<path fill="#F7F6F0" d="M579.1,390.4H451.2v81.2h127.9v-61.5H451.3v-19.4h127.9V390.4z M478.7,419.5h6.6v35.3h-6.6V419.5z
			 M551.3,440l10-13.2v28H522l8.7-12.9l6,7.1l9.7-15.6L551.3,440z M501.7,433h6.6v21.8h-6.6V433z M467.1,433h6.6v21.8h-6.6V433z
			 M490.2,443.2h6.6v11.6h-6.6V443.2z M519.1,462.1c-0.8,0-1.4-0.7-1.4-1.5c0-0.8,0.6-1.5,1.4-1.5h45.1c0.8,0,1.4,0.7,1.4,1.5
			c0,0.8-0.6,1.5-1.4,1.5H519.1z M465.2,462.1c-0.8,0-1.4-0.7-1.4-1.5c0-0.8,0.6-1.5,1.4-1.5h45.1c0.8,0,1.4,0.7,1.4,1.5
			c0,0.8-0.6,1.5-1.4,1.5H465.2z"/>
		<path fill="#9AEFE8" d="M579.7,390.7h-0.6H451.3v19.4h127.9h0.6V390.7z M458.7,397.7h87.1v6.4h-87.1V397.7z M570.9,403.9
			c-1.6,0-2.8-1.4-2.8-3c0-1.7,1.3-3,2.8-3c1.6,0,2.8,1.3,2.8,3C573.8,402.6,572.5,403.9,570.9,403.9 M562.5,403.9
			c-1.6,0-2.8-1.4-2.8-3c0-1.7,1.3-3,2.8-3c1.6,0,2.8,1.3,2.8,3C565.4,402.6,564.1,403.9,562.5,403.9 M554.1,403.9
			c-1.6,0-2.8-1.4-2.8-3c0-1.7,1.3-3,2.8-3c1.6,0,2.8,1.3,2.8,3C556.9,402.6,555.7,403.9,554.1,403.9"/>
	</g>
	<rect x="458.7" y="397.7" fill="#F7F6F0" width="87.1" height="6.4"/>
	<g>
		<path fill="#F7F6F0" d="M562.5,397.9c-1.6,0-2.8,1.3-2.8,3c0,1.7,1.3,3,2.8,3c1.6,0,2.8-1.4,2.8-3
			C565.4,399.3,564.1,397.9,562.5,397.9"/>
		<path fill="#F7F6F0" d="M554.1,397.9c-1.6,0-2.8,1.3-2.8,3c0,1.7,1.3,3,2.8,3c1.6,0,2.8-1.4,2.8-3
			C556.9,399.3,555.7,397.9,554.1,397.9"/>
		<path fill="#F7F6F0" d="M570.9,397.9c-1.6,0-2.8,1.3-2.8,3c0,1.7,1.3,3,2.8,3c1.6,0,2.8-1.4,2.8-3
			C573.8,399.3,572.5,397.9,570.9,397.9"/>
	</g>
	<rect x="478.7" y="419.5" fill="#9AEFE8" width="6.6" height="35.3"/>
	<rect x="467.1" y="433" fill="#414141" width="6.6" height="21.8"/>
	<rect x="501.7" y="433" fill="#9AEFE8" width="6.6" height="21.8"/>
	<rect x="490.2" y="443.2" fill="#414141" width="6.6" height="11.6"/>
	<g>
		<path fill="#414141" d="M510.3,459.2h-45.1c-0.8,0-1.4,0.7-1.4,1.5c0,0.8,0.6,1.5,1.4,1.5h45.1c0.8,0,1.4-0.7,1.4-1.5
			C511.7,459.9,511,459.2,510.3,459.2"/>
	</g>
	<polygon fill="#9AEFE8" points="561.3,426.8 551.3,440 546.3,433.3 536.6,448.9 530.7,441.9 522,454.8 561.3,454.8 	"/>
	<g>
		<path fill="#414141" d="M564.2,459.2h-45.1c-0.8,0-1.4,0.7-1.4,1.5c0,0.8,0.6,1.5,1.4,1.5h45.1c0.8,0,1.4-0.7,1.4-1.5
			C565.6,459.9,564.9,459.2,564.2,459.2"/>
		<path fill="#9AEFE8" d="M48,131.3l7.6,13.2l15.3,0l7.6-13.2l-7.6-13.2l-15.3,0L48,131.3z M69.8,131.3c0,1.1-0.3,2.2-0.9,3.3
			c-1.8,3.1-5.8,4.2-9,2.4c-2.1-1.2-3.3-3.4-3.3-5.7c0-1.1,0.3-2.2,0.9-3.3c1.8-3.1,5.8-4.2,9-2.4C68.7,126.9,69.8,129.1,69.8,131.3
			"/>
		<path fill="#414141" d="M212.1,115.9l13.4,7.7v15.5l-13.4,7.7l-13.4-7.7l0-15.5L212.1,115.9z M91.3,105.9
			c-12.9-5.5-26.8,2.5-31.2,10.7c19.5,0,22.2,0,22.2,14.7c0,14.7-2.7,14.7-22.2,14.7c4.4,8.2,18.3,16.2,31.2,10.7
			c12.9-5.5,7.5-15.2,19.9-15.2c7.3,0,53.2-0.1,72.4,0c5.4,0,8.3,2.8,9.4,4c0.2,0.3,0.4,0.5,0.4,0.6l0.1,0.1v0
			c4.4,5.4,11.1,8.9,18.6,8.9c13.2,0,23.9-10.7,23.9-23.9c0-13.2-10.7-23.9-23.9-23.9c-7.5,0-14.2,3.5-18.6,8.9l0,0l-0.1,0.1
			c-0.1,0.1-0.2,0.3-0.4,0.6c-1.1,1.3-4,4-9.4,4c-19.3,0.1-65.1,0-72.4,0C98.9,121.1,104.2,111.4,91.3,105.9"/>
	</g>
	<polygon fill="#FFFFFF" points="75.3,477.8 23.2,520 241.9,520 191.1,476.3 	"/>
	<polygon fill="#707070" points="71.9,476.3 15.6,517.9 21.4,524 77.6,482.3 	"/>
	<polygon fill="#707070" points="191.8,476.3 248.1,517.9 242.3,524 186.1,482.3 	"/>
	<rect x="15.6" y="517.8" fill="#707070" width="232.4" height="9.3"/>
	<g>
		<path fill="#9AEFE8" d="M192.2,427.1H71.8c-13.5,15.8,11.3,35.1-1.3,42v10h123.1v-10C181,462.2,205.7,442.8,192.2,427.1"/>
	</g>
	<rect x="73.6" y="479" fill="#414141" width="116.8" height="8.9"/>
	<g>
		<g opacity="0.61">
			<g>
				<defs>
					<rect id="SVGID_1_" x="22.5" y="485.4" width="220.5" height="29.5"/>
				</defs>
				<clipPath id="SVGID_2_">
					<use xlink:href="#SVGID_1_"  overflow="visible"/>
				</clipPath>
				<polygon clip-path="url(#SVGID_2_)" fill="#9AEFE8" points="73.6,487.9 45.2,509.8 220.2,512.4 190.4,487.9 				"/>
			</g>
		</g>
		<path fill="#9AEFE8" d="M47.8,507.6l-5.7,4.8c0,0,1.6,3.4,8.5,1.6c6.9-1.8,6.4-0.7,8.1,0.1c4.8,2.3,10.3,1.2,13.3,0.5
			c1.1,1,5.4,3.3,12.1,0.8c6.6-2.6,10-0.3,10-0.3s7.5,1.2,12.6-1.2c8.2,2.5,12.5,3.6,22.1,0.8c4.7,2.9,15.9,1.4,20.9-0.4
			c5.3-1.8,7.8-1,12.7,0.5c6.2,1.9,16.2,1.4,18.8-0.1c2.6-1.5,8-1.5,11.7-0.4c3.7,1.1,8.8,1,10,0s4.1-2.4,7.2-1.3
			c3,1.2,8.4,2.1,10.2-0.5c-4.6-4.1-14.2-11.6-14.2-11.6s5.7,5.2,7.1,6.9c-3-1.8-6.1,0.1-6.1,0.1s-3,2.4-6.8,0
			c-3.7-2.4-10.1-0.6-10.1-0.6l-4.3-6.9l3.5,7.3l-3,0.1l-1.5-3.7l0.7,3.7c0,0-4.6-1.2-7.7,0c-3.1,1.2-5.2,0-5.2,0s-2.5,1.5-6.4,0
			c-3.8-1.5-12.7,0-12.7,0s-3.8,1.3-6.1,0c-6.5-2.6-15.9-0.1-15.9-0.1l0.3-10.4l-1.4,10.4c0,0-7.9,4.1-15.7-0.1
			c-1.1-0.9-5.2-3-10.6,0c-1.8-1.5-5.5-0.2-5.5-0.2l2.5-7.8l-3.5,7.8c0,0-11.1,2.2-15,0.2c-3.9-2.1-8.4-0.2-8.4-0.2l2.1-4.1
			c0,0-2.5,3.1-3.2,4.1c-7.1,1.7-15.1-0.1-15.1-0.1l7.2-8.5c0,0-6.4,6.2-9,8.7C54.7,504.4,47.8,507.6,47.8,507.6"/>
		<path fill="#9AEFE8" d="M73.6,487.9h116.8c0,0-3.7-2.9-8.4-1.4c-4.6,1.5-8.1,0.8-11.6-0.2c-3.5-1-9.5-1.8-14,0.1
			c-2.6,1.2-9.6,1.3-12.9-0.1c-5.1-2.1-10.8-0.3-11.5,0.4c-0.4-0.4-6.8-2.2-12.7-0.4c-4.7,1.5-11-2.2-15.1-0.1
			c-3.2-1-6.4-0.4-9.9,0.4c-3.5,0.7-4.3,0-9.7-0.7C79.3,485.1,74.7,486.6,73.6,487.9"/>
		<path fill="#9AEFE8" d="M428.7,51.5l-3.1,6.6c0.8,0.8,1.8,1.4,3.1,1.4c1.2,0,2.3-0.5,3.1-1.4L428.7,51.5z"/>
		<path fill="#414141" d="M438.9,73.7c-0.9,0.8-2.2,1.3-3.5,1.3c-0.8,0-1.6-0.2-2.3-0.5v167.8h5.8V73.7z"/>
		<path fill="#414141" d="M418.5,73.7v168.6h5.8V74.6c-0.7,0.3-1.5,0.5-2.3,0.5C420.7,75.1,419.5,74.6,418.5,73.7"/>
	</g>
	<polygon fill="#414141" points="424.3,74.4 424.3,74.4 424.3,74.4 	"/>
	<g>
		<path fill="#414141" d="M432,75.4c-0.9,0.7-2.1,1.1-3.3,1.1c-1.3,0-2.4-0.4-3.3-1.1v167h6.7V75.4z"/>
		<path fill="#414141" d="M432.3,59.3c-1,0.9-2.2,1.4-3.6,1.4c-1.4,0-2.7-0.5-3.6-1.4L419,72.4l0,0c0.2,0.2,0.5,0.4,0.7,0.6
			c0.7,0.5,1.5,0.7,2.4,0.7c0.6,0,1.1-0.1,1.7-0.3c0.2-0.1,0.4-0.2,0.6-0.3l0.5-0.4c0.2,0.3,0.3,0.6,0.5,0.8l0.2,0.2
			c0.8,0.8,1.9,1.4,3.2,1.4c1.2,0,2.4-0.5,3.2-1.4l0.2-0.2c0.2-0.3,0.4-0.5,0.5-0.8l0.5,0.4c0.2,0.1,0.4,0.2,0.6,0.3
			c0.5,0.2,1.1,0.3,1.7,0.3c0.9,0,1.7-0.3,2.4-0.7c0.3-0.2,0.5-0.4,0.7-0.6v0L432.3,59.3z"/>
	</g>
	<rect x="418.5" y="243.7" fill="#414141" width="20.3" height="1.6"/>
	<rect x="418.5" y="246.6" fill="#414141" width="20.3" height="13.2"/>
	<rect x="418.5" y="261.2" fill="#414141" width="20.3" height="1.6"/>
	<g>
		<path fill="#9AEFE8" d="M438.9,264.1h-20.3v12.2c0.3,0.1,0.5,0.2,0.8,0.4c2.9,1.3,6,2,9.4,2c3.3,0,6.5-0.7,9.4-2
			c0.3-0.1,0.5-0.2,0.8-0.4V264.1z"/>
		<path fill="#9AEFE8" d="M166.8,347.1L166.8,347.1v30v4.3c0,8.7,6.4,15.8,14.2,15.8h43.8l5.6-6.1h32.4l5.8,6.1H294
			c7.8,0,14.2-7.1,14.2-15.8v-34.3h-48.5h-0.3h-0.3c-2.2,0-3.2,3.4-3.2,3.4h-18.2c0,0-0.4-3.4-3.2-3.4h-0.3h-0.5L166.8,347.1
			L166.8,347.1z M210.2,375.1c-2.1,0-3.7-1.9-3.7-4.1c0-2.3,1.7-4.1,3.7-4.1c2.1,0,3.7,1.9,3.7,4.1
			C213.9,373.2,212.2,375.1,210.2,375.1"/>
		<path fill="#9AEFE8" d="M197.1,229.3h-3.7c4,0.4,7.1,4.1,7.1,8.6l0,1.2v12.4c0,3,2.1,5.4,4.8,5.4h7.4h0.5c0.7-1.4,1.1-3,1.1-4.8
			v-13c0-5.4-3.9-9.8-8.8-9.8h-5.8L197.1,229.3z"/>
		<path fill="#414141" d="M236.8,217.6l-55.3,0.4l0,0v5c0,3.6,2.6,6.4,5.8,6.4h6.2h3.7l2.7,0h5.8c4.8,0,8.8,4.4,8.8,9.8v13
			c0,1.7-0.4,3.4-1.1,4.8c-0.9,1.8-2.3,3.2-3.9,4.1l0.4,1.5h9.2c4.1,0,7.4,3.7,7.4,8.2c2.9,34.7,7.7,47.9,9.1,51.1h13.2l-13.8-98.8
			C234.8,221,235.6,219,236.8,217.6"/>
		<path fill="#414141" d="M304.5,148.6H178.3v68.5l3.2,0.8l0,0l55.3-0.4c1.3-1.6,3.2-2.6,5.3-2.6h2.8h1.3H302c1.3,0,2.4,0.9,2.9,2.1
			c16.7-0.2,19.7-15.4,19.7-34.3C324.5,163.9,321.5,148.6,304.5,148.6"/>
	</g>
	<polygon fill="#414141" points="178.1,148.6 159.6,154.1 159.6,206.1 159.6,207.3 159.6,207.3 159.6,211.6 178.1,217.1 	"/>
	<polygon fill="#414141" points="98.3,158.5 81.9,165.8 81.9,200 98.3,207.2 	"/>
	<polygon fill="#9AEFE8" points="159.4,158.4 134.6,158.4 134.6,173.6 134.9,173.6 135,192.1 134.6,192.1 134.6,207.3 159.6,207.3 
		159.6,207.3 159.6,206.1 	"/>
	<polygon fill="#414141" points="134.9,173.6 134.6,173.6 129,173.6 129,192.1 134.6,192.1 135,192.1 	"/>
	<g>
		<path fill="#414141" d="M81.4,170.6h-7.8v6c0,0,0,0,0,0v12.6h0v6h7.9L81.4,170.6z"/>
	</g>
	<rect x="98.5" y="158.6" fill="#9AEFE8" width="41.1" height="48.6"/>
	<g>
		<path fill="#9AEFE8" d="M73.6,175.2C73.6,175.2,73.6,175.2,73.6,175.2c-3.2,0.1-6.2,1.2-8.2,3v9.4c1.9,1.7,4.8,2.9,8.1,2.9h0
			V175.2z"/>
		<path fill="#9AEFE8" d="M302,215h-55.7h-1.3h-2.8c-2.1,0-4,1-5.3,2.6c-1.2,1.4-1.9,3.4-1.9,5.5l13.8,98.8H280
			c3.9-21.3-12.9-72.2-15.5-86.9c-0.9-5,0.6-11.3,7-12.3c1.8-0.6,5.9-0.8,10.3-0.9l3.7,0.1H302c1.7,0,3.1-1.5,3.1-3.4
			c0-0.5-0.1-0.9-0.2-1.3C304.4,215.9,303.3,215,302,215"/>
		<path fill="#414141" d="M294,321.9H280h-31.3h-13.2h-51.9c-4.5,0-7.5,3.9-7.5,3.9v5.3l0.1-2.1h1.5c2.8,0,5.1,2.5,5.1,5.7
			c0,3.1-2.3,5.7-5.1,5.7h0.4h-0.4h-1.6h-0.5h-1.5c-5.8,0-7.3,6.6-7.3,6.6v0.1v0.1h66.8h0.5h0.3c2.8,0,3.2,3.4,3.2,3.4h18.2
			c0,0,1-3.4,3.2-3.4h0.3h0.3h48.5v-0.5v-9C308.2,329,301.9,321.9,294,321.9"/>
		<path fill="#9AEFE8" d="M177.7,329h-1.5l-0.1,2.1l-0.5,9.3h0.5h1.6c2.8,0,5.1-2.5,5.1-5.7C182.8,331.6,180.5,329,177.7,329
			 M178.1,340.4h-0.4H178.1z"/>
		<path fill="#9AEFE8" d="M210.2,366.8c-2.1,0-3.7,1.9-3.7,4.1c0,2.3,1.7,4.1,3.7,4.1c2.1,0,3.7-1.9,3.7-4.1
			C213.9,368.6,212.2,366.8,210.2,366.8"/>
	</g>
	<polygon fill="#414141" points="20.8,179.6 17.1,179.6 22.4,186.5 26.2,186.5 	"/>
	<polygon fill="#414141" points="14.7,179.6 10.9,179.6 16.3,186.5 20,186.5 	"/>
	<polygon fill="#414141" points="8.7,179.6 5.6,179.6 5.6,180.4 10.3,186.5 14,186.5 	"/>
	<polygon fill="#414141" points="2.8,179.7 0,183.1 2.9,186.6 5.6,186.6 8.1,186.6 5.6,183.3 	"/>
	<polygon fill="#414141" points="64.2,179.6 35,179.6 37.1,182.4 37.1,185.2 32.7,179.6 29,179.6 34.4,186.5 64.2,186.5 	"/>
	<polygon fill="#414141" points="26.8,179.6 23,179.6 28.4,186.5 32.1,186.5 	"/>
	<polygon fill="#414141" points="-24.2,180.2 -23.6,180.8 -23.6,180.2 	"/>
	<rect x="392.9" y="55.1" fill="#414141" width="19.4" height="35.9"/>
	<g>
		<path fill="#414141" d="M410.7,92.5h-16.1v181.1v0.8c0.2,0.2,0.4,0.4,0.6,0.6c2.3,2.1,4.8,3.3,7.4,3.3c2.6,0,5.2-1.2,7.4-3.3
			c0.2-0.2,0.4-0.4,0.6-0.6v-0.8V92.5z"/>
	</g>
	<polygon fill="#9AEFE8" points="392.6,0 392.9,8.1 413,47.4 414.6,43.2 	"/>
	<g>
		<path fill="#414141" d="M402.6,49.6c-2.4,0-4.4,1.8-4.7,4.1h9.3C407,51.4,405,49.6,402.6,49.6"/>
		<path fill="#9AEFE8" d="M392.9,9.9l1.7,43.8h1.9c0.3-3.1,2.9-5.5,6.1-5.5c3.2,0,5.8,2.4,6.1,5.5h1.7l2.2-5.4L392.9,9.9z"/>
		<path fill="#9AEFE8" d="M36.3,100.3H20.6l-7.8,13.6l7.8,13.6h15.7l7.8-13.6L36.3,100.3z M28.5,120.6c-3.7,0-6.7-3-6.7-6.7
			c0-3.7,3-6.7,6.7-6.7c3.7,0,6.7,3,6.7,6.7C35.2,117.6,32.2,120.6,28.5,120.6"/>
		<path fill="#9AEFE8" d="M59.4,86.4H45.9l-6.7,11.7l6.7,11.7h13.5l6.7-11.7L59.4,86.4z M52.7,103.9c-3.2,0-5.8-2.6-5.8-5.8
			c0-3.2,2.6-5.8,5.8-5.8c3.2,0,5.8,2.6,5.8,5.8C58.4,101.3,55.9,103.9,52.7,103.9"/>
		<path fill="#9AEFE8" d="M35.8,64.9H17.3L8,81l9.3,16.1h18.6L45.1,81L35.8,64.9z M26.6,89c-4.4,0-8-3.6-8-8c0-4.4,3.6-8,8-8
			s8,3.6,8,8C34.5,85.4,31,89,26.6,89"/>
	</g>
</g>
<g>
	<g id="Yellow_Block">
		<polygon fill="#FFC100" points="118.2,401.1 428.2,353.5 486,387.1 486,492.1 176.8,542.3 118.3,506.2 118.2,506.2 		"/>
		<polygon fill="#FFD04D" points="118.2,401.1 176.8,437.3 486,387.1 428.2,353.5 		"/>
		<polygon fill="#E5A900" points="176.8,437.3 118.2,401.1 118.2,506.2 176.8,542.3 		"/>
	</g>
	<path id="Make" fill="#F4F1E4" d="M413.7,483.4c0,4.9,2,6.6,6.7,5.8l31.9-5c4.7-0.7,6.7-3.1,6.7-8v-11l-11.8,1.9v4.4
		c0,1.4-0.8,2.4-2.2,2.6l-16.2,2.6c-1.4,0.2-2.2-0.5-2.2-1.9v-17.1l22.8-3.6v-11.3l-22.8,3.6v-18.9l15.8-2.5
		c1.4-0.2,2.2,0.5,2.2,1.9v4.4l11.8-1.9v-11c0-4.8-2.1-6.6-6.7-5.8l-42.5,6.7v11.3l6.4-1V483.4z M354.9,499.6l13-2.1v-31.5l4.2-0.7
		c2.8-0.4,4.9-0.7,6.1,1.5l11.5,21.8c2.3,4.3,4.6,4.7,9.8,3.8l7.4-1.2v-11.3l-1.9,0.3c-2.3,0.4-4,0.4-4.9-1.5l-8.9-17
		c-2.2-4-4.6-4.3-4.6-4.3v-0.2c0,0,2.3-1.6,4.5-6l15.8-32.1l-14.3,2.3l-14.2,29.2c-1.2,2.3-3.1,2.8-5.6,3.2l-4.9,0.8v-22.4
		c0-4.8-2-6.6-6.7-5.8l-12.7,2v11.3l4.3-0.7c1.4-0.2,2.2,0.5,2.2,1.9V499.6z M306.8,477.8l6-19c1.3-4.2,2.8-11.2,2.8-11.2l0.2,0
		c0,0,1.5,6.6,2.8,10.3l6,17.1L306.8,477.8z M283.5,510.9l7.8-1.2c4.9-0.8,6.6-2.4,8.2-7.2l4.4-13.3l23.8-3.8l4.4,11.9
		c1.6,4.3,3.4,5.4,8.3,4.6l7.7-1.2v-11.3l-1.6,0.3c-1.7,0.3-2.5,0-3.1-1.7l-20.8-55.2l-13.6,2.1l-20.9,61.8
		c-0.6,1.9-1.4,2.5-3.1,2.7l-1.6,0.3V510.9z M202,523.8l11.2-1.8c4.7-0.7,6.3-3,6.7-8l2.3-32.4c0.4-4.8,0.1-11.3,0.1-11.3l0.2,0
		c0,0,2.1,6.9,3.9,10.7l11.7,24.7l10.5-1.7l11.7-28.4c1.8-4.3,3.9-11.8,3.9-11.8l0.2,0c0,0-0.3,6.4,0.1,11.1l2.4,31.7
		c0.4,4.8,2,6.6,6.6,5.8l11.2-1.8v-11.3l-3.1,0.5c-1.4,0.2-2.1-0.5-2.2-1.9l-4.6-57.8l-13.5,2.1L246.8,479
		c-1.7,4.4-3.5,10.2-3.5,10.2l-0.2,0c0,0-1.8-5.2-3.5-9.1l-14.4-32l-13.5,2.1l-4.6,59.3c-0.1,1.4-0.8,2.4-2.2,2.6l-3.1,0.5V523.8z"
		/>
	<g id="Red_Block">
		<polygon fill="#EE225E" points="182.7,401.8 182.7,295.8 253.3,263.8 452.7,287.6 452.7,393.5 382.2,429.9 		"/>
		<polygon fill="#ED3B77" points="452.7,287.6 382.2,324 133.1,288.8 203.7,256.8 		"/>
		<polygon fill="#D3205C" points="382.2,324 452.7,287.6 452.7,393.5 382.2,429.9 		"/>
	</g>
	<path id="Art" fill="#F4F1E4" d="M318.7,334v5.9l23.4,3.7v69.3l5.7,0.9v-69.3l23.5,3.7v-5.9L318.7,334z M276.8,368.1v-34.8
		l14.2,2.3c11.8,1.9,19.1,9.3,19.1,20.3c0,10.3-6.7,16.5-19.1,14.5L276.8,368.1z M318,409.1L301,375.9c9.4-1.5,14.9-8.2,14.9-19.1
		c0-14.3-9.5-24.7-25.2-27.2l-19.5-3.1v75.2l5.6,0.9v-29l13.9,2.2c1.6,0.2,3.1,0.4,4.6,0.4l16.4,31.9L318,409.1z M216.2,365.6
		l12.6-29.7c1.5-3.6,3-8.2,3.1-8.2l0.1,0c0.1,0,1.7,5.1,3.1,9.2l12.6,33.7L216.2,365.6z M258.8,399.7l6.2,1l-30.5-80l-5-0.8
		L199,390.3l6.2,1l8.7-20.5l36.2,5.7L258.8,399.7z"/>
	<g id="Green_Block">
		<polygon fill="#52D9CF" points="444.8,141.2 96.9,194.6 96.9,301.1 160.7,337.7 508.6,284.4 508.6,177.9 		"/>
		<polygon fill="#5FF2E4" points="96.9,194.6 160.7,231.2 508.6,177.9 444.8,141.2 		"/>
		<polygon fill="#4CBFB1" points="160.7,231.2 96.9,194.6 96.9,301.1 160.7,337.7 		"/>
	</g>
	<path id="Think" fill="#F4F1E4" d="M434.7,282.1l13-2.1v-31.5l4.2-0.7c2.8-0.4,4.9-0.7,6.1,1.5l11.5,21.8c2.3,4.3,4.6,4.7,9.8,3.8
		l7.4-1.2v-11.3l-1.9,0.3c-2.3,0.4-4,0.4-4.9-1.5l-8.9-17c-2.2-4-4.6-4.3-4.6-4.3v-0.2c0,0,2.3-1.6,4.5-6l15.8-32.1l-14.3,2.3
		l-14.2,29.2c-1.2,2.3-3.1,2.8-5.6,3.2l-4.9,0.8v-22.4c0-4.8-2-6.6-6.7-5.8l-12.7,2v11.3l4.3-0.7c1.4-0.2,2.2,0.5,2.2,1.9V282.1z
		 M354.5,294.8l12.7-2c4.8-0.8,6.7-3.1,6.7-8V252c0-4.2-0.7-10-0.7-10l0.2,0c0,0,3.1,5.6,5.8,9.2l26.7,35.5l11.6-1.8v-58.5
		c0-1.4,0.8-2.4,2.2-2.6l4.3-0.7v-11.3l-12.7,2c-4.8,0.8-6.7,3.2-6.7,8v33c0,4.2,0.7,10,0.7,10l-0.2,0c0,0-3.1-5.5-5.8-9.2
		l-26.6-35.7l-11.7,1.8v58.5c0,1.4-0.8,2.4-2.2,2.6l-4.3,0.7V294.8z M323.5,299.7l26.3-4.2v-11.3l-7,1.1v-49.5l7-1.1v-11.3
		l-26.3,4.2v11.3l7-1.1v49.5l-7,1.1V299.7z M255.5,310.5l13-2.1v-30.2l31-4.9v30.2l13-2.1v-58.5c0-1.4,0.8-2.4,2.2-2.6l4.3-0.7
		v-11.3l-12.7,2c-4.7,0.7-6.7,3.2-6.7,8V262l-31,4.9v-23.6c0-4.8-2-6.6-6.7-5.8l-12.7,2v11.3l4.3-0.7c1.4-0.2,2.2,0.5,2.2,1.9V310.5
		z M209.4,317.8l13-2.1v-60.8l10.8-1.7c1.4-0.2,2.2,0.5,2.2,1.9v4.4l11.4-1.8v-11.4c0-4.8-1.6-6.2-6.3-5.5l-49,7.8
		c-4.8,0.8-6.3,2.7-6.3,7.5v11.4l11.4-1.8v-4.4c0-1.4,0.8-2.4,2.2-2.6l10.8-1.7V317.8z"/>
</g>
</svg>
