<svg xmlns="http://www.w3.org/2000/svg" xmlns:xlink="http://www.w3.org/1999/xlink" version="1.1" x="0px" y="0px" viewBox="0 0 528.2 514.5" enable-background="new 0 0 528.2 514.5" xml:space="preserve"><style>.tamstyle0{fill:	#FFC100;}.tamstyle1{fill:	#FFD04D;}.tamstyle2{fill:	#E5A900;}.tamstyle3{fill:	#F4F1E4;}.tamstyle4{fill:	#EE225E;}.tamstyle5{fill:	#ED3B77;}.tamstyle6{fill:	#D3205C;}.tamstyle7{fill:	#52D9CF;}.tamstyle8{fill:	#5FF2E4;}.tamstyle9{fill:	#4CBFB1;}</style><g><polygon points="27.4,333.4 425.1,272.4 499.2,315.4 499.2,450.1 102.6,514.5 27.5,468.2 27.4,468.2" class="tamstyle0"/><polygon points="27.4,333.4 102.6,379.8 499.2,315.4 425.1,272.4" class="tamstyle1"/><polygon points="102.6,379.8 27.4,333.4 27.4,468.2 102.6,514.5" class="tamstyle2"/></g><path d="M406.5 438.9c0 6.2 2.5 8.4 8.6 7.5l40.9-6.5c6-0.9 8.6-4 8.6-10.2v-14.1l-15.1 2.4v5.6 c0 1.8-1 3-2.8 3.3l-20.8 3.3c-1.8 0.3-2.8-0.6-2.8-2.4v-22l29.2-4.6v-14.4l-29.2 4.6v-24.2l20.3-3.2c1.8-0.3 2.8 0.6 2.8 2.4v5.6 l15.1-2.4v-14.1c0-6.1-2.7-8.4-8.6-7.5l-54.5 8.6v14.4l8.3-1.3V438.9z M331.1 459.7l16.6-2.6v-40.3l5.3-0.8c3.6-0.6 6.3-0.9 7.9 1.9 l14.7 28c2.9 5.5 5.8 6 12.6 4.9l9.5-1.5v-14.4l-2.4 0.4c-2.9 0.5-5.1 0.5-6.3-2l-11.4-21.7c-2.8-5.2-5.8-5.5-5.8-5.5v-0.3 c0 0 2.9-2 5.7-7.7l20.3-41.2l-18.3 2.9l-18.2 37.5c-1.5 3-3.9 3.6-7.2 4.1l-6.3 1v-28.8c0-6.1-2.5-8.4-8.6-7.5l-16.3 2.6v14.4 l5.5-0.9c1.8-0.3 2.8 0.6 2.8 2.4V459.7z M269.4 431.7l7.7-24.4c1.7-5.3 3.6-14.4 3.6-14.4l0.3 0c0 0 1.9 8.4 3.6 13.2l7.7 21.9 L269.4 431.7z M239.4 474.2l10-1.6c6.3-1 8.5-3 10.5-9.2l5.6-17l30.5-4.8l5.6 15.3c2 5.5 4.3 6.9 10.7 5.9l9.9-1.6v-14.4l-2 0.3 c-2.2 0.3-3.2 0-3.9-2.2l-26.7-70.9l-17.4 2.8L245.4 456c-0.8 2.5-1.8 3.1-3.9 3.5l-2 0.3V474.2z M134.9 490.8l14.3-2.3 c6-0.9 8.1-3.9 8.6-10.2l2.9-41.6c0.5-6.2 0.1-14.5 0.1-14.5l0.3 0c0 0 2.7 8.8 5 13.7l15 31.7l13.5-2.1l15-36.5 c2.3-5.6 5-15.1 5-15.1l0.3 0c0 0-0.4 8.3 0.1 14.3l3 40.6c0.5 6.2 2.5 8.4 8.5 7.5l14.3-2.3v-14.4l-3.9 0.6 c-1.8 0.3-2.7-0.6-2.8-2.4l-5.8-74.2l-17.3 2.7l-18.5 46.9c-2.2 5.7-4.4 13.1-4.4 13.1l-0.3 0c0 0-2.3-6.7-4.4-11.7l-18.5-41.1 l-17.3 2.7l-5.8 76c-0.1 1.8-1 3-2.8 3.3l-3.9 0.6V490.8z" class="tamstyle3"/><g><polygon points="110.2,334.2 110.2,198.4 200.6,157.3 456.5,187.7 456.5,323.6 366,370.4" class="tamstyle4"/><polygon points="456.5,187.7 366,234.5 46.6,189.3 137,148.3" class="tamstyle5"/><polygon points="366,234.5 456.5,187.7 456.5,323.6 366,370.4" class="tamstyle6"/></g><path d="M284.6 247.3v7.6l30.1 4.8v88.9l7.3 1.2v-88.9l30.2 4.8V258L284.6 247.3z M230.8 291v-44.6 l18.2 2.9c15.1 2.4 24.5 11.9 24.5 26.1c0 13.2-8.6 21.1-24.5 18.6L230.8 291z M283.7 343.7l-21.9-42.6 c12.1-1.9 19.1-10.5 19.1-24.5c0-18.3-12.2-31.7-32.3-34.9l-25-4v96.5l7.2 1.1v-37.2l17.9 2.8c2 0.3 4 0.5 5.9 0.5l21 40.9 L283.7 343.7z M153.1 287.8l16.2-38.1c1.9-4.7 3.9-10.5 4-10.5l0.1 0c0.1 0 2.1 6.5 4 11.8l16.2 43.2L153.1 287.8z M207.8 331.6 l7.9 1.3l-39.1-102.7l-6.4-1l-39.1 90.3l7.9 1.3l11.2-26.3l46.4 7.3L207.8 331.6z" class="tamstyle3"/><g><polygon points="446.3,0 0,68.4 0,205.1 81.9,252.1 528.2,183.7 528.2,47" class="tamstyle7"/><polygon points="0,68.4 81.9,115.4 528.2,47 446.3,0" class="tamstyle8"/><polygon points="81.9,115.4 0,68.4 0,205.1 81.9,252.1" class="tamstyle9"/></g><path d="M433.4 180.7l16.6-2.6v-40.3l5.3-0.8c3.6-0.6 6.3-0.9 7.9 1.9l14.7 28c2.9 5.5 5.8 6 12.6 4.9 l9.5-1.5v-14.4l-2.4 0.4c-2.9 0.5-5.1 0.5-6.3-2l-11.4-21.7c-2.8-5.2-5.8-5.5-5.8-5.5v-0.3c0 0 2.9-2 5.7-7.7L500 77.8l-18.3 2.9 l-18.2 37.5c-1.5 3-3.9 3.6-7.2 4.1l-6.3 1V94.5c0-6.1-2.5-8.4-8.6-7.5l-16.3 2.6v14.4l5.5-0.9c1.8-0.3 2.8 0.6 2.8 2.4V180.7z M330.5 197l16.3-2.6c6.1-1 8.6-4 8.6-10.2v-42.2c0-5.3-0.9-12.9-0.9-12.9l0.3 0c0 0 3.9 7.2 7.5 11.8l34.3 45.6l14.9-2.4v-75.1 c0-1.8 1-3 2.8-3.3l5.5-0.9V90.5l-16.3 2.6c-6.1 1-8.6 4.1-8.6 10.2v42.3c0 5.3 0.9 12.9 0.9 12.9l-0.3 0c0 0-3.9-7.1-7.5-11.8 l-34.2-45.7l-15 2.4v75.1c0 1.8-1 3-2.8 3.3l-5.5 0.9V197z M290.8 203.3l33.8-5.3v-14.4l-9 1.4v-63.5l9-1.4v-14.4l-33.8 5.3v14.4 l9-1.4v63.5l-9 1.4V203.3z M203.6 217.1l16.6-2.6v-38.8l39.7-6.3v38.8l16.6-2.6v-75.1c0-1.8 1-3 2.8-3.3l5.5-0.9v-14.4l-16.3 2.6 c-6 0.9-8.6 4.1-8.6 10.2V155l-39.7 6.3v-30.3c0-6.1-2.5-8.4-8.6-7.5l-16.3 2.6v14.4l5.5-0.9c1.8-0.3 2.8 0.6 2.8 2.4V217.1z M144.4 226.5l16.6-2.6v-78l13.8-2.2c1.8-0.3 2.8 0.6 2.8 2.4v5.6l14.6-2.3v-14.6c0-6.1-2-8-8.1-7l-62.8 10c-6.1 1-8.1 3.5-8.1 9.6 v14.6l14.6-2.3V154c0-1.8 1-3 2.8-3.3l13.8-2.2V226.5z" class="tamstyle3"/></svg>